<?xml version="1.0" standalone="no"?>
<!DOCTYPE svg PUBLIC "-//W3C//DTD SVG 20010904//EN"
 "http://www.w3.org/TR/2001/REC-SVG-20010904/DTD/svg10.dtd">
<svg version="1.0" xmlns="http://www.w3.org/2000/svg"
 width="780.000000pt" height="780.000000pt" viewBox="0 0 780.000000 780.000000"
 preserveAspectRatio="xMidYMid meet">

<g transform="translate(0.000000,780.000000) scale(0.100000,-0.100000)"
fill="#000000" stroke="none">
<path d="M3546 7653 c-4 -5 -51 -11 -104 -14 -53 -4 -117 -12 -142 -19 -25 -6
-74 -15 -110 -19 -36 -4 -85 -15 -110 -24 -25 -9 -60 -17 -79 -17 -18 0 -61
-9 -95 -19 -323 -101 -326 -102 -491 -173 -121 -52 -465 -222 -465 -230 0 -5
-9 -8 -20 -8 -11 0 -20 -4 -20 -9 0 -5 -13 -14 -30 -21 -16 -7 -30 -16 -30
-21 0 -5 -8 -9 -18 -9 -10 0 -24 -9 -32 -20 -8 -11 -21 -20 -30 -20 -9 0 -22
-9 -30 -20 -8 -11 -21 -20 -30 -20 -9 0 -22 -9 -30 -20 -8 -11 -21 -20 -30
-20 -9 0 -22 -9 -30 -20 -8 -11 -21 -20 -28 -20 -8 0 -27 -13 -42 -30 -15 -16
-33 -30 -40 -30 -7 0 -25 -13 -40 -30 -15 -16 -33 -30 -40 -30 -6 0 -38 -27
-70 -60 -32 -33 -64 -60 -70 -60 -13 0 -260 -247 -260 -260 0 -6 -27 -38 -60
-70 -33 -32 -60 -64 -60 -70 0 -7 -13 -25 -30 -40 -16 -15 -30 -33 -30 -40 0
-7 -13 -25 -30 -40 -16 -15 -30 -33 -30 -40 0 -7 -13 -25 -30 -40 -16 -15 -30
-34 -30 -42 0 -7 -9 -20 -20 -28 -11 -8 -20 -21 -20 -30 0 -9 -9 -22 -20 -30
-11 -8 -20 -22 -20 -32 0 -10 -4 -18 -9 -18 -5 0 -14 -13 -21 -30 -7 -16 -16
-30 -21 -30 -5 0 -9 -8 -9 -18 0 -10 -9 -24 -20 -32 -11 -8 -20 -22 -20 -31 0
-10 -4 -19 -9 -21 -10 -4 -163 -307 -187 -370 -18 -49 -86 -238 -102 -283 -22
-61 -65 -201 -73 -237 -5 -21 -14 -57 -20 -80 -22 -90 -29 -131 -60 -363 -15
-107 -15 -884 0 -992 6 -46 15 -118 20 -160 5 -43 14 -97 20 -120 6 -24 16
-62 21 -85 6 -24 15 -61 21 -83 5 -22 14 -56 18 -75 10 -42 90 -273 121 -350
12 -30 28 -72 36 -93 8 -21 32 -74 54 -117 22 -44 40 -86 40 -95 0 -8 4 -15 8
-15 4 0 28 -41 52 -90 24 -49 48 -90 52 -90 4 0 8 -8 8 -18 0 -10 9 -24 20
-32 11 -8 20 -22 20 -32 0 -10 4 -18 9 -18 5 0 14 -13 21 -30 7 -16 16 -30 21
-30 5 0 9 -7 9 -16 0 -9 14 -29 30 -44 17 -15 30 -34 30 -42 0 -7 9 -20 20
-28 11 -8 20 -21 20 -28 0 -8 13 -27 30 -42 16 -15 30 -33 30 -40 0 -6 23 -33
50 -60 28 -27 50 -54 50 -60 0 -7 14 -25 30 -40 17 -15 30 -33 30 -39 0 -14
326 -341 340 -341 6 0 38 -27 70 -60 32 -33 64 -60 70 -60 7 0 25 -13 40 -30
15 -16 34 -30 42 -30 7 0 20 -9 28 -20 8 -11 21 -20 28 -20 8 0 27 -13 42 -30
15 -16 34 -30 42 -30 7 0 20 -9 28 -20 8 -11 22 -20 32 -20 10 0 18 -4 18 -9
0 -5 13 -14 30 -21 16 -7 30 -16 30 -21 0 -5 9 -9 20 -9 11 0 20 -4 20 -9 0
-5 13 -14 30 -21 16 -7 30 -16 30 -21 0 -5 9 -9 19 -9 11 0 21 -4 23 -9 3 -10
307 -163 365 -185 21 -8 62 -23 91 -35 28 -12 76 -30 105 -42 83 -34 302 -105
372 -121 22 -5 58 -13 80 -19 22 -6 61 -14 88 -20 26 -5 68 -13 95 -18 26 -6
67 -15 92 -21 90 -24 253 -32 660 -32 271 -1 437 3 478 11 101 18 183 31 252
40 36 4 90 16 120 25 52 16 74 23 175 48 62 15 285 86 335 107 25 10 70 29
100 41 30 12 88 37 128 56 40 19 79 34 86 34 8 0 16 4 18 9 2 5 50 32 108 61
58 29 107 56 108 61 2 5 12 9 23 9 10 0 19 4 19 9 0 5 13 14 30 21 17 7 30 16
30 21 0 5 8 9 18 9 10 0 24 9 32 20 8 11 21 20 30 20 9 0 22 9 30 20 8 11 21
20 30 20 9 0 22 9 30 20 8 11 21 20 30 20 9 0 22 9 30 20 8 11 21 20 28 20 7
0 31 18 52 40 21 22 44 40 50 40 6 0 29 18 50 40 21 22 43 40 49 40 14 0 461
447 461 461 0 6 18 28 40 49 22 21 40 44 40 50 0 6 18 29 40 50 22 21 40 44
40 50 0 7 14 25 30 40 17 15 30 35 30 44 0 9 4 16 9 16 5 0 13 9 16 20 4 11
17 32 31 45 13 13 24 31 24 40 0 8 4 15 9 15 5 0 14 14 21 30 7 17 16 30 21
30 5 0 9 9 9 20 0 11 4 20 8 20 5 0 19 22 32 50 13 27 27 50 32 50 4 0 8 9 8
20 0 11 4 20 8 20 12 0 139 274 183 395 59 164 92 264 100 298 5 20 13 54 19
75 5 20 14 56 20 80 5 23 15 61 21 85 6 23 15 68 20 100 5 31 14 85 20 120 24
142 31 279 31 597 0 318 -7 455 -31 598 -6 34 -15 88 -20 120 -5 31 -14 75
-20 97 -16 64 -29 117 -39 160 -10 43 -37 131 -54 180 -16 48 -85 236 -102
283 -24 63 -197 406 -207 410 -5 2 -9 12 -9 23 0 10 -4 19 -9 19 -5 0 -14 14
-21 30 -7 17 -16 30 -21 30 -5 0 -9 8 -9 18 0 10 -9 24 -20 32 -11 8 -20 21
-20 30 0 9 -9 22 -20 30 -11 8 -20 21 -20 28 0 8 -14 27 -30 42 -16 15 -30 34
-30 42 0 7 -9 20 -20 28 -11 8 -20 21 -20 28 0 8 -13 27 -30 42 -16 15 -30 33
-30 40 0 6 -22 33 -50 60 -27 27 -50 54 -50 59 0 14 -387 401 -400 401 -6 0
-38 27 -70 60 -32 33 -65 60 -72 60 -8 0 -20 9 -28 20 -8 11 -21 20 -28 20 -8
0 -27 14 -42 30 -15 17 -34 30 -42 30 -7 0 -20 9 -28 20 -8 11 -21 20 -30 20
-9 0 -22 9 -30 20 -8 11 -21 20 -30 20 -9 0 -22 9 -30 20 -8 11 -22 20 -32 20
-10 0 -18 4 -18 9 0 5 -13 14 -30 21 -16 7 -30 16 -30 21 0 5 -9 9 -20 9 -11
0 -20 4 -20 8 0 5 -31 23 -70 42 -38 19 -70 37 -70 41 0 3 -13 9 -29 12 -16 3
-36 13 -44 22 -9 8 -23 15 -31 15 -9 0 -16 4 -16 10 0 5 -12 13 -27 16 -16 4
-58 22 -95 40 -37 19 -84 40 -105 48 -21 8 -63 24 -93 36 -83 34 -250 92 -292
101 -21 5 -56 14 -78 19 -22 6 -59 15 -82 20 -24 6 -61 15 -83 21 -85 22 -135
30 -360 60 -94 13 -818 23 -829 12z m794 -288 c145 -20 363 -61 458 -86 482
-129 956 -368 1344 -677 236 -189 431 -391 615 -636 352 -470 552 -950 647
-1546 25 -159 36 -315 36 -528 0 -264 -22 -465 -85 -772 -61 -301 -206 -670
-372 -952 -43 -73 -50 -80 -134 -128 -49 -27 -91 -50 -95 -50 -3 0 -26 -12
-51 -26 -34 -20 -41 -29 -31 -36 10 -7 8 -8 -5 -4 -10 3 -66 -18 -135 -51
-250 -119 -311 -147 -427 -193 -158 -63 -190 -73 -353 -115 -348 -87 -661 -85
-1050 6 -183 44 -430 147 -572 240 -36 24 -101 78 -145 121 l-80 78 -40 -42
c-89 -95 -231 -195 -363 -255 -363 -165 -764 -238 -1122 -204 -126 13 -319 44
-375 61 -16 5 -64 19 -105 30 -91 26 -284 99 -400 152 -120 56 -309 149 -350
174 -19 11 -73 40 -120 65 -172 88 -183 101 -298 319 -154 295 -273 653 -331
1000 -41 241 -51 361 -51 592 0 373 55 726 170 1084 234 732 758 1399 1441
1833 506 321 1095 518 1694 565 114 9 574 -4 685 -19z m-3303 -5495 c0 -25 -2
-27 -12 -13 -10 14 -5 36 11 43 0 0 1 -13 1 -30z m5729 -12 c-9 -12 -16 -19
-16 -15 0 11 24 47 28 42 2 -2 -3 -14 -12 -27z m-5679 -31 c-1 -7 6 -11 15
-11 10 1 14 -4 11 -13 -5 -12 -8 -12 -23 2 -9 8 -20 12 -23 8 -4 -3 -7 3 -7
15 0 15 5 20 15 16 8 -3 13 -11 12 -17z m5653 -11 c0 -2 -7 -9 -15 -16 -13
-11 -14 -10 -9 4 5 14 24 23 24 12z m-5620 -56 c0 -5 -2 -10 -4 -10 -3 0 -8 5
-11 10 -3 6 -1 10 4 10 6 0 11 -4 11 -10z m5548 -18 c13 11 14 10 5 -7 -14
-25 -63 -72 -63 -59 0 5 9 15 20 22 11 7 20 17 20 23 0 7 -10 5 -25 -5 -14 -9
-25 -12 -25 -7 0 5 9 13 20 16 11 3 20 12 21 18 0 8 2 8 6 -1 4 -10 8 -10 21
0z m-5473 -44 c5 4 5 2 2 -5 -13 -21 3 -39 33 -37 29 2 29 2 13 -20 l-17 -22
-38 43 c-43 50 -46 58 -19 44 10 -6 22 -7 26 -3z m85 -12 c0 -3 -4 -8 -10 -11
-5 -3 -10 -1 -10 4 0 6 5 11 10 11 6 0 10 -2 10 -4z m5296 -32 c-4 -9 -9 -15
-11 -12 -3 3 -3 13 1 22 4 9 9 15 11 12 3 -3 3 -13 -1 -22z m-5325 -47 c-10
-9 -11 -8 -5 6 3 10 9 15 12 12 3 -3 0 -11 -7 -18z m64 -45 c-3 -3 -11 0 -18
7 -9 10 -8 11 6 5 10 -3 15 -9 12 -12z m40 7 c11 -16 1 -19 -13 -3 -7 8 -8 14
-3 14 5 0 13 -5 16 -11z m5160 1 c3 -6 -1 -7 -9 -4 -9 3 -16 2 -16 -4 0 -6 5
-12 11 -14 7 -2 6 -8 -3 -15 -11 -10 -14 -7 -12 15 1 15 2 28 3 30 3 6 20 1
26 -8z m-52 -59 c-3 -11 -16 -22 -30 -26 -17 -4 -23 -11 -19 -21 3 -9 1 -12
-4 -9 -17 11 -11 24 18 39 15 8 23 15 19 16 -11 0 2 20 13 20 4 0 6 -9 3 -19z
m-2571 -107 c-10 -8 -21 -9 -28 -3 -6 5 -15 5 -19 1 -5 -4 -5 -2 -2 4 3 6 20
11 36 11 27 0 28 -2 13 -13z m-2387 -4 c3 -5 2 -10 -4 -10 -5 0 -13 5 -16 10
-3 6 -2 10 4 10 5 0 13 -4 16 -10z m-35 -20 c0 -5 -2 -10 -4 -10 -3 0 -8 5
-11 10 -3 6 -1 10 4 10 6 0 11 -4 11 -10z m2526 -12 c-4 -17 2 -28 22 -44 15
-12 24 -25 21 -28 -3 -3 -21 9 -40 26 -21 19 -29 33 -21 36 6 2 12 10 12 18 0
8 3 14 6 14 4 0 4 -10 0 -22z m-2484 -10 c-9 -9 -15 -9 -24 1 -9 10 -9 12 -1
7 6 -3 15 -1 18 5 4 5 10 8 13 4 3 -3 0 -11 -6 -17z m2565 -35 c-3 -3 -15 -2
-27 2 l-22 7 23 12 c19 10 25 9 27 -2 2 -7 1 -16 -1 -19z m-2499 11 c12 -4 22
-13 22 -20 0 -8 7 -17 15 -20 8 -4 15 -15 15 -26 0 -14 5 -18 16 -14 9 3 12 2
9 -5 -4 -6 2 -8 17 -4 19 5 24 2 25 -14 1 -12 0 -21 -3 -21 -16 0 -85 48 -90
63 -3 9 -10 15 -15 12 -5 -3 -7 0 -4 7 3 7 -7 21 -22 30 -29 18 -24 22 15 12z
m2232 -5 c0 -5 -5 -7 -11 -3 -6 3 -15 0 -20 -7 -4 -7 -11 -10 -16 -6 -8 9 15
27 35 27 6 0 12 -5 12 -11z m2450 1 c-12 -8 -12 -10 -1 -10 18 0 -3 -27 -33
-41 -21 -10 -21 -10 -1 6 11 9 21 21 21 28 1 7 2 15 3 20 0 4 7 7 14 7 8 0 7
-4 -3 -10z m-2184 -45 c-5 -18 -2 -25 7 -25 8 0 22 -9 32 -20 10 -11 13 -20 7
-20 -7 0 -12 5 -12 11 0 5 -13 15 -30 20 -34 12 -34 13 -20 40 15 27 23 24 16
-6z m2114 -5 c0 -5 -5 -10 -11 -10 -5 0 -7 5 -4 10 3 6 8 10 11 10 2 0 4 -4 4
-10z m-2480 -39 c0 -4 -12 -14 -27 -21 -16 -8 -51 -31 -80 -52 -58 -42 -68
-45 -77 -22 -8 21 1 34 22 34 14 0 15 -2 2 -10 -8 -5 -12 -12 -8 -15 10 -10
65 29 61 43 -3 7 4 12 16 12 31 0 72 22 67 36 -3 8 0 11 10 7 7 -3 14 -8 14
-12z m445 8 c11 -17 -1 -21 -15 -4 -8 9 -8 15 -2 15 6 0 14 -5 17 -11z m2045
6 c0 -2 -10 -9 -22 -15 -22 -11 -22 -10 -4 4 21 17 26 19 26 11z m-71 -24 c19
-12 8 -25 -48 -54 -47 -25 -91 -32 -91 -14 0 5 10 5 21 2 14 -5 19 -4 15 4 -4
7 -1 9 8 5 20 -8 56 13 50 30 -4 10 2 12 23 9 27 -4 27 -4 9 11 -21 17 -11 22
13 7z m-4339 -20 c0 -12 -48 -23 -63 -14 -8 5 -3 10 13 14 36 10 50 10 50 0z
m113 -55 c9 -7 17 -17 17 -22 0 -4 -5 -3 -12 4 -7 7 -20 12 -29 12 -10 0 -21
5 -24 10 -9 15 27 12 48 -4z m4072 -26 c-3 -5 -11 -10 -16 -10 -6 0 -7 5 -4
10 3 6 11 10 16 10 6 0 7 -4 4 -10z m-4075 -20 c0 -5 -4 -10 -10 -10 -5 0 -10
5 -10 10 0 6 5 10 10 10 6 0 10 -4 10 -10z m73 -17 c-7 -2 -19 -2 -25 0 -7 3
-2 5 12 5 14 0 19 -2 13 -5z m98 -23 c9 -10 29 -20 45 -22 l29 -4 -29 -9 c-21
-5 -31 -5 -34 3 -2 7 -13 10 -27 6 -12 -3 -26 -1 -29 5 -5 7 4 11 21 12 21 1
23 3 8 6 -11 3 -25 10 -32 15 -7 5 -18 6 -24 2 -8 -4 -9 -3 -5 4 10 16 57 5
77 -18z m1344 20 c4 -6 16 -8 28 -5 17 5 18 4 7 -4 -17 -11 -70 -3 -70 10 0
12 27 11 35 -1z m2421 -5 c-11 -8 -27 -15 -35 -15 -13 1 -12 4 3 15 11 8 27
15 35 15 13 -1 12 -4 -3 -15z m6 -21 c-53 -24 -162 -47 -162 -34 0 4 14 13 31
20 26 11 32 11 40 -1 7 -11 9 -11 9 4 0 13 6 16 23 12 12 -3 38 1 57 9 57 25
59 16 2 -10z m-1363 -24 c-7 -5 -18 -6 -26 -4 -47 14 -48 15 -34 24 8 4 27 3
43 -2 21 -7 26 -13 17 -18z m-1084 10 c-27 -12 -43 -12 -25 0 8 5 22 9 30 9
10 0 8 -3 -5 -9z m-1258 -36 c-3 -3 -12 -4 -19 -1 -8 3 -5 6 6 6 11 1 17 -2
13 -5z m103 -4 c0 -5 -7 -10 -16 -10 -9 0 -12 -5 -8 -11 5 -9 -1 -10 -22 -5
-42 11 -58 30 -17 21 18 -3 34 -2 38 4 8 14 25 14 25 1z m1033 -12 c-26 -10
-53 -16 -60 -14 -6 3 -13 1 -15 -4 -2 -5 -16 -11 -33 -14 l-30 -6 31 14 c17 8
34 22 37 30 5 12 20 15 62 14 l56 -2 -48 -18z m1372 12 c6 0 24 1 40 4 17 2
22 1 12 -1 -14 -4 -16 -7 -6 -19 16 -19 -12 -19 -54 0 -18 8 -45 17 -62 20
-16 2 -10 2 15 0 25 -2 50 -4 55 -4z m1033 1 c16 -10 -119 -55 -146 -48 -9 2
2 8 26 12 23 4 45 12 49 18 6 10 -34 5 -69 -8 -11 -4 -18 -3 -18 4 0 6 12 13
28 17 15 3 32 7 37 9 20 7 80 4 93 -4z m-3380 -7 c32 -9 28 -28 -5 -19 -32 7
-55 25 -32 25 7 0 24 -3 37 -6z m2239 0 c-3 -3 -12 -4 -19 -1 -8 3 -5 6 6 6
11 1 17 -2 13 -5z m98 -25 c17 -4 44 -11 60 -15 17 -4 24 -9 17 -11 -13 -5
-152 34 -152 43 0 3 10 2 23 -1 12 -4 36 -11 52 -16z m845 -14 c0 -8 -9 -19
-20 -25 -18 -9 -20 -8 -20 15 0 18 5 25 20 25 11 0 20 -7 20 -15z m-3183 -1
c-3 -3 -12 -4 -19 -1 -8 3 -5 6 6 6 11 1 17 -2 13 -5z m321 -31 c-16 -2 -40
-2 -55 0 -16 2 -3 4 27 4 30 0 43 -2 28 -4z m280 0 c-10 -2 -26 -2 -35 0 -10
3 -2 5 17 5 19 0 27 -2 18 -5z m145 0 c-7 -2 -21 -2 -30 0 -10 3 -4 5 12 5 17
0 24 -2 18 -5z m1852 -3 c17 -7 15 -9 -12 -9 -18 -1 -33 4 -33 9 0 12 17 12
45 0z m123 3 c-15 -2 -42 -2 -60 0 -18 2 -6 4 27 4 33 0 48 -2 33 -4z m240 2
c-7 -8 -87 -9 -95 -2 -3 4 18 7 47 7 29 0 51 -2 48 -5z m55 -2 c-7 -2 -19 -2
-25 0 -7 3 -2 5 12 5 14 0 19 -2 13 -5z m97 -3 c-34 -11 -60 -11 -35 0 11 5
29 8 40 8 16 0 15 -2 -5 -8z m-2902 -7 c-10 -2 -28 -2 -40 0 -13 2 -5 4 17 4
22 1 32 -1 23 -4z m470 0 c-10 -2 -26 -2 -35 0 -10 3 -2 5 17 5 19 0 27 -2 18
-5z m-421 -9 c-3 -3 -12 -4 -19 -1 -8 3 -5 6 6 6 11 1 17 -2 13 -5z m2549 -12
c-32 -2 -63 1 -67 5 -4 4 22 6 59 3 l67 -5 -59 -3z m207 11 c-7 -2 -19 -2 -25
0 -7 3 -2 5 12 5 14 0 19 -2 13 -5z"/>
<path d="M2251 5733 c-1 -132 6 -163 47 -207 53 -57 45 -56 626 -56 l536 0 2
-858 3 -858 37 -75 c43 -86 124 -174 151 -163 15 5 15 9 5 23 -12 14 -11 15 5
2 18 -14 18 -16 2 -27 -15 -11 -13 -15 22 -32 256 -131 565 6 639 283 11 40
14 218 14 878 l0 827 521 0 c372 0 533 3 561 12 51 15 113 84 122 135 10 62 7
233 -4 233 -5 0 -10 -7 -10 -15 0 -8 -18 -33 -41 -55 -30 -29 -51 -40 -82 -44
-23 -3 -294 -8 -603 -10 -532 -4 -563 -5 -605 -24 -56 -25 -82 -54 -103 -116
-14 -44 -16 -141 -16 -913 0 -716 -2 -869 -14 -897 -44 -106 -228 -130 -307
-40 -51 58 -49 17 -49 959 0 942 2 908 -51 970 -52 60 -39 59 -674 61 -528 1
-584 3 -623 19 -39 16 -69 43 -99 91 -10 15 -12 -5 -12 -103z m1313 -2122 c-5
-5 -33 30 -34 43 0 4 9 -2 19 -15 11 -13 17 -26 15 -28z m71 -41 c3 -5 1 -10
-4 -10 -6 0 -11 5 -11 10 0 6 2 10 4 10 3 0 8 -4 11 -10z m5 -38 c0 -1 -9 2
-20 8 -11 6 -20 15 -20 20 0 6 9 2 20 -7 11 -10 20 -19 20 -21z"/>
<path d="M2770 4474 c-30 -8 -73 -25 -95 -38 -81 -49 -196 -181 -179 -208 4
-6 3 -8 -3 -5 -14 9 -38 -58 -59 -158 -66 -322 159 -749 521 -988 263 -173
536 -258 880 -274 607 -27 1161 253 1417 718 43 77 95 220 108 295 26 148 1
325 -62 438 -97 177 -293 271 -462 222 -141 -41 -190 -111 -142 -204 22 -42
80 -72 104 -54 79 57 105 62 176 37 21 -7 46 -11 55 -8 12 3 13 2 3 -4 -10 -7
-8 -14 9 -29 66 -60 99 -185 80 -311 -37 -250 -235 -513 -500 -666 -201 -116
-398 -171 -651 -183 -399 -19 -786 117 -1030 365 -125 125 -191 229 -241 376
-33 98 -34 268 -2 335 60 126 191 176 274 105 25 -21 39 -25 62 -21 39 8 74
47 88 99 14 54 1 80 -64 120 -89 55 -185 68 -287 41z m-6 -208 c-10 -8 -21
-12 -24 -10 -5 6 21 24 34 24 6 0 1 -6 -10 -14z"/>
<path d="M1975 3120 c-41 -59 -167 -175 -243 -224 -129 -83 -250 -138 -394
-180 -64 -18 -77 -25 -60 -30 12 -4 22 -11 22 -16 0 -15 171 -159 261 -221
101 -69 232 -135 375 -190 361 -136 786 -133 1196 10 111 38 314 130 292 131
-50 2 -316 43 -384 59 -179 42 -427 148 -569 243 -36 24 -72 48 -80 53 -9 6
-18 12 -21 15 -3 3 -32 27 -65 55 -96 80 -158 144 -230 240 -37 50 -68 91 -70
93 -1 1 -15 -16 -30 -38z m-571 -516 c24 -24 19 -30 -6 -8 -13 10 -25 20 -27
21 -2 2 1 3 7 3 6 0 18 -7 26 -16z m163 -119 c8 -23 0 -24 -19 -3 -15 15 -16
18 -3 18 9 0 18 -7 22 -15z m24 -28 c-10 -9 -11 -8 -5 6 3 10 9 15 12 12 3 -3
0 -11 -7 -18z m61 -11 c-3 -5 2 -6 12 -3 11 4 15 3 10 -4 -3 -6 -17 -8 -31 -4
-16 4 -22 2 -18 -5 3 -5 2 -10 -4 -10 -5 0 -13 5 -16 10 -3 6 -1 10 5 10 6 0
9 4 6 9 -3 5 5 8 18 7 13 0 22 -5 18 -10z m155 -112 c-5 -5 -57 13 -57 20 0 3
14 0 31 -6 16 -6 28 -12 26 -14z m178 -64 c3 -5 -1 -10 -9 -10 -8 0 -18 5 -21
10 -3 6 1 10 9 10 8 0 18 -4 21 -10z m72 4 c-3 -3 -12 -4 -19 -1 -8 3 -5 6 6
6 11 1 17 -2 13 -5z m256 -81 c-7 -2 -19 -2 -25 0 -7 3 -2 5 12 5 14 0 19 -2
13 -5z m80 -10 c-7 -2 -19 -2 -25 0 -7 3 -2 5 12 5 14 0 19 -2 13 -5z"/>
<path d="M5755 3103 c-146 -193 -278 -312 -479 -435 -44 -27 -80 -54 -79 -58
2 -5 -4 -7 -12 -4 -8 4 -26 -1 -39 -10 -44 -28 -194 -86 -313 -120 -123 -35
-260 -62 -391 -75 l-77 -8 37 -16 c22 -10 48 -14 66 -11 19 4 32 1 37 -6 6
-10 1 -11 -19 -6 -44 11 -29 -4 32 -31 406 -181 884 -213 1271 -83 139 46 172
59 252 99 71 36 199 113 226 136 17 14 32 25 78 60 22 16 72 60 111 97 l72 67
-32 7 c-226 48 -526 232 -661 407 -16 20 -32 37 -36 37 -5 0 -24 -21 -44 -47z
m-1278 -719 c-3 -3 -12 -4 -19 -1 -8 3 -5 6 6 6 11 1 17 -2 13 -5z m73 -44 c8
-5 11 -10 5 -10 -5 0 -17 5 -25 10 -8 5 -10 10 -5 10 6 0 17 -5 25 -10z m567
-156 c-3 -3 -12 -4 -19 -1 -8 3 -5 6 6 6 11 1 17 -2 13 -5z"/>
<path d="M5628 1003 c6 -2 18 -2 25 0 6 3 1 5 -13 5 -14 0 -19 -2 -12 -5z"/>
</g>
</svg>
