<?xml version="1.0" encoding="UTF-8"?>
<!DOCTYPE svg PUBLIC "-//W3C//DTD SVG 1.1//EN" "http://www.w3.org/Graphics/SVG/1.1/DTD/svg11.dtd">
<svg xmlns="http://www.w3.org/2000/svg" version="1.1" width="780px" height="780px" style="shape-rendering:geometricPrecision; text-rendering:geometricPrecision; image-rendering:optimizeQuality; fill-rule:evenodd; clip-rule:evenodd" xmlns:xlink="http://www.w3.org/1999/xlink">
<g><path style="opacity:1" fill="#303247" d="M 563.5,53.5 C 565.477,55.9531 568.144,57.2864 571.5,57.5C 576.822,61.8328 582.822,65.1661 589.5,67.5C 592.135,70.4916 595.468,72.4916 599.5,73.5C 600.774,75.8115 602.774,77.1449 605.5,77.5C 606.774,79.8115 608.774,81.1449 611.5,81.5C 612.774,83.8115 614.774,85.1449 617.5,85.5C 617.833,86.5 618.5,87.1667 619.5,87.5C 620.774,89.8115 622.774,91.1449 625.5,91.5C 626.774,93.8115 628.774,95.1449 631.5,95.5C 631.833,96.5 632.5,97.1667 633.5,97.5C 633.833,98.5 634.5,99.1667 635.5,99.5C 635.833,100.5 636.5,101.167 637.5,101.5C 637.833,102.5 638.5,103.167 639.5,103.5C 640.774,105.812 642.774,107.145 645.5,107.5C 645.833,108.5 646.5,109.167 647.5,109.5C 647.833,110.5 648.5,111.167 649.5,111.5C 649.833,112.5 650.5,113.167 651.5,113.5C 651.833,114.5 652.5,115.167 653.5,115.5C 653.833,116.5 654.5,117.167 655.5,117.5C 655.833,118.5 656.5,119.167 657.5,119.5C 657.833,120.5 658.5,121.167 659.5,121.5C 659.833,122.5 660.5,123.167 661.5,123.5C 661.833,124.5 662.5,125.167 663.5,125.5C 663.833,126.5 664.5,127.167 665.5,127.5C 665.833,128.5 666.5,129.167 667.5,129.5C 667.833,130.5 668.5,131.167 669.5,131.5C 669.833,132.5 670.5,133.167 671.5,133.5C 671.833,134.5 672.5,135.167 673.5,135.5C 673.833,136.5 674.5,137.167 675.5,137.5C 675.833,138.5 676.5,139.167 677.5,139.5C 677.833,140.5 678.5,141.167 679.5,141.5C 679.833,142.5 680.5,143.167 681.5,143.5C 681.855,146.226 683.188,148.226 685.5,149.5C 685.833,150.5 686.5,151.167 687.5,151.5C 687.833,152.5 688.5,153.167 689.5,153.5C 689.833,154.5 690.5,155.167 691.5,155.5C 691.855,158.226 693.188,160.226 695.5,161.5C 695.833,162.5 696.5,163.167 697.5,163.5C 697.855,166.226 699.188,168.226 701.5,169.5C 701.855,172.226 703.188,174.226 705.5,175.5C 705.833,176.5 706.5,177.167 707.5,177.5C 707.855,180.226 709.188,182.226 711.5,183.5C 711.855,186.226 713.188,188.226 715.5,189.5C 716.508,193.532 718.508,196.865 721.5,199.5C 727.878,213.258 734.545,226.924 741.5,240.5C 748.274,258.825 754.607,277.159 760.5,295.5C 769.698,338.019 772.698,381.019 769.5,424.5C 766.781,457.035 760.115,488.702 749.5,519.5C 749.5,520.167 749.5,520.833 749.5,521.5C 748.85,521.804 748.183,522.137 747.5,522.5C 745.95,526.812 744.617,531.146 743.5,535.5C 743.5,536.167 743.5,536.833 743.5,537.5C 742.5,537.833 741.833,538.5 741.5,539.5C 741.5,540.167 741.5,540.833 741.5,541.5C 739.047,543.477 737.714,546.144 737.5,549.5C 737.5,550.167 737.5,550.833 737.5,551.5C 736.5,551.833 735.833,552.5 735.5,553.5C 735.5,554.167 735.5,554.833 735.5,555.5C 734.5,555.833 733.833,556.5 733.5,557.5C 733.5,558.167 733.5,558.833 733.5,559.5C 732.5,559.833 731.833,560.5 731.5,561.5C 731.5,562.167 731.5,562.833 731.5,563.5C 730.5,563.833 729.833,564.5 729.5,565.5C 729.5,566.167 729.5,566.833 729.5,567.5C 728.5,567.833 727.833,568.5 727.5,569.5C 726.5,569.833 725.833,570.5 725.5,571.5C 725.5,572.167 725.5,572.833 725.5,573.5C 724.5,573.833 723.833,574.5 723.5,575.5C 723.5,576.167 723.5,576.833 723.5,577.5C 722.5,577.833 721.833,578.5 721.5,579.5C 721.5,580.167 721.5,580.833 721.5,581.5C 720.5,581.833 719.833,582.5 719.5,583.5C 718.5,583.833 717.833,584.5 717.5,585.5C 717.5,586.167 717.5,586.833 717.5,587.5C 716.5,587.833 715.833,588.5 715.5,589.5C 715.5,590.167 715.5,590.833 715.5,591.5C 714.5,591.833 713.833,592.5 713.5,593.5C 712.5,593.833 711.833,594.5 711.5,595.5C 710.5,595.833 709.833,596.5 709.5,597.5C 709.5,598.167 709.5,598.833 709.5,599.5C 708.5,599.833 707.833,600.5 707.5,601.5C 707.5,602.167 707.5,602.833 707.5,603.5C 706.5,603.833 705.833,604.5 705.5,605.5C 704.5,605.833 703.833,606.5 703.5,607.5C 702.5,607.833 701.833,608.5 701.5,609.5C 701.5,610.167 701.5,610.833 701.5,611.5C 700.5,611.833 699.833,612.5 699.5,613.5C 698.5,613.833 697.833,614.5 697.5,615.5C 696.5,615.833 695.833,616.5 695.5,617.5C 694.5,617.833 693.833,618.5 693.5,619.5C 693.5,620.167 693.5,620.833 693.5,621.5C 692.5,621.833 691.833,622.5 691.5,623.5C 690.5,623.833 689.833,624.5 689.5,625.5C 688.5,625.833 687.833,626.5 687.5,627.5C 686.5,627.833 685.833,628.5 685.5,629.5C 685.5,630.167 685.5,630.833 685.5,631.5C 684.5,631.833 683.833,632.5 683.5,633.5C 682.5,633.833 681.833,634.5 681.5,635.5C 680.5,635.833 679.833,636.5 679.5,637.5C 678.5,637.833 677.833,638.5 677.5,639.5C 676.5,639.833 675.833,640.5 675.5,641.5C 674.5,641.833 673.833,642.5 673.5,643.5C 672.5,643.833 671.833,644.5 671.5,645.5C 670.5,645.833 669.833,646.5 669.5,647.5C 668.5,647.833 667.833,648.5 667.5,649.5C 666.5,649.833 665.833,650.5 665.5,651.5C 664.5,651.833 663.833,652.5 663.5,653.5C 662.5,653.833 661.833,654.5 661.5,655.5C 660.5,655.833 659.833,656.5 659.5,657.5C 658.5,657.833 657.833,658.5 657.5,659.5C 656.5,659.833 655.833,660.5 655.5,661.5C 654.5,661.833 653.833,662.5 653.5,663.5C 652.5,663.833 651.833,664.5 651.5,665.5C 650.5,665.833 649.833,666.5 649.5,667.5C 648.5,667.833 647.833,668.5 647.5,669.5C 646.5,669.833 645.833,670.5 645.5,671.5C 644.5,671.833 643.833,672.5 643.5,673.5C 642.5,673.833 641.833,674.5 641.5,675.5C 640.5,675.833 639.833,676.5 639.5,677.5C 638.833,677.5 638.167,677.5 637.5,677.5C 636.5,677.833 635.833,678.5 635.5,679.5C 634.5,679.833 633.833,680.5 633.5,681.5C 632.5,681.833 631.833,682.5 631.5,683.5C 630.5,683.833 629.833,684.5 629.5,685.5C 628.833,685.5 628.167,685.5 627.5,685.5C 626.5,685.833 625.833,686.5 625.5,687.5C 624.5,687.833 623.833,688.5 623.5,689.5C 622.5,689.833 621.833,690.5 621.5,691.5C 620.5,691.833 619.833,692.5 619.5,693.5C 618.833,693.5 618.167,693.5 617.5,693.5C 616.5,693.833 615.833,694.5 615.5,695.5C 614.5,695.833 613.833,696.5 613.5,697.5C 612.833,697.5 612.167,697.5 611.5,697.5C 610.5,697.833 609.833,698.5 609.5,699.5C 608.5,699.833 607.833,700.5 607.5,701.5C 606.833,701.5 606.167,701.5 605.5,701.5C 604.5,701.833 603.833,702.5 603.5,703.5C 602.5,703.833 601.833,704.5 601.5,705.5C 600.833,705.5 600.167,705.5 599.5,705.5C 598.5,705.833 597.833,706.5 597.5,707.5C 596.5,707.833 595.833,708.5 595.5,709.5C 594.833,709.5 594.167,709.5 593.5,709.5C 592.5,709.833 591.833,710.5 591.5,711.5C 590.833,711.5 590.167,711.5 589.5,711.5C 588.5,711.833 587.833,712.5 587.5,713.5C 586.5,713.833 585.833,714.5 585.5,715.5C 584.833,715.5 584.167,715.5 583.5,715.5C 582.5,715.833 581.833,716.5 581.5,717.5C 580.833,717.5 580.167,717.5 579.5,717.5C 578.5,717.833 577.833,718.5 577.5,719.5C 576.833,719.5 576.167,719.5 575.5,719.5C 574.5,719.833 573.833,720.5 573.5,721.5C 572.833,721.5 572.167,721.5 571.5,721.5C 570.5,721.833 569.833,722.5 569.5,723.5C 568.833,723.5 568.167,723.5 567.5,723.5C 566.5,723.833 565.833,724.5 565.5,725.5C 564.833,725.5 564.167,725.5 563.5,725.5C 562.5,725.833 561.833,726.5 561.5,727.5C 558.144,727.714 555.477,729.047 553.5,731.5C 552.833,731.5 552.167,731.5 551.5,731.5C 550.5,731.833 549.833,732.5 549.5,733.5C 548.833,733.5 548.167,733.5 547.5,733.5C 544.144,733.714 541.477,735.047 539.5,737.5C 538.833,737.5 538.167,737.5 537.5,737.5C 534.144,737.714 531.477,739.047 529.5,741.5C 528.833,741.5 528.167,741.5 527.5,741.5C 497.232,751.817 466.232,759.15 434.5,763.5C 399.476,764.871 364.476,764.538 329.5,762.5C 314.699,758.601 299.699,754.934 284.5,751.5C 252.238,741.867 221.238,729.201 191.5,713.5C 188.865,710.508 185.532,708.508 181.5,707.5C 178.865,704.508 175.532,702.508 171.5,701.5C 170.226,699.188 168.226,697.855 165.5,697.5C 165.167,696.5 164.5,695.833 163.5,695.5C 162.226,693.188 160.226,691.855 157.5,691.5C 156.226,689.188 154.226,687.855 151.5,687.5C 151.167,686.5 150.5,685.833 149.5,685.5C 148.226,683.188 146.226,681.855 143.5,681.5C 143.167,680.5 142.5,679.833 141.5,679.5C 141.167,678.5 140.5,677.833 139.5,677.5C 139.167,676.5 138.5,675.833 137.5,675.5C 137.167,674.5 136.5,673.833 135.5,673.5C 134.226,671.188 132.226,669.855 129.5,669.5C 129.167,668.5 128.5,667.833 127.5,667.5C 127.167,666.5 126.5,665.833 125.5,665.5C 125.167,664.5 124.5,663.833 123.5,663.5C 123.167,662.5 122.5,661.833 121.5,661.5C 121.167,660.5 120.5,659.833 119.5,659.5C 119.167,658.5 118.5,657.833 117.5,657.5C 117.167,656.5 116.5,655.833 115.5,655.5C 115.167,654.5 114.5,653.833 113.5,653.5C 113.167,652.5 112.5,651.833 111.5,651.5C 111.167,650.5 110.5,649.833 109.5,649.5C 109.167,648.5 108.5,647.833 107.5,647.5C 107.167,646.5 106.5,645.833 105.5,645.5C 105.167,644.5 104.5,643.833 103.5,643.5C 103.167,642.5 102.5,641.833 101.5,641.5C 101.167,640.5 100.5,639.833 99.5,639.5C 99.1449,636.774 97.8115,634.774 95.5,633.5C 95.1667,632.5 94.5,631.833 93.5,631.5C 93.1449,628.774 91.8115,626.774 89.5,625.5C 89.1667,624.5 88.5,623.833 87.5,623.5C 87.1667,622.5 86.5,621.833 85.5,621.5C 85.1667,620.5 84.5,619.833 83.5,619.5C 83.1449,616.774 81.8115,614.774 79.5,613.5C 79.1667,612.5 78.5,611.833 77.5,611.5C 77.1449,608.774 75.8115,606.774 73.5,605.5C 73.1449,602.774 71.8115,600.774 69.5,599.5C 69.1667,598.5 68.5,597.833 67.5,597.5C 66.4916,593.468 64.4916,590.135 61.5,587.5C 61.1449,584.774 59.8115,582.774 57.5,581.5C 54.5011,573.493 50.5011,566.16 45.5,559.5C 39.9848,546.633 34.6515,533.633 29.5,520.5C 23.0322,501.605 17.3655,482.605 12.5,463.5C 12.0781,453.122 11.0781,442.789 9.5,432.5C 8.06674,398.804 8.40007,365.137 10.5,331.5C 16.2114,299.683 25.2114,268.683 37.5,238.5C 43.7884,226.258 49.7884,213.924 55.5,201.5C 57.8115,200.226 59.1449,198.226 59.5,195.5C 62.4916,192.865 64.4916,189.532 65.5,185.5C 67.8115,184.226 69.1449,182.226 69.5,179.5C 71.8115,178.226 73.1449,176.226 73.5,173.5C 73.5,172.167 74.1667,171.5 75.5,171.5C 77.8115,170.226 79.1449,168.226 79.5,165.5C 79.5,164.167 80.1667,163.5 81.5,163.5C 83.8115,162.226 85.1449,160.226 85.5,157.5C 85.5,156.167 86.1667,155.5 87.5,155.5C 89.8115,154.226 91.1449,152.226 91.5,149.5C 93.5,146.167 96.1667,143.5 99.5,141.5C 101.812,140.226 103.145,138.226 103.5,135.5C 110.167,127.5 117.5,120.167 125.5,113.5C 128.226,113.145 130.226,111.812 131.5,109.5C 133.5,106.167 136.167,103.5 139.5,101.5C 142.226,101.145 144.226,99.8115 145.5,97.5C 145.5,96.1667 146.167,95.5 147.5,95.5C 150.226,95.1449 152.226,93.8115 153.5,91.5C 153.5,90.1667 154.167,89.5 155.5,89.5C 158.226,89.1449 160.226,87.8115 161.5,85.5C 164.226,85.1449 166.226,83.8115 167.5,81.5C 170.226,81.1449 172.226,79.8115 173.5,77.5C 176.226,77.1449 178.226,75.8115 179.5,73.5C 183.532,72.4916 186.865,70.4916 189.5,67.5C 207.681,58.5769 226.014,49.9102 244.5,41.5C 314.378,14.3787 386.378,7.04532 460.5,19.5C 480.838,23.5844 500.838,28.9177 520.5,35.5C 534.979,41.2421 549.312,47.2421 563.5,53.5 Z"/></g>
<g><path style="opacity:1" fill="#7f8181" d="M 563.5,53.5 C 549.312,47.2421 534.979,41.2421 520.5,35.5C 500.838,28.9177 480.838,23.5844 460.5,19.5C 386.378,7.04532 314.378,14.3787 244.5,41.5C 226.014,49.9102 207.681,58.5769 189.5,67.5C 239.355,37.6602 293.355,19.9935 351.5,14.5C 424.264,7.17814 493.597,19.1781 559.5,50.5C 561.332,51.0568 562.665,52.0568 563.5,53.5 Z"/></g>
<g><path style="opacity:1" fill="#40363c" d="M 400.5,40.5 C 390.833,40.5 381.167,40.5 371.5,40.5C 368.941,40.1984 366.607,40.5318 364.5,41.5C 342.862,43.443 322.196,46.7764 302.5,51.5C 302.414,50.5041 302.748,49.6708 303.5,49C 305.727,48.879 307.56,48.0456 309,46.5C 309.561,47.0219 310.228,47.3552 311,47.5C 323.626,45.6095 335.96,42.9429 348,39.5C 348.561,40.0219 349.228,40.3552 350,40.5C 362.632,39.529 375.298,38.8624 388,38.5C 392.557,38.5085 396.724,39.1752 400.5,40.5 Z"/></g>
<g><path style="opacity:1" fill="#888181" d="M 364.5,41.5 C 366.607,40.5318 368.941,40.1984 371.5,40.5C 369.294,41.9715 366.961,42.3049 364.5,41.5 Z"/></g>
<g><path style="opacity:1" fill="#fdaa69" d="M 371.5,40.5 C 381.167,40.5 390.833,40.5 400.5,40.5C 400.833,40.5 401.167,40.5 401.5,40.5C 417.606,41.18 433.606,42.8467 449.5,45.5C 515.088,57.4824 572.755,84.4824 622.5,126.5C 631.467,134.132 640.134,142.132 648.5,150.5C 668.514,172.837 686.181,196.837 701.5,222.5C 708.066,234.963 714.066,247.63 719.5,260.5C 719.328,261.492 719.662,262.158 720.5,262.5C 737.723,309.624 745.39,358.291 743.5,408.5C 742.448,408.351 741.448,408.517 740.5,409C 728.216,422.513 712.882,430.68 694.5,433.5C 714.732,308.471 674.732,207.304 574.5,130C 501.938,79.1159 421.604,60.7825 333.5,75C 220.679,98.8164 141.513,163.65 96,269.5C 76.6949,322.856 73.3615,377.189 86,432.5C 85.4387,433.022 84.772,433.355 84,433.5C 64.8669,429.355 48.3669,420.689 34.5,407.5C 33.3971,375.503 36.0638,343.836 42.5,312.5C 43.7682,310.095 44.4349,307.428 44.5,304.5C 48.663,289.357 53.3297,274.691 58.5,260.5C 72.168,228.892 89.8346,199.225 111.5,171.5C 128.866,151.8 147.533,133.467 167.5,116.5C 168.492,116.672 169.158,116.338 169.5,115.5C 205.501,88.8429 244.167,68.8429 285.5,55.5C 291.267,54.5773 296.934,53.2439 302.5,51.5C 322.196,46.7764 342.862,43.443 364.5,41.5C 366.961,42.3049 369.294,41.9715 371.5,40.5 Z"/></g>
<g><path style="opacity:1" fill="#463c41" d="M 401.5,40.5 C 415.765,39.5166 430.098,40.3499 444.5,43C 446.491,43.3736 448.158,44.207 449.5,45.5C 433.606,42.8467 417.606,41.18 401.5,40.5 Z"/></g>
<g><path style="opacity:1" fill="#8a9290" d="M 563.5,53.5 C 566.49,54.4774 569.157,55.8107 571.5,57.5C 568.144,57.2864 565.477,55.9531 563.5,53.5 Z"/></g>
<g><path style="opacity:1" fill="#8d9895" d="M 571.5,57.5 C 577.893,60.3575 583.893,63.6908 589.5,67.5C 582.822,65.1661 576.822,61.8328 571.5,57.5 Z"/></g>
<g><path style="opacity:1" fill="#808d8c" d="M 189.5,67.5 C 186.865,70.4916 183.532,72.4916 179.5,73.5C 182.43,71.0263 185.763,69.0263 189.5,67.5 Z"/></g>
<g><path style="opacity:1" fill="#8d9895" d="M 589.5,67.5 C 593.237,69.0263 596.57,71.0263 599.5,73.5C 595.468,72.4916 592.135,70.4916 589.5,67.5 Z"/></g>
<g><path style="opacity:1" fill="#fefefe" d="M 743.5,408.5 C 743.425,411.206 743.092,413.873 742.5,416.5C 741.899,423.507 741.233,430.507 740.5,437.5C 739.596,438.209 739.263,439.209 739.5,440.5C 685.598,463.625 639.764,452.958 602,408.5C 590.527,391.892 580.86,374.225 573,355.5C 565.917,340.834 556.084,328.334 543.5,318C 522.186,304.238 500.853,304.072 479.5,317.5C 473.167,323.165 469.167,330.165 467.5,338.5C 465.558,344.878 466.558,350.711 470.5,356C 476.368,359.689 481.701,359.022 486.5,354C 492.146,352.676 497.146,353.843 501.5,357.5C 510.363,366.246 513.696,376.912 511.5,389.5C 509.972,397.085 507.639,404.418 504.5,411.5C 483.582,447.173 452.248,467.673 410.5,473C 368.928,478.276 331.595,468.276 298.5,443C 284.589,430.641 274.589,415.808 268.5,398.5C 267.833,394.167 267.167,389.833 266.5,385.5C 266.5,382.5 266.5,379.5 266.5,376.5C 268.037,367.763 272.37,360.597 279.5,355C 286.508,352.263 292.841,353.263 298.5,358C 305.425,359.117 309.925,356.283 312,349.5C 312.497,347.19 312.663,344.857 312.5,342.5C 308.633,323.133 296.967,311.633 277.5,308C 256.277,305.955 238.611,312.789 224.5,328.5C 218.144,334.194 212.978,340.86 209,348.5C 200.51,366.148 191.51,383.481 182,400.5C 157.312,436.261 123.145,453.595 79.5,452.5C 65.0499,450.239 51.3832,445.572 38.5,438.5C 38.5,437.833 38.1667,437.5 37.5,437.5C 36.5001,427.501 35.5001,417.501 34.5,407.5C 48.3669,420.689 64.8669,429.355 84,433.5C 84.772,433.355 85.4387,433.022 86,432.5C 73.3615,377.189 76.6949,322.856 96,269.5C 141.513,163.65 220.679,98.8164 333.5,75C 421.604,60.7825 501.938,79.1159 574.5,130C 674.732,207.304 714.732,308.471 694.5,433.5C 712.882,430.68 728.216,422.513 740.5,409C 741.448,408.517 742.448,408.351 743.5,408.5 Z"/></g>
<g><path style="opacity:1" fill="#81918f" d="M 179.5,73.5 C 178.226,75.8115 176.226,77.1449 173.5,77.5C 175.081,75.6974 177.081,74.3641 179.5,73.5 Z"/></g>
<g><path style="opacity:1" fill="#8d9895" d="M 599.5,73.5 C 601.919,74.3641 603.919,75.6974 605.5,77.5C 602.774,77.1449 600.774,75.8115 599.5,73.5 Z"/></g>
<g><path style="opacity:1" fill="#43393e" d="M 285.5,55.5 C 244.167,68.8429 205.501,88.8429 169.5,115.5C 168.209,114.527 168.209,113.527 169.5,112.5C 167.273,109.381 168.273,108.714 172.5,110.5C 192.106,96.0025 212.939,83.6691 235,73.5C 250.571,65.6305 266.738,59.2972 283.5,54.5C 284.416,54.5427 285.083,54.8761 285.5,55.5 Z"/></g>
<g><path style="opacity:1" fill="#81918f" d="M 173.5,77.5 C 172.226,79.8115 170.226,81.1449 167.5,81.5C 169.081,79.6974 171.081,78.3641 173.5,77.5 Z"/></g>
<g><path style="opacity:1" fill="#8d9895" d="M 605.5,77.5 C 607.919,78.3641 609.919,79.6974 611.5,81.5C 608.774,81.1449 606.774,79.8115 605.5,77.5 Z"/></g>
<g><path style="opacity:1" fill="#81918f" d="M 167.5,81.5 C 166.226,83.8115 164.226,85.1449 161.5,85.5C 163.081,83.6974 165.081,82.3641 167.5,81.5 Z"/></g>
<g><path style="opacity:1" fill="#8d9895" d="M 611.5,81.5 C 613.919,82.3641 615.919,83.6974 617.5,85.5C 614.774,85.1449 612.774,83.8115 611.5,81.5 Z"/></g>
<g><path style="opacity:1" fill="#9fc4bd" d="M 617.5,85.5 C 618.833,85.5 619.5,86.1667 619.5,87.5C 618.5,87.1667 617.833,86.5 617.5,85.5 Z"/></g>
<g><path style="opacity:1" fill="#81918f" d="M 161.5,85.5 C 160.226,87.8115 158.226,89.1449 155.5,89.5C 157.081,87.6974 159.081,86.3641 161.5,85.5 Z"/></g>
<g><path style="opacity:1" fill="#8d9895" d="M 619.5,87.5 C 621.919,88.3641 623.919,89.6974 625.5,91.5C 622.774,91.1449 620.774,89.8115 619.5,87.5 Z"/></g>
<g><path style="opacity:1" fill="#81918f" d="M 153.5,91.5 C 152.226,93.8115 150.226,95.1449 147.5,95.5C 149.081,93.6974 151.081,92.3641 153.5,91.5 Z"/></g>
<g><path style="opacity:1" fill="#8d9895" d="M 625.5,91.5 C 627.919,92.3641 629.919,93.6974 631.5,95.5C 628.774,95.1449 626.774,93.8115 625.5,91.5 Z"/></g>
<g><path style="opacity:1" fill="#9fc4bd" d="M 631.5,95.5 C 632.833,95.5 633.5,96.1667 633.5,97.5C 632.5,97.1667 631.833,96.5 631.5,95.5 Z"/></g>
<g><path style="opacity:1" fill="#9fc4bd" d="M 633.5,97.5 C 634.833,97.5 635.5,98.1667 635.5,99.5C 634.5,99.1667 633.833,98.5 633.5,97.5 Z"/></g>
<g><path style="opacity:1" fill="#81918f" d="M 145.5,97.5 C 144.226,99.8115 142.226,101.145 139.5,101.5C 141.081,99.6974 143.081,98.3641 145.5,97.5 Z"/></g>
<g><path style="opacity:1" fill="#9fc4bd" d="M 635.5,99.5 C 636.833,99.5 637.5,100.167 637.5,101.5C 636.5,101.167 635.833,100.5 635.5,99.5 Z"/></g>
<g><path style="opacity:1" fill="#9fc4bd" d="M 637.5,101.5 C 638.833,101.5 639.5,102.167 639.5,103.5C 638.5,103.167 637.833,102.5 637.5,101.5 Z"/></g>
<g><path style="opacity:1" fill="#8d9895" d="M 639.5,103.5 C 641.919,104.364 643.919,105.697 645.5,107.5C 642.774,107.145 640.774,105.812 639.5,103.5 Z"/></g>
<g><path style="opacity:1" fill="#9fc4bd" d="M 645.5,107.5 C 646.833,107.5 647.5,108.167 647.5,109.5C 646.5,109.167 645.833,108.5 645.5,107.5 Z"/></g>
<g><path style="opacity:1" fill="#9fc4bd" d="M 647.5,109.5 C 648.833,109.5 649.5,110.167 649.5,111.5C 648.5,111.167 647.833,110.5 647.5,109.5 Z"/></g>
<g><path style="opacity:1" fill="#81918f" d="M 131.5,109.5 C 130.226,111.812 128.226,113.145 125.5,113.5C 127.081,111.697 129.081,110.364 131.5,109.5 Z"/></g>
<g><path style="opacity:1" fill="#9fc4bd" d="M 649.5,111.5 C 650.833,111.5 651.5,112.167 651.5,113.5C 650.5,113.167 649.833,112.5 649.5,111.5 Z"/></g>
<g><path style="opacity:1" fill="#9fc4bd" d="M 651.5,113.5 C 652.833,113.5 653.5,114.167 653.5,115.5C 652.5,115.167 651.833,114.5 651.5,113.5 Z"/></g>
<g><path style="opacity:1" fill="#9fc4bd" d="M 653.5,115.5 C 654.833,115.5 655.5,116.167 655.5,117.5C 654.5,117.167 653.833,116.5 653.5,115.5 Z"/></g>
<g><path style="opacity:1" fill="#9fc4bd" d="M 655.5,117.5 C 656.833,117.5 657.5,118.167 657.5,119.5C 656.5,119.167 655.833,118.5 655.5,117.5 Z"/></g>
<g><path style="opacity:1" fill="#9fc4bd" d="M 657.5,119.5 C 658.833,119.5 659.5,120.167 659.5,121.5C 658.5,121.167 657.833,120.5 657.5,119.5 Z"/></g>
<g><path style="opacity:1" fill="#9fc4bd" d="M 659.5,121.5 C 660.833,121.5 661.5,122.167 661.5,123.5C 660.5,123.167 659.833,122.5 659.5,121.5 Z"/></g>
<g><path style="opacity:1" fill="#9fc4bd" d="M 661.5,123.5 C 662.833,123.5 663.5,124.167 663.5,125.5C 662.5,125.167 661.833,124.5 661.5,123.5 Z"/></g>
<g><path style="opacity:1" fill="#9fc4bd" d="M 663.5,125.5 C 664.833,125.5 665.5,126.167 665.5,127.5C 664.5,127.167 663.833,126.5 663.5,125.5 Z"/></g>
<g><path style="opacity:1" fill="#9fc4bd" d="M 665.5,127.5 C 666.833,127.5 667.5,128.167 667.5,129.5C 666.5,129.167 665.833,128.5 665.5,127.5 Z"/></g>
<g><path style="opacity:1" fill="#9fc4bd" d="M 667.5,129.5 C 668.833,129.5 669.5,130.167 669.5,131.5C 668.5,131.167 667.833,130.5 667.5,129.5 Z"/></g>
<g><path style="opacity:1" fill="#9fc4bd" d="M 669.5,131.5 C 670.833,131.5 671.5,132.167 671.5,133.5C 670.5,133.167 669.833,132.5 669.5,131.5 Z"/></g>
<g><path style="opacity:1" fill="#453c42" d="M 622.5,126.5 C 622.56,125.957 622.893,125.624 623.5,125.5C 625.731,126.903 628.064,128.07 630.5,129C 635.609,135.111 641.109,140.945 647,146.5C 647.791,147.745 648.291,149.078 648.5,150.5C 640.134,142.132 631.467,134.132 622.5,126.5 Z"/></g>
<g><path style="opacity:1" fill="#9fc4bd" d="M 671.5,133.5 C 672.833,133.5 673.5,134.167 673.5,135.5C 672.5,135.167 671.833,134.5 671.5,133.5 Z"/></g>
<g><path style="opacity:1" fill="#9fc4bd" d="M 673.5,135.5 C 674.833,135.5 675.5,136.167 675.5,137.5C 674.5,137.167 673.833,136.5 673.5,135.5 Z"/></g>
<g><path style="opacity:1" fill="#42383d" d="M 167.5,116.5 C 147.533,133.467 128.866,151.8 111.5,171.5C 111.608,169.217 112.441,167.217 114,165.5C 118.873,162.044 121.873,157.711 123,152.5C 124.073,153.28 125.24,153.113 126.5,152C 138.173,139.356 151.173,127.356 165.5,116C 166.437,115.308 167.103,115.475 167.5,116.5 Z"/></g>
<g><path style="opacity:1" fill="#81918f" d="M 103.5,135.5 C 103.145,138.226 101.812,140.226 99.5,141.5C 100.364,139.081 101.697,137.081 103.5,135.5 Z"/></g>
<g><path style="opacity:1" fill="#9fc4bd" d="M 675.5,137.5 C 676.833,137.5 677.5,138.167 677.5,139.5C 676.5,139.167 675.833,138.5 675.5,137.5 Z"/></g>
<g><path style="opacity:1" fill="#9fc4bd" d="M 677.5,139.5 C 678.833,139.5 679.5,140.167 679.5,141.5C 678.5,141.167 677.833,140.5 677.5,139.5 Z"/></g>
<g><path style="opacity:1" fill="#9fc4bd" d="M 679.5,141.5 C 680.833,141.5 681.5,142.167 681.5,143.5C 680.5,143.167 679.833,142.5 679.5,141.5 Z"/></g>
<g><path style="opacity:1" fill="#8d9895" d="M 681.5,143.5 C 683.303,145.081 684.636,147.081 685.5,149.5C 683.188,148.226 681.855,146.226 681.5,143.5 Z"/></g>
<g><path style="opacity:1" fill="#9fc4bd" d="M 685.5,149.5 C 686.833,149.5 687.5,150.167 687.5,151.5C 686.5,151.167 685.833,150.5 685.5,149.5 Z"/></g>
<g><path style="opacity:1" fill="#81918f" d="M 91.5,149.5 C 91.1449,152.226 89.8115,154.226 87.5,155.5C 88.3641,153.081 89.6974,151.081 91.5,149.5 Z"/></g>
<g><path style="opacity:1" fill="#9fc4bd" d="M 687.5,151.5 C 688.833,151.5 689.5,152.167 689.5,153.5C 688.5,153.167 687.833,152.5 687.5,151.5 Z"/></g>
<g><path style="opacity:1" fill="#9fc4bd" d="M 689.5,153.5 C 690.833,153.5 691.5,154.167 691.5,155.5C 690.5,155.167 689.833,154.5 689.5,153.5 Z"/></g>
<g><path style="opacity:1" fill="#5fc5be" d="M 554.5,194.5 C 553.833,194.5 553.167,194.5 552.5,194.5C 552.714,192.856 552.38,191.356 551.5,190C 552.98,188.701 553.646,187.034 553.5,185C 552.927,180.842 552.427,176.676 552,172.5C 551.359,167.854 549.525,164.521 546.5,162.5C 545.521,165.777 544.187,166.11 542.5,163.5C 543.687,162.481 544.687,161.314 545.5,160C 545.167,159.833 544.833,159.667 544.5,159.5C 541.788,161.26 538.788,161.927 535.5,161.5C 535.227,159.549 535.893,158.049 537.5,157C 534.298,155.517 530.964,155.183 527.5,156C 528.833,156.667 528.833,157.333 527.5,158C 509.655,158.757 491.822,158.59 474,157.5C 470.204,157.138 466.871,158.138 464,160.5C 463.517,159.552 463.351,158.552 463.5,157.5C 401.909,157.908 341.075,157.908 281,157.5C 279.812,158.563 279.312,159.897 279.5,161.5C 276.833,161.5 274.167,161.5 271.5,161.5C 271.5,160.167 271.5,158.833 271.5,157.5C 260.884,157.695 251.717,158.028 244,158.5C 243.311,157.643 242.478,156.977 241.5,156.5C 239.533,157.953 237.367,158.953 235,159.5C 235.112,161.178 235.612,162.845 236.5,164.5C 236.378,166.994 235.378,167.661 233.5,166.5C 234.855,165.325 234.688,164.325 233,163.5C 232.309,165.891 231.309,165.891 230,163.5C 227.064,165.763 226.73,168.43 229,171.5C 229.333,170.833 229.667,170.167 230,169.5C 231.93,171.919 231.597,173.586 229,174.5C 227.844,173.007 227.01,173.174 226.5,175C 227.487,178.437 228.154,181.937 228.5,185.5C 228.351,187.32 227.684,188.82 226.5,190C 229.213,192.496 229.546,194.996 227.5,197.5C 226.768,196.192 225.934,194.858 225,193.5C 224.824,197.688 224.324,201.688 223.5,205.5C 223.08,192.772 223.58,180.106 225,167.5C 229.039,158.144 236.206,153.644 246.5,154C 343.167,153.333 439.833,153.333 536.5,154C 545.442,155.606 551.275,160.773 554,169.5C 554.5,177.827 554.666,186.16 554.5,194.5 Z"/></g>
<g><path style="opacity:1" fill="#57d4cc" d="M 552.5,194.5 C 552.608,196.514 551.942,198.18 550.5,199.5C 548.704,200.793 547.037,202.293 545.5,204C 543.389,204.845 541.389,205.678 539.5,206.5C 538.167,206.5 536.833,206.5 535.5,206.5C 499.165,206.333 462.832,206.5 426.5,207C 416.796,207.424 410.629,212.257 408,221.5C 407.667,280.5 407.333,339.5 407,398.5C 401.368,410.878 392.201,414.378 379.5,409C 376.168,406.509 373.668,403.342 372,399.5C 370.88,372.189 370.38,344.856 370.5,317.5C 370.755,287.158 370.921,256.825 371,226.5C 370.902,218.958 367.735,213.291 361.5,209.5C 359.22,207.777 356.553,207.111 353.5,207.5C 315.669,206.667 277.669,206.167 239.5,206C 236.194,205.014 233.194,203.514 230.5,201.5C 229.5,200.167 228.5,198.833 227.5,197.5C 229.546,194.996 229.213,192.496 226.5,190C 227.684,188.82 228.351,187.32 228.5,185.5C 228.154,181.937 227.487,178.437 226.5,175C 227.01,173.174 227.844,173.007 229,174.5C 231.597,173.586 231.93,171.919 230,169.5C 229.667,170.167 229.333,170.833 229,171.5C 226.73,168.43 227.064,165.763 230,163.5C 231.309,165.891 232.309,165.891 233,163.5C 234.688,164.325 234.855,165.325 233.5,166.5C 235.378,167.661 236.378,166.994 236.5,164.5C 235.612,162.845 235.112,161.178 235,159.5C 237.367,158.953 239.533,157.953 241.5,156.5C 242.478,156.977 243.311,157.643 244,158.5C 251.717,158.028 260.884,157.695 271.5,157.5C 271.5,158.833 271.5,160.167 271.5,161.5C 274.167,161.5 276.833,161.5 279.5,161.5C 279.312,159.897 279.812,158.563 281,157.5C 341.075,157.908 401.909,157.908 463.5,157.5C 463.351,158.552 463.517,159.552 464,160.5C 466.871,158.138 470.204,157.138 474,157.5C 491.822,158.59 509.655,158.757 527.5,158C 528.833,157.333 528.833,156.667 527.5,156C 530.964,155.183 534.298,155.517 537.5,157C 535.893,158.049 535.227,159.549 535.5,161.5C 538.788,161.927 541.788,161.26 544.5,159.5C 544.833,159.667 545.167,159.833 545.5,160C 544.687,161.314 543.687,162.481 542.5,163.5C 544.187,166.11 545.521,165.777 546.5,162.5C 549.525,164.521 551.359,167.854 552,172.5C 552.427,176.676 552.927,180.842 553.5,185C 553.646,187.034 552.98,188.701 551.5,190C 552.38,191.356 552.714,192.856 552.5,194.5 Z"/></g>
<g><path style="opacity:1" fill="#8d9895" d="M 691.5,155.5 C 693.303,157.081 694.636,159.081 695.5,161.5C 693.188,160.226 691.855,158.226 691.5,155.5 Z"/></g>
<g><path style="opacity:1" fill="#81918f" d="M 85.5,157.5 C 85.1449,160.226 83.8115,162.226 81.5,163.5C 82.3641,161.081 83.6974,159.081 85.5,157.5 Z"/></g>
<g><path style="opacity:1" fill="#9fc4bd" d="M 695.5,161.5 C 696.833,161.5 697.5,162.167 697.5,163.5C 696.5,163.167 695.833,162.5 695.5,161.5 Z"/></g>
<g><path style="opacity:1" fill="#8d9895" d="M 697.5,163.5 C 699.303,165.081 700.636,167.081 701.5,169.5C 699.188,168.226 697.855,166.226 697.5,163.5 Z"/></g>
<g><path style="opacity:1" fill="#81918f" d="M 79.5,165.5 C 79.1449,168.226 77.8115,170.226 75.5,171.5C 76.3641,169.081 77.6974,167.081 79.5,165.5 Z"/></g>
<g><path style="opacity:1" fill="#8d9895" d="M 701.5,169.5 C 703.303,171.081 704.636,173.081 705.5,175.5C 703.188,174.226 701.855,172.226 701.5,169.5 Z"/></g>
<g><path style="opacity:1" fill="#81918f" d="M 73.5,173.5 C 73.1449,176.226 71.8115,178.226 69.5,179.5C 70.3641,177.081 71.6974,175.081 73.5,173.5 Z"/></g>
<g><path style="opacity:1" fill="#9fc4bd" d="M 705.5,175.5 C 706.833,175.5 707.5,176.167 707.5,177.5C 706.5,177.167 705.833,176.5 705.5,175.5 Z"/></g>
<g><path style="opacity:1" fill="#8d9895" d="M 707.5,177.5 C 709.303,179.081 710.636,181.081 711.5,183.5C 709.188,182.226 707.855,180.226 707.5,177.5 Z"/></g>
<g><path style="opacity:1" fill="#81918f" d="M 69.5,179.5 C 69.1449,182.226 67.8115,184.226 65.5,185.5C 66.3641,183.081 67.6974,181.081 69.5,179.5 Z"/></g>
<g><path style="opacity:1" fill="#8d9895" d="M 711.5,183.5 C 713.303,185.081 714.636,187.081 715.5,189.5C 713.188,188.226 711.855,186.226 711.5,183.5 Z"/></g>
<g><path style="opacity:1" fill="#81918f" d="M 65.5,185.5 C 64.4916,189.532 62.4916,192.865 59.5,195.5C 61.0263,191.763 63.0263,188.43 65.5,185.5 Z"/></g>
<g><path style="opacity:1" fill="#8d9895" d="M 715.5,189.5 C 717.974,192.43 719.974,195.763 721.5,199.5C 718.508,196.865 716.508,193.532 715.5,189.5 Z"/></g>
<g><path style="opacity:1" fill="#81918f" d="M 59.5,195.5 C 59.1449,198.226 57.8115,200.226 55.5,201.5C 56.3641,199.081 57.6974,197.081 59.5,195.5 Z"/></g>
<g><path style="opacity:1" fill="#178f9a" d="M 550.5,199.5 C 551.97,201.159 552.637,203.159 552.5,205.5C 551.435,209.362 551.435,213.195 552.5,217C 550.888,225.763 545.888,229.596 537.5,228.5C 541.361,229.598 541.361,230.431 537.5,231C 503.331,231.168 469.331,231.668 435.5,232.5C 434.508,232.328 433.842,232.662 433.5,233.5C 432.414,233.62 431.747,234.287 431.5,235.5C 432.367,277.366 432.701,319.366 432.5,361.5C 432.333,373.5 432.167,385.5 432,397.5C 431.461,400.529 430.794,403.529 430,406.5C 428.249,408.49 427.249,410.823 427,413.5C 425.96,416.04 424.126,417.707 421.5,418.5C 418.675,422.694 415.175,426.361 411,429.5C 409.309,426.869 408.142,427.203 407.5,430.5C 403.291,432.937 398.958,433.937 394.5,433.5C 395.025,434.192 395.692,434.692 396.5,435C 394.633,435.711 393.133,435.211 392,433.5C 390.991,434.658 389.658,435.325 388,435.5C 380.887,434.444 374.054,432.444 367.5,429.5C 366.893,429.624 366.56,429.957 366.5,430.5C 364.973,430.573 363.973,429.906 363.5,428.5C 358.918,423.064 354.418,417.397 350,411.5C 349.336,406.836 348.169,402.336 346.5,398C 347.15,343.819 347.484,289.652 347.5,235.5C 346.575,234.438 345.575,234.438 344.5,235.5C 309.012,233.835 273.345,232.835 237.5,232.5C 272.835,232.667 308.168,232.5 343.5,232C 308.015,232.152 272.681,231.318 237.5,229.5C 236.914,229.709 236.414,230.043 236,230.5C 232.688,228.355 229.854,225.688 227.5,222.5C 227.709,221.914 228.043,221.414 228.5,221C 226.844,219.203 225.844,217.036 225.5,214.5C 226.436,210.096 226.436,205.763 225.5,201.5C 227.329,200.718 228.829,201.384 230,203.5C 230.464,202.906 230.631,202.239 230.5,201.5C 233.194,203.514 236.194,205.014 239.5,206C 277.669,206.167 315.669,206.667 353.5,207.5C 317.832,207.333 282.165,207.5 246.5,208C 261.57,207.967 276.57,208.8 291.5,210.5C 302.136,208.163 312.802,208.163 323.5,210.5C 333.433,208.377 343.433,208.044 353.5,209.5C 352.975,210.192 352.308,210.692 351.5,211C 353.664,211.433 355.664,210.933 357.5,209.5C 359.815,209.799 359.815,210.632 357.5,212C 359.044,213.187 360.711,213.52 362.5,213C 360.273,212.296 359.94,211.129 361.5,209.5C 367.735,213.291 370.902,218.958 371,226.5C 370.921,256.825 370.755,287.158 370.5,317.5C 370.38,344.856 370.88,372.189 372,399.5C 373.668,403.342 376.168,406.509 379.5,409C 392.201,414.378 401.368,410.878 407,398.5C 407.333,339.5 407.667,280.5 408,221.5C 410.629,212.257 416.796,207.424 426.5,207C 462.832,206.5 499.165,206.333 535.5,206.5C 499.669,207.333 463.669,207.833 427.5,208C 442.167,208.333 456.833,208.667 471.5,209C 460.833,209.333 450.167,209.667 439.5,210C 473.478,211.26 507.478,211.26 541.5,210C 520.833,209.667 500.167,209.333 479.5,209C 499.167,208.667 518.833,208.333 538.5,208C 539.167,207.667 539.833,207.333 540.5,207C 540.272,206.601 539.938,206.435 539.5,206.5C 541.389,205.678 543.389,204.845 545.5,204C 547.037,202.293 548.704,200.793 550.5,199.5 Z"/></g>
<g><path style="opacity:1" fill="#178082" d="M 535.5,206.5 C 536.833,206.5 538.167,206.5 539.5,206.5C 539.938,206.435 540.272,206.601 540.5,207C 539.833,207.333 539.167,207.667 538.5,208C 518.833,208.333 499.167,208.667 479.5,209C 500.167,209.333 520.833,209.667 541.5,210C 507.478,211.26 473.478,211.26 439.5,210C 450.167,209.667 460.833,209.333 471.5,209C 456.833,208.667 442.167,208.333 427.5,208C 463.669,207.833 499.669,207.333 535.5,206.5 Z"/></g>
<g><path style="opacity:1" fill="#178083" d="M 353.5,207.5 C 356.553,207.111 359.22,207.777 361.5,209.5C 359.94,211.129 360.273,212.296 362.5,213C 360.711,213.52 359.044,213.187 357.5,212C 359.815,210.632 359.815,209.799 357.5,209.5C 355.664,210.933 353.664,211.433 351.5,211C 352.308,210.692 352.975,210.192 353.5,209.5C 343.433,208.044 333.433,208.377 323.5,210.5C 312.802,208.163 302.136,208.163 291.5,210.5C 276.57,208.8 261.57,207.967 246.5,208C 282.165,207.5 317.832,207.333 353.5,207.5 Z"/></g>
<g><path style="opacity:1" fill="#453a40" d="M 719.5,260.5 C 714.066,247.63 708.066,234.963 701.5,222.5C 701.393,220.621 701.893,220.288 703,221.5C 709.662,232.926 715.495,245.426 720.5,259C 720.43,259.765 720.097,260.265 719.5,260.5 Z"/></g>
<g><path style="opacity:1" fill="#258285" d="M 552.5,194.5 C 553.167,194.5 553.833,194.5 554.5,194.5C 554.859,204.224 554.359,213.891 553,223.5C 550.833,225.667 548.667,227.833 546.5,230C 544.061,231.61 541.394,232.444 538.5,232.5C 504.167,232.5 469.833,232.5 435.5,232.5C 469.331,231.668 503.331,231.168 537.5,231C 541.361,230.431 541.361,229.598 537.5,228.5C 545.888,229.596 550.888,225.763 552.5,217C 551.435,213.195 551.435,209.362 552.5,205.5C 552.637,203.159 551.97,201.159 550.5,199.5C 551.942,198.18 552.608,196.514 552.5,194.5 Z"/></g>
<g><path style="opacity:1" fill="#258184" d="M 227.5,197.5 C 228.5,198.833 229.5,200.167 230.5,201.5C 230.631,202.239 230.464,202.906 230,203.5C 228.829,201.384 227.329,200.718 225.5,201.5C 226.436,205.763 226.436,210.096 225.5,214.5C 225.844,217.036 226.844,219.203 228.5,221C 228.043,221.414 227.709,221.914 227.5,222.5C 229.854,225.688 232.688,228.355 236,230.5C 236.414,230.043 236.914,229.709 237.5,229.5C 272.681,231.318 308.015,232.152 343.5,232C 308.168,232.5 272.835,232.667 237.5,232.5C 230.483,230.316 225.983,225.649 224,218.5C 223.501,214.179 223.334,209.846 223.5,205.5C 224.324,201.688 224.824,197.688 225,193.5C 225.934,194.858 226.768,196.192 227.5,197.5 Z"/></g>
<g><path style="opacity:1" fill="#67b1ad" d="M 435.5,232.5 C 469.833,232.5 504.167,232.5 538.5,232.5C 504.004,233.498 469.337,233.832 434.5,233.5C 434.768,235.099 434.434,236.432 433.5,237.5C 433.5,236.167 433.5,234.833 433.5,233.5C 433.842,232.662 434.508,232.328 435.5,232.5 Z"/></g>
<g><path style="opacity:1" fill="#878c8b" d="M 721.5,199.5 C 739.198,229.578 752.532,261.578 761.5,295.5C 761.167,295.5 760.833,295.5 760.5,295.5C 754.607,277.159 748.274,258.825 741.5,240.5C 734.545,226.924 727.878,213.258 721.5,199.5 Z"/></g>
<g><path style="opacity:1" fill="#408a8c" d="M 363.5,428.5 C 352.743,420.999 346.577,410.666 345,397.5C 344.5,343.501 344.333,289.501 344.5,235.5C 345.575,234.438 346.575,234.438 347.5,235.5C 347.484,289.652 347.15,343.819 346.5,398C 348.169,402.336 349.336,406.836 350,411.5C 354.418,417.397 358.918,423.064 363.5,428.5 Z"/></g>
<g><path style="opacity:1" fill="#3f343a" d="M 742.5,416.5 C 743.092,413.873 743.425,411.206 743.5,408.5C 745.39,358.291 737.723,309.624 720.5,262.5C 720.783,261.711 721.283,261.044 722,260.5C 741.664,311.48 748.997,364.147 744,418.5C 743.722,417.584 743.222,416.918 742.5,416.5 Z"/></g>
<g><path style="opacity:1" fill="#463c42" d="M 58.5,260.5 C 53.3297,274.691 48.663,289.357 44.5,304.5C 44.0183,303.584 43.685,302.584 43.5,301.5C 47.0024,286.837 51.5024,272.837 57,259.5C 57.3826,260.056 57.8826,260.389 58.5,260.5 Z"/></g>
<g><path style="opacity:1" fill="#7e8282" d="M 55.5,201.5 C 49.7884,213.924 43.7884,226.258 37.5,238.5C 25.2114,268.683 16.2114,299.683 10.5,331.5C 10.1667,331.5 9.83333,331.5 9.5,331.5C 15.0266,299.244 24.0266,267.911 36.5,237.5C 42.3819,225.061 48.7152,213.061 55.5,201.5 Z"/></g>
<g><path style="opacity:1" fill="#61c2bb" d="M 312.5,342.5 C 311.728,341.306 310.728,340.306 309.5,339.5C 308.167,338.167 306.833,336.833 305.5,335.5C 305.73,333.798 305.897,331.798 306,329.5C 303.533,325.4 300.699,321.566 297.5,318C 294.671,316.753 292.005,315.253 289.5,313.5C 288.558,313.608 287.725,313.941 287,314.5C 286.612,313.572 285.945,312.905 285,312.5C 283.632,313.703 282.132,314.703 280.5,315.5C 279.396,314.369 279.729,313.535 281.5,313C 279.974,311.113 277.974,310.113 275.5,310C 270.467,309.272 265.467,309.439 260.5,310.5C 259.09,310.868 258.09,311.701 257.5,313C 258.833,313.667 258.833,314.333 257.5,315C 254.735,315.743 252.069,316.41 249.5,317C 250.328,316.085 251.328,315.419 252.5,315C 252.167,314.667 251.833,314.333 251.5,314C 252.951,314.263 254.284,314.096 255.5,313.5C 255.167,312.5 254.5,311.833 253.5,311.5C 247.857,313.655 242.523,316.322 237.5,319.5C 240.82,320.761 241.154,322.428 238.5,324.5C 237.416,323.335 236.583,322.002 236,320.5C 232.884,321.949 230.384,324.116 228.5,327C 229.328,327.915 230.328,328.581 231.5,329C 231.018,330.008 230.852,331.175 231,332.5C 228.718,331.973 226.551,330.64 224.5,328.5C 238.611,312.789 256.277,305.955 277.5,308C 296.967,311.633 308.633,323.133 312.5,342.5 Z"/></g>
<g><path style="opacity:1" fill="#57d4cc" d="M 305.5,335.5 C 278.399,325.092 258.733,333.092 246.5,359.5C 241.818,370.131 240.485,381.131 242.5,392.5C 242.5,394.833 242.5,397.167 242.5,399.5C 241.301,405.117 242.967,409.784 247.5,413.5C 249.755,417.678 251.755,422.012 253.5,426.5C 253.141,428.766 253.808,430.599 255.5,432C 254.786,433.343 255.12,434.676 256.5,436C 256.167,436.333 255.833,436.667 255.5,437C 256.624,437.249 257.624,437.749 258.5,438.5C 261.215,442.2 263.381,445.867 265,449.5C 269.366,451.011 272.033,454.011 273,458.5C 273.667,457.167 274.333,457.167 275,458.5C 275.483,459.448 275.649,460.448 275.5,461.5C 276.833,461.5 278.167,461.5 279.5,461.5C 280.623,463.958 280.623,466.125 279.5,468C 280.449,468.617 281.282,468.451 282,467.5C 284.224,469.054 286.724,470.054 289.5,470.5C 291.774,472.091 294.108,473.591 296.5,475C 295.833,475.333 295.167,475.667 294.5,476C 297.044,477.092 299.711,477.759 302.5,478C 303.167,479 303.833,480 304.5,481C 310.954,483.727 317.288,486.727 323.5,490C 327.79,490.923 332.123,491.423 336.5,491.5C 369.629,501.404 402.963,502.071 436.5,493.5C 440.984,492.184 445.651,491.351 450.5,491C 452.544,490.502 453.878,489.335 454.5,487.5C 457.127,485.399 460.127,484.066 463.5,483.5C 466.393,484.591 468.893,484.591 471,483.5C 474.667,480.833 478.333,478.167 482,475.5C 483.727,476.374 485.56,476.207 487.5,475C 486.692,474.692 486.025,474.192 485.5,473.5C 488.65,471.06 491.983,468.893 495.5,467C 495.167,466.667 494.833,466.333 494.5,466C 496.207,465.805 497.874,465.805 499.5,466C 498.332,464.129 498.832,462.629 501,461.5C 501.333,461.833 501.667,462.167 502,462.5C 503.113,461.24 503.28,460.073 502.5,459C 503.833,458.667 505.167,458.333 506.5,458C 506.167,457.667 505.833,457.333 505.5,457C 507.667,455.5 509.5,453.667 511,451.5C 511.423,452.956 512.256,453.456 513.5,453C 512.366,451.984 512.699,451.317 514.5,451C 511.833,450.333 511.833,449.667 514.5,449C 512.009,448.374 512.009,447.541 514.5,446.5C 514.291,445.914 513.957,445.414 513.5,445C 514.823,444.184 515.489,443.017 515.5,441.5C 518.769,436.544 522.102,431.544 525.5,426.5C 527.018,422.085 528.684,417.752 530.5,413.5C 534.133,406.029 536.133,398.029 536.5,389.5C 537.423,379.012 535.923,368.678 532,358.5C 530.974,355.761 529.474,353.428 527.5,351.5C 518.228,335.365 504.228,328.532 485.5,331C 480.482,332.012 475.815,333.845 471.5,336.5C 470.761,336.631 470.094,336.464 469.5,336C 479.996,313.593 497.663,305.26 522.5,311C 525.131,312.691 524.797,313.858 521.5,314.5C 522,314.833 522.5,315.167 523,315.5C 524.656,314.235 526.323,312.901 528,311.5C 529.419,312.46 530.919,313.293 532.5,314C 529.456,314.359 529.122,315.026 531.5,316C 535.112,317.15 538.778,317.983 542.5,318.5C 542.5,319.5 542.5,320.5 542.5,321.5C 543.552,321.351 544.552,321.517 545.5,322C 548.667,325.167 551.833,328.333 555,331.5C 555.483,332.448 555.649,333.448 555.5,334.5C 556.5,334.5 557.5,334.5 558.5,334.5C 557.773,338.224 559.106,340.891 562.5,342.5C 565.026,346.59 566.86,350.923 568,355.5C 568.914,354.346 569.747,354.513 570.5,356C 570.167,356.333 569.833,356.667 569.5,357C 571.176,358.177 572.509,359.677 573.5,361.5C 572.167,362.833 572.167,364.167 573.5,365.5C 574.274,366.711 575.107,366.711 576,365.5C 578.473,371.779 581.473,377.779 585,383.5C 585.651,385.235 585.485,386.902 584.5,388.5C 586.483,389.982 588.316,391.649 590,393.5C 594.434,399.365 598.101,405.699 601,412.5C 601.333,412.167 601.667,411.833 602,411.5C 602.589,413.863 604.089,414.863 606.5,414.5C 608.882,420.052 612.882,424.219 618.5,427C 624.628,432.127 630.462,437.627 636,443.5C 637.049,442.483 638.216,442.316 639.5,443C 638.377,444.044 637.044,444.71 635.5,445C 637.809,445.756 639.809,445.256 641.5,443.5C 642.696,443.846 642.696,444.346 641.5,445C 644.923,444.855 646.923,446.355 647.5,449.5C 649.973,449.736 651.64,451.069 652.5,453.5C 654.523,452.46 656.523,451.46 658.5,450.5C 660.841,450.662 662.675,451.662 664,453.5C 665.231,452.892 666.564,452.559 668,452.5C 681.284,455.79 694.617,455.79 708,452.5C 708.873,452.735 709.707,453.069 710.5,453.5C 712.523,451.322 715.023,449.988 718,449.5C 718.382,450.828 719.549,452.161 721.5,453.5C 722.795,452.902 724.128,452.402 725.5,452C 724.833,451.667 724.167,451.333 723.5,451C 726.644,447.344 731.144,444.844 737,443.5C 738.03,443.836 738.53,444.503 738.5,445.5C 738.127,455.699 736.627,465.699 734,475.5C 730.92,488.572 726.754,501.238 721.5,513.5C 719.156,518.957 716.823,524.29 714.5,529.5C 698.73,530.461 683.73,527.627 669.5,521C 666.214,515.712 661.714,511.879 656,509.5C 654.862,509.989 653.695,510.322 652.5,510.5C 637.049,505.945 622.382,499.445 608.5,491C 597.41,483.245 587.577,474.079 579,463.5C 554.136,498.334 520.97,521.501 479.5,533C 464.811,536.214 450.145,538.714 435.5,540.5C 420.386,532.049 406.719,521.716 394.5,509.5C 391.326,507.031 387.993,506.864 384.5,509C 371.754,521.256 357.754,531.756 342.5,540.5C 304.188,537.23 269.188,524.73 237.5,503C 222.919,491.754 210.419,478.587 200,463.5C 180.848,487.836 156.015,503.169 125.5,509.5C 118.597,507.37 113.597,509.704 110.5,516.5C 108.713,517.316 107.046,518.316 105.5,519.5C 104.914,519.291 104.414,518.957 104,518.5C 103.751,519.624 103.251,520.624 102.5,521.5C 92.8528,525.829 82.8528,527.662 72.5,527C 73.5,526.667 74.5,526.333 75.5,526C 73.5665,525.217 72.0665,525.717 71,527.5C 70.6667,526.833 70.3333,526.167 70,525.5C 68.4478,526.966 66.6145,527.966 64.5,528.5C 63.5709,522.873 61.5709,517.706 58.5,513C 59.0317,510.995 58.0317,509.829 55.5,509.5C 55.6716,508.508 55.3382,507.842 54.5,507.5C 54.3259,505.139 53.9926,502.806 53.5,500.5C 53.6023,494.877 52.1023,489.544 49,484.5C 48.4509,478.638 47.1176,472.971 45,467.5C 44.289,465.101 44.4557,462.768 45.5,460.5C 43.7685,456.379 42.6018,452.046 42,447.5C 40.2122,445.996 39.7122,444.329 40.5,442.5C 43.4189,443.184 45.9189,444.518 48,446.5C 48.414,446.043 48.914,445.709 49.5,445.5C 52.8627,448.502 56.3627,450.502 60,451.5C 61.3006,451.04 62.634,450.706 64,450.5C 69.0816,451.864 74.2483,452.531 79.5,452.5C 82.2575,453.818 85.4242,454.485 89,454.5C 108.923,454.732 127.09,449.565 143.5,439C 144.793,438.51 146.127,438.343 147.5,438.5C 147.5,439.5 147.5,440.5 147.5,441.5C 150.073,441.852 152.406,441.352 154.5,440C 153.335,438.916 152.002,438.083 150.5,437.5C 149.479,436.998 149.312,436.332 150,435.5C 156.511,430.982 162.344,425.816 167.5,420C 168.5,419.667 169.5,419.333 170.5,419C 174.857,413.399 179.357,407.899 184,402.5C 194.651,381.842 205.318,361.176 216,340.5C 221.21,343.29 222.376,342.124 219.5,337C 220.833,337.333 222.167,337.667 223.5,338C 223.167,337.667 222.833,337.333 222.5,337C 223.376,335.414 224.376,333.914 225.5,332.5C 224.754,331.264 224.421,329.93 224.5,328.5C 226.551,330.64 228.718,331.973 231,332.5C 230.852,331.175 231.018,330.008 231.5,329C 230.328,328.581 229.328,327.915 228.5,327C 230.384,324.116 232.884,321.949 236,320.5C 236.583,322.002 237.416,323.335 238.5,324.5C 241.154,322.428 240.82,320.761 237.5,319.5C 242.523,316.322 247.857,313.655 253.5,311.5C 254.5,311.833 255.167,312.5 255.5,313.5C 254.284,314.096 252.951,314.263 251.5,314C 251.833,314.333 252.167,314.667 252.5,315C 251.328,315.419 250.328,316.085 249.5,317C 252.069,316.41 254.735,315.743 257.5,315C 258.833,314.333 258.833,313.667 257.5,313C 258.09,311.701 259.09,310.868 260.5,310.5C 265.467,309.439 270.467,309.272 275.5,310C 277.974,310.113 279.974,311.113 281.5,313C 279.729,313.535 279.396,314.369 280.5,315.5C 282.132,314.703 283.632,313.703 285,312.5C 285.945,312.905 286.612,313.572 287,314.5C 287.725,313.941 288.558,313.608 289.5,313.5C 292.005,315.253 294.671,316.753 297.5,318C 300.699,321.566 303.533,325.4 306,329.5C 305.897,331.798 305.73,333.798 305.5,335.5 Z"/></g>
<g><path style="opacity:1" fill="#168e98" d="M 305.5,335.5 C 306.833,336.833 308.167,338.167 309.5,339.5C 309.062,339.435 308.728,339.601 308.5,340C 311.659,345.195 310.659,349.361 305.5,352.5C 306.641,353.425 306.641,354.259 305.5,355C 302.955,356.233 300.288,356.066 297.5,354.5C 296.749,353.624 296.249,352.624 296,351.5C 284.429,349.174 275.429,353.174 269,363.5C 268.289,361.633 268.789,360.133 270.5,359C 269.551,358.383 268.718,358.549 268,359.5C 266.691,361.686 266.524,363.853 267.5,366C 265.737,372.829 263.904,372.996 262,366.5C 258.746,365.345 256.913,363.011 256.5,359.5C 256.167,359.667 255.833,359.833 255.5,360C 255.168,362.548 255.835,365.048 257.5,367.5C 256.954,369.135 256.62,370.801 256.5,372.5C 254.801,372.66 253.134,372.494 251.5,372C 254.028,370.983 254.028,369.816 251.5,368.5C 252.376,367.749 253.376,367.249 254.5,367C 252.167,366.667 249.833,366.333 247.5,366C 248.428,365.612 249.095,364.945 249.5,364C 248.425,362.407 247.425,360.907 246.5,359.5C 258.733,333.092 278.399,325.092 305.5,335.5 Z"/></g>
<g><path style="opacity:1" fill="#1b8d97" d="M 527.5,351.5 C 526.275,352.937 525.275,354.604 524.5,356.5C 525.853,357.524 526.52,358.857 526.5,360.5C 524.167,360.5 521.833,360.5 519.5,360.5C 519.5,359.5 519.5,358.5 519.5,357.5C 518.5,357.5 517.5,357.5 516.5,357.5C 516.5,360.167 516.5,362.833 516.5,365.5C 514.774,365.815 513.107,365.981 511.5,366C 511.018,364.992 510.852,363.825 511,362.5C 510.667,362.833 510.333,363.167 510,363.5C 508.188,360.72 506.021,358.22 503.5,356C 502.184,355.472 501.517,355.972 501.5,357.5C 497.146,353.843 492.146,352.676 486.5,354C 481.701,359.022 476.368,359.689 470.5,356C 466.558,350.711 465.558,344.878 467.5,338.5C 469.38,338.771 470.713,338.104 471.5,336.5C 475.815,333.845 480.482,332.012 485.5,331C 504.228,328.532 518.228,335.365 527.5,351.5 Z"/></g>
<g><path style="opacity:1" fill="#7b7374" d="M 9.5,331.5 C 9.83333,331.5 10.1667,331.5 10.5,331.5C 8.40007,365.137 8.06674,398.804 9.5,432.5C 11.0781,442.789 12.0781,453.122 12.5,463.5C 12.1667,463.5 11.8333,463.5 11.5,463.5C 10.9956,453.463 9.99565,443.463 8.5,433.5C 7.04634,399.469 7.37968,365.469 9.5,331.5 Z"/></g>
<g><path style="opacity:1" fill="#208286" d="M 527.5,351.5 C 529.474,353.428 530.974,355.761 532,358.5C 535.923,368.678 537.423,379.012 536.5,389.5C 536.665,386.482 536.498,383.482 536,380.5C 535.667,381.833 535.333,383.167 535,384.5C 534.517,383.552 534.351,382.552 534.5,381.5C 532.173,381.247 530.173,381.914 528.5,383.5C 526.074,381.052 523.574,381.052 521,383.5C 519.615,382.449 518.615,381.116 518,379.5C 517.333,382.167 516.667,382.167 516,379.5C 515.667,380.167 515.333,380.833 515,381.5C 514.784,379.616 514.117,377.949 513,376.5C 512.501,380.821 512.334,385.154 512.5,389.5C 512.167,389.5 511.833,389.5 511.5,389.5C 513.696,376.912 510.363,366.246 501.5,357.5C 501.517,355.972 502.184,355.472 503.5,356C 506.021,358.22 508.188,360.72 510,363.5C 510.333,363.167 510.667,362.833 511,362.5C 510.852,363.825 511.018,364.992 511.5,366C 513.107,365.981 514.774,365.815 516.5,365.5C 516.5,362.833 516.5,360.167 516.5,357.5C 517.5,357.5 518.5,357.5 519.5,357.5C 519.5,358.5 519.5,359.5 519.5,360.5C 521.833,360.5 524.167,360.5 526.5,360.5C 526.52,358.857 525.853,357.524 524.5,356.5C 525.275,354.604 526.275,352.937 527.5,351.5 Z"/></g>
<g><path style="opacity:1" fill="#7e7979" d="M 760.5,295.5 C 760.833,295.5 761.167,295.5 761.5,295.5C 770.748,338.344 773.748,381.678 770.5,425.5C 768.421,451.308 763.754,476.642 756.5,501.5C 754.699,507.935 752.366,513.935 749.5,519.5C 760.115,488.702 766.781,457.035 769.5,424.5C 772.698,381.019 769.698,338.019 760.5,295.5 Z"/></g>
<g><path style="opacity:1" fill="#62c7c0" d="M 224.5,328.5 C 224.421,329.93 224.754,331.264 225.5,332.5C 224.376,333.914 223.376,335.414 222.5,337C 222.833,337.333 223.167,337.667 223.5,338C 222.167,337.667 220.833,337.333 219.5,337C 222.376,342.124 221.21,343.29 216,340.5C 205.318,361.176 194.651,381.842 184,402.5C 179.357,407.899 174.857,413.399 170.5,419C 169.5,419.333 168.5,419.667 167.5,420C 162.344,425.816 156.511,430.982 150,435.5C 149.312,436.332 149.479,436.998 150.5,437.5C 152.002,438.083 153.335,438.916 154.5,440C 152.406,441.352 150.073,441.852 147.5,441.5C 147.5,440.5 147.5,439.5 147.5,438.5C 146.127,438.343 144.793,438.51 143.5,439C 127.09,449.565 108.923,454.732 89,454.5C 85.4242,454.485 82.2575,453.818 79.5,452.5C 123.145,453.595 157.312,436.261 182,400.5C 191.51,383.481 200.51,366.148 209,348.5C 212.978,340.86 218.144,334.194 224.5,328.5 Z"/></g>
<g><path style="opacity:1" fill="#3c323a" d="M 42.5,312.5 C 36.0638,343.836 33.3971,375.503 34.5,407.5C 35.5001,417.501 36.5001,427.501 37.5,437.5C 36.3456,434.938 35.0123,432.438 33.5,430C 30.5681,390.412 33.0681,350.912 41,311.5C 42.0432,307.774 42.5432,308.107 42.5,312.5 Z"/></g>
<g><path style="opacity:1" fill="#218386" d="M 309.5,339.5 C 310.728,340.306 311.728,341.306 312.5,342.5C 312.663,344.857 312.497,347.19 312,349.5C 309.925,356.283 305.425,359.117 298.5,358C 292.841,353.263 286.508,352.263 279.5,355C 272.37,360.597 268.037,367.763 266.5,376.5C 266.657,375.127 266.49,373.793 266,372.5C 265.461,375.529 264.794,378.529 264,381.5C 263.107,382.081 262.107,382.415 261,382.5C 255.606,381.934 250.272,381.267 245,380.5C 242.868,384.208 242.035,388.208 242.5,392.5C 240.485,381.131 241.818,370.131 246.5,359.5C 247.425,360.907 248.425,362.407 249.5,364C 249.095,364.945 248.428,365.612 247.5,366C 249.833,366.333 252.167,366.667 254.5,367C 253.376,367.249 252.376,367.749 251.5,368.5C 254.028,369.816 254.028,370.983 251.5,372C 253.134,372.494 254.801,372.66 256.5,372.5C 256.62,370.801 256.954,369.135 257.5,367.5C 255.835,365.048 255.168,362.548 255.5,360C 255.833,359.833 256.167,359.667 256.5,359.5C 256.913,363.011 258.746,365.345 262,366.5C 263.904,372.996 265.737,372.829 267.5,366C 266.524,363.853 266.691,361.686 268,359.5C 268.718,358.549 269.551,358.383 270.5,359C 268.789,360.133 268.289,361.633 269,363.5C 275.429,353.174 284.429,349.174 296,351.5C 296.249,352.624 296.749,353.624 297.5,354.5C 300.288,356.066 302.955,356.233 305.5,355C 306.641,354.259 306.641,353.425 305.5,352.5C 310.659,349.361 311.659,345.195 308.5,340C 308.728,339.601 309.062,339.435 309.5,339.5 Z"/></g>
<g><path style="opacity:1" fill="#1d6172" d="M 266.5,376.5 C 266.5,379.5 266.5,382.5 266.5,385.5C 265.525,389.364 265.358,393.364 266,397.5C 264.984,396.366 264.317,396.699 264,398.5C 262.333,397.167 260.667,397.167 259,398.5C 258.383,397.551 258.549,396.718 259.5,396C 258.167,395.333 256.833,395.333 255.5,396C 256.167,396.333 256.833,396.667 257.5,397C 254.833,397.667 252.167,397.667 249.5,397C 248.027,394.507 246.527,395.007 245,398.5C 244.506,400.134 244.34,401.801 244.5,403.5C 243.833,402.167 243.167,400.833 242.5,399.5C 242.5,397.167 242.5,394.833 242.5,392.5C 242.035,388.208 242.868,384.208 245,380.5C 250.272,381.267 255.606,381.934 261,382.5C 262.107,382.415 263.107,382.081 264,381.5C 264.794,378.529 265.461,375.529 266,372.5C 266.49,373.793 266.657,375.127 266.5,376.5 Z"/></g>
<g><path style="opacity:1" fill="#1d6071" d="M 536.5,389.5 C 536.133,398.029 534.133,406.029 530.5,413.5C 531.456,409.489 530.789,405.656 528.5,402C 529.483,401.409 530.15,401.743 530.5,403C 531,404.5 531.5,406 532,407.5C 532.201,404.485 531.868,401.485 531,398.5C 528.521,399.1 525.188,399.1 521,398.5C 519.057,397.685 517.057,396.685 515,395.5C 514.333,396.167 513.667,396.833 513,397.5C 513.612,394.806 513.445,392.14 512.5,389.5C 512.334,385.154 512.501,380.821 513,376.5C 514.117,377.949 514.784,379.616 515,381.5C 515.333,380.833 515.667,380.167 516,379.5C 516.667,382.167 517.333,382.167 518,379.5C 518.615,381.116 519.615,382.449 521,383.5C 523.574,381.052 526.074,381.052 528.5,383.5C 530.173,381.914 532.173,381.247 534.5,381.5C 534.351,382.552 534.517,383.552 535,384.5C 535.333,383.167 535.667,381.833 536,380.5C 536.498,383.482 536.665,386.482 536.5,389.5 Z"/></g>
<g><path style="opacity:1" fill="#2f3247" d="M 266.5,385.5 C 267.167,389.833 267.833,394.167 268.5,398.5C 267.903,398.735 267.57,399.235 267.5,400C 274.474,421.215 286.807,437.882 304.5,450C 303.137,452.129 303.471,452.629 305.5,451.5C 346.453,477.088 390.12,482.921 436.5,469C 467.847,459.33 491.18,440.164 506.5,411.5C 506.03,410.537 505.363,410.537 504.5,411.5C 507.639,404.418 509.972,397.085 511.5,389.5C 511.833,389.5 512.167,389.5 512.5,389.5C 513.445,392.14 513.612,394.806 513,397.5C 513.667,396.833 514.333,396.167 515,395.5C 517.057,396.685 519.057,397.685 521,398.5C 525.188,399.1 528.521,399.1 531,398.5C 531.868,401.485 532.201,404.485 532,407.5C 531.5,406 531,404.5 530.5,403C 530.15,401.743 529.483,401.409 528.5,402C 530.789,405.656 531.456,409.489 530.5,413.5C 528.684,417.752 527.018,422.085 525.5,426.5C 522.102,431.544 518.769,436.544 515.5,441.5C 504.621,455.54 491.621,467.373 476.5,477C 472.106,479.197 467.773,481.364 463.5,483.5C 460.127,484.066 457.127,485.399 454.5,487.5C 448.196,488.902 442.196,490.902 436.5,493.5C 402.963,502.071 369.629,501.404 336.5,491.5C 311.663,483.999 290.163,470.999 272,452.5C 264.95,444.296 258.783,435.629 253.5,426.5C 251.755,422.012 249.755,417.678 247.5,413.5C 246.87,409.952 245.87,406.619 244.5,403.5C 244.34,401.801 244.506,400.134 245,398.5C 246.527,395.007 248.027,394.507 249.5,397C 252.167,397.667 254.833,397.667 257.5,397C 256.833,396.667 256.167,396.333 255.5,396C 256.833,395.333 258.167,395.333 259.5,396C 258.549,396.718 258.383,397.551 259,398.5C 260.667,397.167 262.333,397.167 264,398.5C 264.317,396.699 264.984,396.366 266,397.5C 265.358,393.364 265.525,389.364 266.5,385.5 Z"/></g>
<g><path style="opacity:1" fill="#5ab1af" d="M 242.5,399.5 C 243.167,400.833 243.833,402.167 244.5,403.5C 245.87,406.619 246.87,409.952 247.5,413.5C 242.967,409.784 241.301,405.117 242.5,399.5 Z"/></g>
<g><path style="opacity:1" fill="#419192" d="M 433.5,233.5 C 433.5,234.833 433.5,236.167 433.5,237.5C 434.981,292.506 434.814,347.506 433,402.5C 424.27,428.879 406.103,440.046 378.5,436C 375.5,435 372.5,434 369.5,433C 368.058,432.623 367.058,431.79 366.5,430.5C 366.56,429.957 366.893,429.624 367.5,429.5C 374.054,432.444 380.887,434.444 388,435.5C 389.658,435.325 390.991,434.658 392,433.5C 393.133,435.211 394.633,435.711 396.5,435C 395.692,434.692 395.025,434.192 394.5,433.5C 398.958,433.937 403.291,432.937 407.5,430.5C 408.142,427.203 409.309,426.869 411,429.5C 415.175,426.361 418.675,422.694 421.5,418.5C 424.126,417.707 425.96,416.04 427,413.5C 427.249,410.823 428.249,408.49 430,406.5C 430.794,403.529 431.461,400.529 432,397.5C 432.167,385.5 432.333,373.5 432.5,361.5C 432.701,319.366 432.367,277.366 431.5,235.5C 431.747,234.287 432.414,233.62 433.5,233.5 Z"/></g>
<g><path style="opacity:1" fill="#2b4053" d="M 740.5,437.5 C 741.291,441.863 741.625,446.196 741.5,450.5C 739.149,454.107 738.482,457.941 739.5,462C 736.794,469.987 734.628,478.153 733,486.5C 731.025,491.079 729.692,495.746 729,500.5C 729.556,498.405 730.056,498.238 730.5,500C 727.773,504.679 724.773,509.179 721.5,513.5C 726.754,501.238 730.92,488.572 734,475.5C 736.627,465.699 738.127,455.699 738.5,445.5C 739.451,444.081 739.784,442.415 739.5,440.5C 739.263,439.209 739.596,438.209 740.5,437.5 Z"/></g>
<g><path style="opacity:1" fill="#3e343b" d="M 268.5,398.5 C 274.589,415.808 284.589,430.641 298.5,443C 331.595,468.276 368.928,478.276 410.5,473C 452.248,467.673 483.582,447.173 504.5,411.5C 505.363,410.537 506.03,410.537 506.5,411.5C 491.18,440.164 467.847,459.33 436.5,469C 390.12,482.921 346.453,477.088 305.5,451.5C 303.471,452.629 303.137,452.129 304.5,450C 286.807,437.882 274.474,421.215 267.5,400C 267.57,399.235 267.903,398.735 268.5,398.5 Z"/></g>
<g><path style="opacity:1" fill="#61beb9" d="M 253.5,426.5 C 258.783,435.629 264.95,444.296 272,452.5C 290.163,470.999 311.663,483.999 336.5,491.5C 332.123,491.423 327.79,490.923 323.5,490C 317.288,486.727 310.954,483.727 304.5,481C 303.833,480 303.167,479 302.5,478C 299.711,477.759 297.044,477.092 294.5,476C 295.167,475.667 295.833,475.333 296.5,475C 294.108,473.591 291.774,472.091 289.5,470.5C 286.724,470.054 284.224,469.054 282,467.5C 281.282,468.451 280.449,468.617 279.5,468C 280.623,466.125 280.623,463.958 279.5,461.5C 278.167,461.5 276.833,461.5 275.5,461.5C 275.649,460.448 275.483,459.448 275,458.5C 274.333,457.167 273.667,457.167 273,458.5C 272.033,454.011 269.366,451.011 265,449.5C 263.381,445.867 261.215,442.2 258.5,438.5C 257.624,437.749 256.624,437.249 255.5,437C 255.833,436.667 256.167,436.333 256.5,436C 255.12,434.676 254.786,433.343 255.5,432C 253.808,430.599 253.141,428.766 253.5,426.5 Z"/></g>
<g><path style="opacity:1" fill="#61c3bc" d="M 739.5,440.5 C 739.784,442.415 739.451,444.081 738.5,445.5C 738.53,444.503 738.03,443.836 737,443.5C 731.144,444.844 726.644,447.344 723.5,451C 724.167,451.333 724.833,451.667 725.5,452C 724.128,452.402 722.795,452.902 721.5,453.5C 719.549,452.161 718.382,450.828 718,449.5C 715.023,449.988 712.523,451.322 710.5,453.5C 709.707,453.069 708.873,452.735 708,452.5C 694.617,455.79 681.284,455.79 668,452.5C 666.564,452.559 665.231,452.892 664,453.5C 662.675,451.662 660.841,450.662 658.5,450.5C 656.523,451.46 654.523,452.46 652.5,453.5C 651.64,451.069 649.973,449.736 647.5,449.5C 646.923,446.355 644.923,444.855 641.5,445C 642.696,444.346 642.696,443.846 641.5,443.5C 639.809,445.256 637.809,445.756 635.5,445C 637.044,444.71 638.377,444.044 639.5,443C 638.216,442.316 637.049,442.483 636,443.5C 630.462,437.627 624.628,432.127 618.5,427C 612.882,424.219 608.882,420.052 606.5,414.5C 604.089,414.863 602.589,413.863 602,411.5C 601.667,411.833 601.333,412.167 601,412.5C 598.101,405.699 594.434,399.365 590,393.5C 588.316,391.649 586.483,389.982 584.5,388.5C 585.485,386.902 585.651,385.235 585,383.5C 581.473,377.779 578.473,371.779 576,365.5C 575.107,366.711 574.274,366.711 573.5,365.5C 572.167,364.167 572.167,362.833 573.5,361.5C 572.509,359.677 571.176,358.177 569.5,357C 569.833,356.667 570.167,356.333 570.5,356C 569.747,354.513 568.914,354.346 568,355.5C 566.86,350.923 565.026,346.59 562.5,342.5C 559.106,340.891 557.773,338.224 558.5,334.5C 557.5,334.5 556.5,334.5 555.5,334.5C 555.649,333.448 555.483,332.448 555,331.5C 551.833,328.333 548.667,325.167 545.5,322C 544.552,321.517 543.552,321.351 542.5,321.5C 542.5,320.5 542.5,319.5 542.5,318.5C 538.778,317.983 535.112,317.15 531.5,316C 529.122,315.026 529.456,314.359 532.5,314C 530.919,313.293 529.419,312.46 528,311.5C 526.323,312.901 524.656,314.235 523,315.5C 522.5,315.167 522,314.833 521.5,314.5C 524.797,313.858 525.131,312.691 522.5,311C 497.663,305.26 479.996,313.593 469.5,336C 470.094,336.464 470.761,336.631 471.5,336.5C 470.713,338.104 469.38,338.771 467.5,338.5C 469.167,330.165 473.167,323.165 479.5,317.5C 500.853,304.072 522.186,304.238 543.5,318C 556.084,328.334 565.917,340.834 573,355.5C 580.86,374.225 590.527,391.892 602,408.5C 639.764,452.958 685.598,463.625 739.5,440.5 Z"/></g>
<g><path style="opacity:1" fill="#63c0bb" d="M 38.5,438.5 C 51.3832,445.572 65.0499,450.239 79.5,452.5C 74.2483,452.531 69.0816,451.864 64,450.5C 62.634,450.706 61.3006,451.04 60,451.5C 56.3627,450.502 52.8627,448.502 49.5,445.5C 48.914,445.709 48.414,446.043 48,446.5C 45.9189,444.518 43.4189,443.184 40.5,442.5C 39.7122,444.329 40.2122,445.996 42,447.5C 42.6018,452.046 43.7685,456.379 45.5,460.5C 44.4557,462.768 44.289,465.101 45,467.5C 47.1176,472.971 48.4509,478.638 49,484.5C 52.1023,489.544 53.6023,494.877 53.5,500.5C 52.1667,497.5 50.8333,494.5 49.5,491.5C 43.4198,474.436 39.7532,456.77 38.5,438.5 Z"/></g>
<g><path style="opacity:1" fill="#198f99" d="M 652.5,510.5 C 598.486,562.546 535.486,576.713 463.5,553C 453.811,549.498 444.477,545.331 435.5,540.5C 450.145,538.714 464.811,536.214 479.5,533C 520.97,521.501 554.136,498.334 579,463.5C 587.577,474.079 597.41,483.245 608.5,491C 622.382,499.445 637.049,505.945 652.5,510.5 Z"/></g>
<g><path style="opacity:1" fill="#198f99" d="M 342.5,540.5 C 283.117,572.122 223.45,572.288 163.5,541C 149.49,532.488 136.823,522.321 125.5,510.5C 125.5,510.167 125.5,509.833 125.5,509.5C 156.015,503.169 180.848,487.836 200,463.5C 210.419,478.587 222.919,491.754 237.5,503C 269.188,524.73 304.188,537.23 342.5,540.5 Z"/></g>
<g><path style="opacity:1" fill="#64bfba" d="M 515.5,441.5 C 515.489,443.017 514.823,444.184 513.5,445C 513.957,445.414 514.291,445.914 514.5,446.5C 512.009,447.541 512.009,448.374 514.5,449C 511.833,449.667 511.833,450.333 514.5,451C 512.699,451.317 512.366,451.984 513.5,453C 512.256,453.456 511.423,452.956 511,451.5C 509.5,453.667 507.667,455.5 505.5,457C 505.833,457.333 506.167,457.667 506.5,458C 505.167,458.333 503.833,458.667 502.5,459C 503.28,460.073 503.113,461.24 502,462.5C 501.667,462.167 501.333,461.833 501,461.5C 498.832,462.629 498.332,464.129 499.5,466C 497.874,465.805 496.207,465.805 494.5,466C 494.833,466.333 495.167,466.667 495.5,467C 491.983,468.893 488.65,471.06 485.5,473.5C 486.025,474.192 486.692,474.692 487.5,475C 485.56,476.207 483.727,476.374 482,475.5C 478.333,478.167 474.667,480.833 471,483.5C 468.893,484.591 466.393,484.591 463.5,483.5C 467.773,481.364 472.106,479.197 476.5,477C 491.621,467.373 504.621,455.54 515.5,441.5 Z"/></g>
<g><path style="opacity:1" fill="#858685" d="M 11.5,463.5 C 11.8333,463.5 12.1667,463.5 12.5,463.5C 17.3655,482.605 23.0322,501.605 29.5,520.5C 34.6515,533.633 39.9848,546.633 45.5,559.5C 30.2408,529.065 18.9074,497.065 11.5,463.5 Z"/></g>
<g><path style="opacity:1" fill="#59aaa9" d="M 454.5,487.5 C 453.878,489.335 452.544,490.502 450.5,491C 445.651,491.351 440.984,492.184 436.5,493.5C 442.196,490.902 448.196,488.902 454.5,487.5 Z"/></g>
<g><path style="opacity:1" fill="#397a82" d="M 49.5,491.5 C 50.8333,494.5 52.1667,497.5 53.5,500.5C 53.9926,502.806 54.3259,505.139 54.5,507.5C 52.057,502.5 50.3904,497.166 49.5,491.5 Z"/></g>
<g><path style="opacity:1" fill="#fdfdfd" d="M 435.5,540.5 C 444.477,545.331 453.811,549.498 463.5,553C 535.486,576.713 598.486,562.546 652.5,510.5C 653.695,510.322 654.862,509.989 656,509.5C 661.714,511.879 666.214,515.712 669.5,521C 683.73,527.627 698.73,530.461 714.5,529.5C 711.836,535.496 709.169,541.496 706.5,547.5C 693.122,547.518 680.122,545.351 667.5,541C 662.919,539.129 658.752,536.629 655,533.5C 644.879,541.803 634.379,549.47 623.5,556.5C 569.465,585.205 513.465,589.372 455.5,569C 436.648,561.909 418.981,552.742 402.5,541.5C 398.505,537.51 394.171,533.844 389.5,530.5C 329.114,579.544 261.448,593.044 186.5,571C 163.616,561.92 142.616,549.753 123.5,534.5C 107.832,543.668 90.8315,548.001 72.5,547.5C 69.5805,541.992 66.9138,536.326 64.5,530.5C 76.5185,529.733 88.5185,527.9 100.5,525C 107.309,522.528 112.643,518.195 116.5,512C 119.277,509.674 122.277,509.174 125.5,510.5C 136.823,522.321 149.49,532.488 163.5,541C 223.45,572.288 283.117,572.122 342.5,540.5C 357.754,531.756 371.754,521.256 384.5,509C 387.993,506.864 391.326,507.031 394.5,509.5C 406.719,521.716 420.386,532.049 435.5,540.5 Z"/></g>
<g><path style="opacity:1" fill="#62c4be" d="M 125.5,509.5 C 125.5,509.833 125.5,510.167 125.5,510.5C 122.277,509.174 119.277,509.674 116.5,512C 112.643,518.195 107.309,522.528 100.5,525C 88.5185,527.9 76.5185,529.733 64.5,530.5C 63.2101,529.942 62.3768,528.942 62,527.5C 59.5601,521.616 57.3934,515.616 55.5,509.5C 58.0317,509.829 59.0317,510.995 58.5,513C 61.5709,517.706 63.5709,522.873 64.5,528.5C 66.6145,527.966 68.4478,526.966 70,525.5C 70.3333,526.167 70.6667,526.833 71,527.5C 72.0665,525.717 73.5665,525.217 75.5,526C 74.5,526.333 73.5,526.667 72.5,527C 82.8528,527.662 92.8528,525.829 102.5,521.5C 103.251,520.624 103.751,519.624 104,518.5C 104.414,518.957 104.914,519.291 105.5,519.5C 107.046,518.316 108.713,517.316 110.5,516.5C 113.597,509.704 118.597,507.37 125.5,509.5 Z"/></g>
<g><path style="opacity:1" fill="#868988" d="M 749.5,521.5 C 747.854,526.474 745.854,531.141 743.5,535.5C 744.617,531.146 745.95,526.812 747.5,522.5C 748.183,522.137 748.85,521.804 749.5,521.5 Z"/></g>
<g><path style="opacity:1" fill="#57d4cc" d="M 402.5,541.5 C 401.525,543.193 400.192,544.693 398.5,546C 399.071,547.205 399.738,548.372 400.5,549.5C 402.75,547.202 405.416,546.369 408.5,547C 409.833,547.667 409.833,548.333 408.5,549C 411.377,549.956 414.044,551.289 416.5,553C 415.549,553.718 415.383,554.551 416,555.5C 417.049,554.483 418.216,554.316 419.5,555C 426.225,558.053 432.725,561.553 439,565.5C 439.333,565.167 439.667,564.833 440,564.5C 442.667,565.833 444.667,567.833 446,570.5C 447.418,568.637 449.251,568.137 451.5,569C 458.176,571.084 464.51,573.918 470.5,577.5C 471.167,577.167 471.833,576.833 472.5,576.5C 475.791,577.382 479.124,578.048 482.5,578.5C 482.5,579.5 482.5,580.5 482.5,581.5C 479.86,581.954 477.527,583.121 475.5,585C 476.167,585.167 476.833,585.333 477.5,585.5C 481.175,584.424 484.509,582.757 487.5,580.5C 492.988,581.101 498.655,581.934 504.5,583C 503.289,583.893 503.289,584.726 504.5,585.5C 507.554,586.347 510.554,587.347 513.5,588.5C 515,588.547 516,587.881 516.5,586.5C 515.431,586.36 514.264,586.36 513,586.5C 511.77,585.725 511.437,584.725 512,583.5C 514.312,583.955 516.312,584.955 518,586.5C 519.974,586.374 522.141,586.208 524.5,586C 523.304,585.346 523.304,584.846 524.5,584.5C 526.11,585.552 527.777,585.552 529.5,584.5C 532.063,584.737 532.063,585.237 529.5,586C 532.644,586.952 535.144,586.119 537,583.5C 540.468,583.98 544.135,584.98 548,586.5C 549.167,586.333 550.333,586.167 551.5,586C 548.536,585.16 548.203,584.16 550.5,583C 566.863,580.943 583.196,576.61 599.5,570C 603.815,567.227 608.482,565.227 613.5,564C 617.403,562.22 620.737,559.72 623.5,556.5C 624.873,556.657 626.207,556.49 627.5,556C 636.811,550.435 645.644,544.269 654,537.5C 656.454,538.344 658.954,539.344 661.5,540.5C 662.491,542.323 663.824,543.823 665.5,545C 666.5,545.667 667.5,545.667 668.5,545C 667.304,544.346 667.304,543.846 668.5,543.5C 670.167,544.333 671.833,545.167 673.5,546C 671.405,546.556 671.238,547.056 673,547.5C 675.766,545.985 678.266,546.318 680.5,548.5C 687.433,548.157 694.433,548.157 701.5,548.5C 701.351,549.552 701.517,550.552 702,551.5C 702.423,550.044 703.256,549.544 704.5,550C 703.139,551.584 702.472,553.418 702.5,555.5C 699.659,560.7 696.659,565.7 693.5,570.5C 662.497,587.499 630.497,602.665 597.5,616C 545.144,634.562 493.144,633.562 441.5,613C 421.692,605.446 404.692,593.946 390.5,578.5C 371.243,598.137 348.243,611.637 321.5,619C 272.437,633.72 223.77,632.387 175.5,615C 146.066,603.282 117.733,589.449 90.5,573.5C 88.1918,571.529 85.8585,569.529 83.5,567.5C 81.6535,565.97 80.6535,563.97 80.5,561.5C 80.5106,559.983 81.1772,558.816 82.5,558C 81.5509,557.383 80.7175,557.549 80,558.5C 79.5172,557.552 79.3505,556.552 79.5,555.5C 78.5,555.5 77.5,555.5 76.5,555.5C 76.9662,553.799 76.9662,552.299 76.5,551C 77.8333,550.333 79.1667,549.667 80.5,549C 96.6096,548.863 111.11,544.697 124,536.5C 126.878,537.791 126.712,539.291 123.5,541C 125.478,543.015 127.312,542.848 129,540.5C 133.539,545.186 138.706,549.019 144.5,552C 145.197,555.407 147.03,556.574 150,555.5C 154.786,558.258 159.62,561.092 164.5,564C 163.66,565.666 164.16,565.833 166,564.5C 171.384,567.106 176.884,569.606 182.5,572C 181.112,572.889 181.278,573.389 183,573.5C 185.496,572.994 187.83,572.994 190,573.5C 192.344,575.774 195.178,576.941 198.5,577C 197.304,577.654 197.304,578.154 198.5,578.5C 199.293,578.069 200.127,577.735 201,577.5C 213.977,580.262 226.643,582.928 239,585.5C 239.308,584.692 239.808,584.025 240.5,583.5C 249.254,584.926 258.254,584.593 267.5,582.5C 269.32,582.649 270.82,583.316 272,584.5C 279.915,581.282 288.081,579.948 296.5,580.5C 295.934,581.291 295.101,581.291 294,580.5C 291.774,580.978 289.608,581.645 287.5,582.5C 294.282,583.949 300.615,582.782 306.5,579C 305.167,578.333 305.167,577.667 306.5,577C 309.291,575.382 312.291,574.215 315.5,573.5C 317.069,574.714 317.902,576.381 318,578.5C 319.691,576.291 319.524,574.458 317.5,573C 322.549,571.317 327.549,569.65 332.5,568C 337.526,565.999 342.359,563.499 347,560.5C 348.019,561.687 349.186,562.687 350.5,563.5C 351.83,561.653 351.497,560.153 349.5,559C 352.108,556.787 354.941,556.287 358,557.5C 359.811,556.576 359.645,555.743 357.5,555C 359.731,553.853 362.065,552.853 364.5,552C 366.017,550.315 367.684,548.815 369.5,547.5C 370.451,548.326 371.451,548.492 372.5,548C 372.167,547.667 371.833,547.333 371.5,547C 376.682,543.146 381.849,539.313 387,535.5C 387.165,537.678 386.332,539.511 384.5,541C 388.496,541.811 392.496,542.144 396.5,542C 394.343,540.915 394.176,539.749 396,538.5C 398,539.167 399.333,540.5 400,542.5C 400.671,541.748 401.504,541.414 402.5,541.5 Z"/></g>
<g><path style="opacity:1" fill="#60c2bc" d="M 706.5,547.5 C 705.677,550.48 704.343,553.147 702.5,555.5C 702.472,553.418 703.139,551.584 704.5,550C 703.256,549.544 702.423,550.044 702,551.5C 701.517,550.552 701.351,549.552 701.5,548.5C 694.433,548.157 687.433,548.157 680.5,548.5C 678.266,546.318 675.766,545.985 673,547.5C 671.238,547.056 671.405,546.556 673.5,546C 671.833,545.167 670.167,544.333 668.5,543.5C 667.304,543.846 667.304,544.346 668.5,545C 667.5,545.667 666.5,545.667 665.5,545C 663.824,543.823 662.491,542.323 661.5,540.5C 658.954,539.344 656.454,538.344 654,537.5C 645.644,544.269 636.811,550.435 627.5,556C 626.207,556.49 624.873,556.657 623.5,556.5C 634.379,549.47 644.879,541.803 655,533.5C 658.752,536.629 662.919,539.129 667.5,541C 680.122,545.351 693.122,547.518 706.5,547.5 Z"/></g>
<g><path style="opacity:1" fill="#9fc4bd" d="M 743.5,537.5 C 743.5,538.833 742.833,539.5 741.5,539.5C 741.833,538.5 742.5,537.833 743.5,537.5 Z"/></g>
<g><path style="opacity:1" fill="#8a9290" d="M 741.5,541.5 C 740.523,544.49 739.189,547.157 737.5,549.5C 737.714,546.144 739.047,543.477 741.5,541.5 Z"/></g>
<g><path style="opacity:1" fill="#61c3bc" d="M 402.5,541.5 C 401.504,541.414 400.671,541.748 400,542.5C 399.333,540.5 398,539.167 396,538.5C 394.176,539.749 394.343,540.915 396.5,542C 392.496,542.144 388.496,541.811 384.5,541C 386.332,539.511 387.165,537.678 387,535.5C 381.849,539.313 376.682,543.146 371.5,547C 371.833,547.333 372.167,547.667 372.5,548C 371.451,548.492 370.451,548.326 369.5,547.5C 367.684,548.815 366.017,550.315 364.5,552C 362.065,552.853 359.731,553.853 357.5,555C 359.645,555.743 359.811,556.576 358,557.5C 354.941,556.287 352.108,556.787 349.5,559C 351.497,560.153 351.83,561.653 350.5,563.5C 349.186,562.687 348.019,561.687 347,560.5C 342.359,563.499 337.526,565.999 332.5,568C 327.549,569.65 322.549,571.317 317.5,573C 319.524,574.458 319.691,576.291 318,578.5C 317.902,576.381 317.069,574.714 315.5,573.5C 312.291,574.215 309.291,575.382 306.5,577C 305.167,577.667 305.167,578.333 306.5,579C 300.615,582.782 294.282,583.949 287.5,582.5C 289.608,581.645 291.774,580.978 294,580.5C 295.101,581.291 295.934,581.291 296.5,580.5C 288.081,579.948 279.915,581.282 272,584.5C 270.82,583.316 269.32,582.649 267.5,582.5C 258.254,584.593 249.254,584.926 240.5,583.5C 239.808,584.025 239.308,584.692 239,585.5C 226.643,582.928 213.977,580.262 201,577.5C 200.127,577.735 199.293,578.069 198.5,578.5C 197.304,578.154 197.304,577.654 198.5,577C 195.178,576.941 192.344,575.774 190,573.5C 187.83,572.994 185.496,572.994 183,573.5C 181.278,573.389 181.112,572.889 182.5,572C 176.884,569.606 171.384,567.106 166,564.5C 164.16,565.833 163.66,565.666 164.5,564C 159.62,561.092 154.786,558.258 150,555.5C 147.03,556.574 145.197,555.407 144.5,552C 138.706,549.019 133.539,545.186 129,540.5C 127.312,542.848 125.478,543.015 123.5,541C 126.712,539.291 126.878,537.791 124,536.5C 111.11,544.697 96.6096,548.863 80.5,549C 79.1667,549.667 77.8333,550.333 76.5,551C 76.9662,552.299 76.9662,553.799 76.5,555.5C 77.5,555.5 78.5,555.5 79.5,555.5C 79.3505,556.552 79.5172,557.552 80,558.5C 80.7175,557.549 81.5509,557.383 82.5,558C 81.1772,558.816 80.5106,559.983 80.5,561.5C 78.5491,560.284 77.0491,558.618 76,556.5C 75.0614,553.4 73.8948,550.4 72.5,547.5C 90.8315,548.001 107.832,543.668 123.5,534.5C 142.616,549.753 163.616,561.92 186.5,571C 261.448,593.044 329.114,579.544 389.5,530.5C 394.171,533.844 398.505,537.51 402.5,541.5 Z"/></g>
<g><path style="opacity:1" fill="#9fc4bd" d="M 737.5,551.5 C 737.5,552.833 736.833,553.5 735.5,553.5C 735.833,552.5 736.5,551.833 737.5,551.5 Z"/></g>
<g><path style="opacity:1" fill="#9fc4bd" d="M 735.5,555.5 C 735.5,556.833 734.833,557.5 733.5,557.5C 733.833,556.5 734.5,555.833 735.5,555.5 Z"/></g>
<g><path style="opacity:1" fill="#8d9895" d="M 45.5,559.5 C 50.5011,566.16 54.5011,573.493 57.5,581.5C 53.0237,574.557 49.0237,567.223 45.5,559.5 Z"/></g>
<g><path style="opacity:1" fill="#9fc4bd" d="M 733.5,559.5 C 733.5,560.833 732.833,561.5 731.5,561.5C 731.833,560.5 732.5,559.833 733.5,559.5 Z"/></g>
<g><path style="opacity:1" fill="#9fc4bd" d="M 731.5,563.5 C 731.5,564.833 730.833,565.5 729.5,565.5C 729.833,564.5 730.5,563.833 731.5,563.5 Z"/></g>
<g><path style="opacity:1" fill="#9fc4bd" d="M 729.5,567.5 C 729.5,568.833 728.833,569.5 727.5,569.5C 727.833,568.5 728.5,567.833 729.5,567.5 Z"/></g>
<g><path style="opacity:1" fill="#9fc4bd" d="M 727.5,569.5 C 727.5,570.833 726.833,571.5 725.5,571.5C 725.833,570.5 726.5,569.833 727.5,569.5 Z"/></g>
<g><path style="opacity:1" fill="#2c7780" d="M 83.5,567.5 C 85.8585,569.529 88.1918,571.529 90.5,573.5C 89.3744,574.858 89.3744,576.192 90.5,577.5C 91.1924,576.975 91.6924,576.308 92,575.5C 92.2735,577.329 93.1068,578.829 94.5,580C 93.4829,581.049 93.3162,582.216 94,583.5C 97.8664,587.253 100.7,591.586 102.5,596.5C 94.5277,587.935 88.1944,578.269 83.5,567.5 Z"/></g>
<g><path style="opacity:1" fill="#168f9a" d="M 693.5,570.5 C 692.027,573.447 690.527,576.447 689,579.5C 671.809,604.377 651.976,627.21 629.5,648C 623.619,652.761 617.619,657.261 611.5,661.5C 589.631,673.924 566.298,682.757 541.5,688C 489.255,696.429 442.588,684.429 401.5,652C 398.215,647.577 394.382,643.744 390,640.5C 384.807,646.358 378.974,651.524 372.5,656C 327.256,690.035 276.589,699.035 220.5,683C 208.594,679.115 196.928,674.781 185.5,670C 177.48,665.301 169.48,660.634 161.5,656C 160.102,653.134 157.768,651.634 154.5,651.5C 151.044,649.217 147.71,646.717 144.5,644C 129.208,629.214 115.208,613.381 102.5,596.5C 100.7,591.586 97.8664,587.253 94,583.5C 93.3162,582.216 93.4829,581.049 94.5,580C 93.1068,578.829 92.2735,577.329 92,575.5C 91.6924,576.308 91.1924,576.975 90.5,577.5C 89.3744,576.192 89.3744,574.858 90.5,573.5C 117.733,589.449 146.066,603.282 175.5,615C 223.77,632.387 272.437,633.72 321.5,619C 348.243,611.637 371.243,598.137 390.5,578.5C 404.692,593.946 421.692,605.446 441.5,613C 493.144,633.562 545.144,634.562 597.5,616C 630.497,602.665 662.497,587.499 693.5,570.5 Z"/></g>
<g><path style="opacity:1" fill="#9fc4bd" d="M 725.5,573.5 C 725.5,574.833 724.833,575.5 723.5,575.5C 723.833,574.5 724.5,573.833 725.5,573.5 Z"/></g>
<g><path style="opacity:1" fill="#60c3bc" d="M 402.5,541.5 C 418.981,552.742 436.648,561.909 455.5,569C 513.465,589.372 569.465,585.205 623.5,556.5C 620.737,559.72 617.403,562.22 613.5,564C 608.482,565.227 603.815,567.227 599.5,570C 583.196,576.61 566.863,580.943 550.5,583C 548.203,584.16 548.536,585.16 551.5,586C 550.333,586.167 549.167,586.333 548,586.5C 544.135,584.98 540.468,583.98 537,583.5C 535.144,586.119 532.644,586.952 529.5,586C 532.063,585.237 532.063,584.737 529.5,584.5C 527.777,585.552 526.11,585.552 524.5,584.5C 523.304,584.846 523.304,585.346 524.5,586C 522.141,586.208 519.974,586.374 518,586.5C 516.312,584.955 514.312,583.955 512,583.5C 511.437,584.725 511.77,585.725 513,586.5C 514.264,586.36 515.431,586.36 516.5,586.5C 516,587.881 515,588.547 513.5,588.5C 510.554,587.347 507.554,586.347 504.5,585.5C 503.289,584.726 503.289,583.893 504.5,583C 498.655,581.934 492.988,581.101 487.5,580.5C 484.509,582.757 481.175,584.424 477.5,585.5C 476.833,585.333 476.167,585.167 475.5,585C 477.527,583.121 479.86,581.954 482.5,581.5C 482.5,580.5 482.5,579.5 482.5,578.5C 479.124,578.048 475.791,577.382 472.5,576.5C 471.833,576.833 471.167,577.167 470.5,577.5C 464.51,573.918 458.176,571.084 451.5,569C 449.251,568.137 447.418,568.637 446,570.5C 444.667,567.833 442.667,565.833 440,564.5C 439.667,564.833 439.333,565.167 439,565.5C 432.725,561.553 426.225,558.053 419.5,555C 418.216,554.316 417.049,554.483 416,555.5C 415.383,554.551 415.549,553.718 416.5,553C 414.044,551.289 411.377,549.956 408.5,549C 409.833,548.333 409.833,547.667 408.5,547C 405.416,546.369 402.75,547.202 400.5,549.5C 399.738,548.372 399.071,547.205 398.5,546C 400.192,544.693 401.525,543.193 402.5,541.5 Z"/></g>
<g><path style="opacity:1" fill="#9fc4bd" d="M 723.5,577.5 C 723.5,578.833 722.833,579.5 721.5,579.5C 721.833,578.5 722.5,577.833 723.5,577.5 Z"/></g>
<g><path style="opacity:1" fill="#8d9895" d="M 57.5,581.5 C 59.8115,582.774 61.1449,584.774 61.5,587.5C 59.6974,585.919 58.3641,583.919 57.5,581.5 Z"/></g>
<g><path style="opacity:1" fill="#9fc4bd" d="M 721.5,581.5 C 721.5,582.833 720.833,583.5 719.5,583.5C 719.833,582.5 720.5,581.833 721.5,581.5 Z"/></g>
<g><path style="opacity:1" fill="#9fc4bd" d="M 719.5,583.5 C 719.5,584.833 718.833,585.5 717.5,585.5C 717.833,584.5 718.5,583.833 719.5,583.5 Z"/></g>
<g><path style="opacity:1" fill="#8d9895" d="M 61.5,587.5 C 64.4916,590.135 66.4916,593.468 67.5,597.5C 65.0263,594.57 63.0263,591.237 61.5,587.5 Z"/></g>
<g><path style="opacity:1" fill="#9fc4bd" d="M 717.5,587.5 C 717.5,588.833 716.833,589.5 715.5,589.5C 715.833,588.5 716.5,587.833 717.5,587.5 Z"/></g>
<g><path style="opacity:1" fill="#9fc4bd" d="M 715.5,591.5 C 715.5,592.833 714.833,593.5 713.5,593.5C 713.833,592.5 714.5,591.833 715.5,591.5 Z"/></g>
<g><path style="opacity:1" fill="#9fc4bd" d="M 713.5,593.5 C 713.5,594.833 712.833,595.5 711.5,595.5C 711.833,594.5 712.5,593.833 713.5,593.5 Z"/></g>
<g><path style="opacity:1" fill="#9fc4bd" d="M 711.5,595.5 C 711.5,596.833 710.833,597.5 709.5,597.5C 709.833,596.5 710.5,595.833 711.5,595.5 Z"/></g>
<g><path style="opacity:1" fill="#9fc4bd" d="M 67.5,597.5 C 68.5,597.833 69.1667,598.5 69.5,599.5C 68.1667,599.5 67.5,598.833 67.5,597.5 Z"/></g>
<g><path style="opacity:1" fill="#8d9895" d="M 69.5,599.5 C 71.8115,600.774 73.1449,602.774 73.5,605.5C 71.6974,603.919 70.3641,601.919 69.5,599.5 Z"/></g>
<g><path style="opacity:1" fill="#9fc4bd" d="M 709.5,599.5 C 709.5,600.833 708.833,601.5 707.5,601.5C 707.833,600.5 708.5,599.833 709.5,599.5 Z"/></g>
<g><path style="opacity:1" fill="#9fc4bd" d="M 707.5,603.5 C 707.5,604.833 706.833,605.5 705.5,605.5C 705.833,604.5 706.5,603.833 707.5,603.5 Z"/></g>
<g><path style="opacity:1" fill="#8d9895" d="M 73.5,605.5 C 75.8115,606.774 77.1449,608.774 77.5,611.5C 75.6974,609.919 74.3641,607.919 73.5,605.5 Z"/></g>
<g><path style="opacity:1" fill="#9fc4bd" d="M 705.5,605.5 C 705.5,606.833 704.833,607.5 703.5,607.5C 703.833,606.5 704.5,605.833 705.5,605.5 Z"/></g>
<g><path style="opacity:1" fill="#9fc4bd" d="M 703.5,607.5 C 703.5,608.833 702.833,609.5 701.5,609.5C 701.833,608.5 702.5,607.833 703.5,607.5 Z"/></g>
<g><path style="opacity:1" fill="#9fc4bd" d="M 77.5,611.5 C 78.5,611.833 79.1667,612.5 79.5,613.5C 78.1667,613.5 77.5,612.833 77.5,611.5 Z"/></g>
<g><path style="opacity:1" fill="#9fc4bd" d="M 701.5,611.5 C 701.5,612.833 700.833,613.5 699.5,613.5C 699.833,612.5 700.5,611.833 701.5,611.5 Z"/></g>
<g><path style="opacity:1" fill="#8d9895" d="M 79.5,613.5 C 81.8115,614.774 83.1449,616.774 83.5,619.5C 81.6974,617.919 80.3641,615.919 79.5,613.5 Z"/></g>
<g><path style="opacity:1" fill="#9fc4bd" d="M 699.5,613.5 C 699.5,614.833 698.833,615.5 697.5,615.5C 697.833,614.5 698.5,613.833 699.5,613.5 Z"/></g>
<g><path style="opacity:1" fill="#9fc4bd" d="M 697.5,615.5 C 697.5,616.833 696.833,617.5 695.5,617.5C 695.833,616.5 696.5,615.833 697.5,615.5 Z"/></g>
<g><path style="opacity:1" fill="#9fc4bd" d="M 695.5,617.5 C 695.5,618.833 694.833,619.5 693.5,619.5C 693.833,618.5 694.5,617.833 695.5,617.5 Z"/></g>
<g><path style="opacity:1" fill="#9fc4bd" d="M 83.5,619.5 C 84.5,619.833 85.1667,620.5 85.5,621.5C 84.1667,621.5 83.5,620.833 83.5,619.5 Z"/></g>
<g><path style="opacity:1" fill="#9fc4bd" d="M 85.5,621.5 C 86.5,621.833 87.1667,622.5 87.5,623.5C 86.1667,623.5 85.5,622.833 85.5,621.5 Z"/></g>
<g><path style="opacity:1" fill="#9fc4bd" d="M 693.5,621.5 C 693.5,622.833 692.833,623.5 691.5,623.5C 691.833,622.5 692.5,621.833 693.5,621.5 Z"/></g>
<g><path style="opacity:1" fill="#9fc4bd" d="M 87.5,623.5 C 88.5,623.833 89.1667,624.5 89.5,625.5C 88.1667,625.5 87.5,624.833 87.5,623.5 Z"/></g>
<g><path style="opacity:1" fill="#9fc4bd" d="M 691.5,623.5 C 691.5,624.833 690.833,625.5 689.5,625.5C 689.833,624.5 690.5,623.833 691.5,623.5 Z"/></g>
<g><path style="opacity:1" fill="#8d9895" d="M 89.5,625.5 C 91.8115,626.774 93.1449,628.774 93.5,631.5C 91.6974,629.919 90.3641,627.919 89.5,625.5 Z"/></g>
<g><path style="opacity:1" fill="#9fc4bd" d="M 689.5,625.5 C 689.5,626.833 688.833,627.5 687.5,627.5C 687.833,626.5 688.5,625.833 689.5,625.5 Z"/></g>
<g><path style="opacity:1" fill="#9fc4bd" d="M 687.5,627.5 C 687.5,628.833 686.833,629.5 685.5,629.5C 685.833,628.5 686.5,627.833 687.5,627.5 Z"/></g>
<g><path style="opacity:1" fill="#9fc4bd" d="M 93.5,631.5 C 94.5,631.833 95.1667,632.5 95.5,633.5C 94.1667,633.5 93.5,632.833 93.5,631.5 Z"/></g>
<g><path style="opacity:1" fill="#9fc4bd" d="M 685.5,631.5 C 685.5,632.833 684.833,633.5 683.5,633.5C 683.833,632.5 684.5,631.833 685.5,631.5 Z"/></g>
<g><path style="opacity:1" fill="#8d9895" d="M 95.5,633.5 C 97.8115,634.774 99.1449,636.774 99.5,639.5C 97.6974,637.919 96.3641,635.919 95.5,633.5 Z"/></g>
<g><path style="opacity:1" fill="#9fc4bd" d="M 683.5,633.5 C 683.5,634.833 682.833,635.5 681.5,635.5C 681.833,634.5 682.5,633.833 683.5,633.5 Z"/></g>
<g><path style="opacity:1" fill="#9fc4bd" d="M 681.5,635.5 C 681.5,636.833 680.833,637.5 679.5,637.5C 679.833,636.5 680.5,635.833 681.5,635.5 Z"/></g>
<g><path style="opacity:1" fill="#9fc4bd" d="M 679.5,637.5 C 679.5,638.833 678.833,639.5 677.5,639.5C 677.833,638.5 678.5,637.833 679.5,637.5 Z"/></g>
<g><path style="opacity:1" fill="#9fc4bd" d="M 99.5,639.5 C 100.5,639.833 101.167,640.5 101.5,641.5C 100.167,641.5 99.5,640.833 99.5,639.5 Z"/></g>
<g><path style="opacity:1" fill="#1d6172" d="M 611.5,661.5 C 555.692,706.18 491.859,731.847 420,738.5C 328.886,744.592 246.386,720.592 172.5,666.5C 166.429,661.482 160.429,656.482 154.5,651.5C 157.768,651.634 160.102,653.134 161.5,656C 169.48,660.634 177.48,665.301 185.5,670C 196.928,674.781 208.594,679.115 220.5,683C 276.589,699.035 327.256,690.035 372.5,656C 378.974,651.524 384.807,646.358 390,640.5C 394.382,643.744 398.215,647.577 401.5,652C 442.588,684.429 489.255,696.429 541.5,688C 566.298,682.757 589.631,673.924 611.5,661.5 Z"/></g>
<g><path style="opacity:1" fill="#9fc4bd" d="M 677.5,639.5 C 677.5,640.833 676.833,641.5 675.5,641.5C 675.833,640.5 676.5,639.833 677.5,639.5 Z"/></g>
<g><path style="opacity:1" fill="#9fc4bd" d="M 101.5,641.5 C 102.5,641.833 103.167,642.5 103.5,643.5C 102.167,643.5 101.5,642.833 101.5,641.5 Z"/></g>
<g><path style="opacity:1" fill="#9fc4bd" d="M 675.5,641.5 C 675.5,642.833 674.833,643.5 673.5,643.5C 673.833,642.5 674.5,641.833 675.5,641.5 Z"/></g>
<g><path style="opacity:1" fill="#9fc4bd" d="M 103.5,643.5 C 104.5,643.833 105.167,644.5 105.5,645.5C 104.167,645.5 103.5,644.833 103.5,643.5 Z"/></g>
<g><path style="opacity:1" fill="#9fc4bd" d="M 673.5,643.5 C 673.5,644.833 672.833,645.5 671.5,645.5C 671.833,644.5 672.5,643.833 673.5,643.5 Z"/></g>
<g><path style="opacity:1" fill="#9fc4bd" d="M 105.5,645.5 C 106.5,645.833 107.167,646.5 107.5,647.5C 106.167,647.5 105.5,646.833 105.5,645.5 Z"/></g>
<g><path style="opacity:1" fill="#9fc4bd" d="M 671.5,645.5 C 671.5,646.833 670.833,647.5 669.5,647.5C 669.833,646.5 670.5,645.833 671.5,645.5 Z"/></g>
<g><path style="opacity:1" fill="#9fc4bd" d="M 107.5,647.5 C 108.5,647.833 109.167,648.5 109.5,649.5C 108.167,649.5 107.5,648.833 107.5,647.5 Z"/></g>
<g><path style="opacity:1" fill="#9fc4bd" d="M 669.5,647.5 C 669.5,648.833 668.833,649.5 667.5,649.5C 667.833,648.5 668.5,647.833 669.5,647.5 Z"/></g>
<g><path style="opacity:1" fill="#9fc4bd" d="M 109.5,649.5 C 110.5,649.833 111.167,650.5 111.5,651.5C 110.167,651.5 109.5,650.833 109.5,649.5 Z"/></g>
<g><path style="opacity:1" fill="#9fc4bd" d="M 667.5,649.5 C 667.5,650.833 666.833,651.5 665.5,651.5C 665.833,650.5 666.5,649.833 667.5,649.5 Z"/></g>
<g><path style="opacity:1" fill="#9fc4bd" d="M 111.5,651.5 C 112.5,651.833 113.167,652.5 113.5,653.5C 112.167,653.5 111.5,652.833 111.5,651.5 Z"/></g>
<g><path style="opacity:1" fill="#9fc4bd" d="M 665.5,651.5 C 665.5,652.833 664.833,653.5 663.5,653.5C 663.833,652.5 664.5,651.833 665.5,651.5 Z"/></g>
<g><path style="opacity:1" fill="#9fc4bd" d="M 113.5,653.5 C 114.5,653.833 115.167,654.5 115.5,655.5C 114.167,655.5 113.5,654.833 113.5,653.5 Z"/></g>
<g><path style="opacity:1" fill="#9fc4bd" d="M 663.5,653.5 C 663.5,654.833 662.833,655.5 661.5,655.5C 661.833,654.5 662.5,653.833 663.5,653.5 Z"/></g>
<g><path style="opacity:1" fill="#9fc4bd" d="M 115.5,655.5 C 116.5,655.833 117.167,656.5 117.5,657.5C 116.167,657.5 115.5,656.833 115.5,655.5 Z"/></g>
<g><path style="opacity:1" fill="#9fc4bd" d="M 661.5,655.5 C 661.5,656.833 660.833,657.5 659.5,657.5C 659.833,656.5 660.5,655.833 661.5,655.5 Z"/></g>
<g><path style="opacity:1" fill="#9fc4bd" d="M 117.5,657.5 C 118.5,657.833 119.167,658.5 119.5,659.5C 118.167,659.5 117.5,658.833 117.5,657.5 Z"/></g>
<g><path style="opacity:1" fill="#9fc4bd" d="M 659.5,657.5 C 659.5,658.833 658.833,659.5 657.5,659.5C 657.833,658.5 658.5,657.833 659.5,657.5 Z"/></g>
<g><path style="opacity:1" fill="#9fc4bd" d="M 119.5,659.5 C 120.5,659.833 121.167,660.5 121.5,661.5C 120.167,661.5 119.5,660.833 119.5,659.5 Z"/></g>
<g><path style="opacity:1" fill="#9fc4bd" d="M 657.5,659.5 C 657.5,660.833 656.833,661.5 655.5,661.5C 655.833,660.5 656.5,659.833 657.5,659.5 Z"/></g>
<g><path style="opacity:1" fill="#9fc4bd" d="M 121.5,661.5 C 122.5,661.833 123.167,662.5 123.5,663.5C 122.167,663.5 121.5,662.833 121.5,661.5 Z"/></g>
<g><path style="opacity:1" fill="#9fc4bd" d="M 655.5,661.5 C 655.5,662.833 654.833,663.5 653.5,663.5C 653.833,662.5 654.5,661.833 655.5,661.5 Z"/></g>
<g><path style="opacity:1" fill="#9fc4bd" d="M 123.5,663.5 C 124.5,663.833 125.167,664.5 125.5,665.5C 124.167,665.5 123.5,664.833 123.5,663.5 Z"/></g>
<g><path style="opacity:1" fill="#9fc4bd" d="M 653.5,663.5 C 653.5,664.833 652.833,665.5 651.5,665.5C 651.833,664.5 652.5,663.833 653.5,663.5 Z"/></g>
<g><path style="opacity:1" fill="#9fc4bd" d="M 125.5,665.5 C 126.5,665.833 127.167,666.5 127.5,667.5C 126.167,667.5 125.5,666.833 125.5,665.5 Z"/></g>
<g><path style="opacity:1" fill="#9fc4bd" d="M 651.5,665.5 C 651.5,666.833 650.833,667.5 649.5,667.5C 649.833,666.5 650.5,665.833 651.5,665.5 Z"/></g>
<g><path style="opacity:1" fill="#9fc4bd" d="M 127.5,667.5 C 128.5,667.833 129.167,668.5 129.5,669.5C 128.167,669.5 127.5,668.833 127.5,667.5 Z"/></g>
<g><path style="opacity:1" fill="#9fc4bd" d="M 649.5,667.5 C 649.5,668.833 648.833,669.5 647.5,669.5C 647.833,668.5 648.5,667.833 649.5,667.5 Z"/></g>
<g><path style="opacity:1" fill="#8d9895" d="M 129.5,669.5 C 132.226,669.855 134.226,671.188 135.5,673.5C 133.081,672.636 131.081,671.303 129.5,669.5 Z"/></g>
<g><path style="opacity:1" fill="#9fc4bd" d="M 647.5,669.5 C 647.5,670.833 646.833,671.5 645.5,671.5C 645.833,670.5 646.5,669.833 647.5,669.5 Z"/></g>
<g><path style="opacity:1" fill="#9fc4bd" d="M 645.5,671.5 C 645.5,672.833 644.833,673.5 643.5,673.5C 643.833,672.5 644.5,671.833 645.5,671.5 Z"/></g>
<g><path style="opacity:1" fill="#9fc4bd" d="M 135.5,673.5 C 136.5,673.833 137.167,674.5 137.5,675.5C 136.167,675.5 135.5,674.833 135.5,673.5 Z"/></g>
<g><path style="opacity:1" fill="#9fc4bd" d="M 643.5,673.5 C 643.5,674.833 642.833,675.5 641.5,675.5C 641.833,674.5 642.5,673.833 643.5,673.5 Z"/></g>
<g><path style="opacity:1" fill="#9fc4bd" d="M 137.5,675.5 C 138.5,675.833 139.167,676.5 139.5,677.5C 138.167,677.5 137.5,676.833 137.5,675.5 Z"/></g>
<g><path style="opacity:1" fill="#9fc4bd" d="M 641.5,675.5 C 641.5,676.833 640.833,677.5 639.5,677.5C 639.833,676.5 640.5,675.833 641.5,675.5 Z"/></g>
<g><path style="opacity:1" fill="#9fc4bd" d="M 139.5,677.5 C 140.5,677.833 141.167,678.5 141.5,679.5C 140.167,679.5 139.5,678.833 139.5,677.5 Z"/></g>
<g><path style="opacity:1" fill="#9fc4bd" d="M 637.5,677.5 C 637.5,678.833 636.833,679.5 635.5,679.5C 635.833,678.5 636.5,677.833 637.5,677.5 Z"/></g>
<g><path style="opacity:1" fill="#9fc4bd" d="M 141.5,679.5 C 142.5,679.833 143.167,680.5 143.5,681.5C 142.167,681.5 141.5,680.833 141.5,679.5 Z"/></g>
<g><path style="opacity:1" fill="#9fc4bd" d="M 635.5,679.5 C 635.5,680.833 634.833,681.5 633.5,681.5C 633.833,680.5 634.5,679.833 635.5,679.5 Z"/></g>
<g><path style="opacity:1" fill="#8d9895" d="M 143.5,681.5 C 146.226,681.855 148.226,683.188 149.5,685.5C 147.081,684.636 145.081,683.303 143.5,681.5 Z"/></g>
<g><path style="opacity:1" fill="#9fc4bd" d="M 633.5,681.5 C 633.5,682.833 632.833,683.5 631.5,683.5C 631.833,682.5 632.5,681.833 633.5,681.5 Z"/></g>
<g><path style="opacity:1" fill="#9fc4bd" d="M 631.5,683.5 C 631.5,684.833 630.833,685.5 629.5,685.5C 629.833,684.5 630.5,683.833 631.5,683.5 Z"/></g>
<g><path style="opacity:1" fill="#9fc4bd" d="M 149.5,685.5 C 150.5,685.833 151.167,686.5 151.5,687.5C 150.167,687.5 149.5,686.833 149.5,685.5 Z"/></g>
<g><path style="opacity:1" fill="#9fc4bd" d="M 627.5,685.5 C 627.5,686.833 626.833,687.5 625.5,687.5C 625.833,686.5 626.5,685.833 627.5,685.5 Z"/></g>
<g><path style="opacity:1" fill="#8d9895" d="M 151.5,687.5 C 154.226,687.855 156.226,689.188 157.5,691.5C 155.081,690.636 153.081,689.303 151.5,687.5 Z"/></g>
<g><path style="opacity:1" fill="#9fc4bd" d="M 625.5,687.5 C 625.5,688.833 624.833,689.5 623.5,689.5C 623.833,688.5 624.5,687.833 625.5,687.5 Z"/></g>
<g><path style="opacity:1" fill="#9fc4bd" d="M 623.5,689.5 C 623.5,690.833 622.833,691.5 621.5,691.5C 621.833,690.5 622.5,689.833 623.5,689.5 Z"/></g>
<g><path style="opacity:1" fill="#8d9895" d="M 157.5,691.5 C 160.226,691.855 162.226,693.188 163.5,695.5C 161.081,694.636 159.081,693.303 157.5,691.5 Z"/></g>
<g><path style="opacity:1" fill="#9fc4bd" d="M 621.5,691.5 C 621.5,692.833 620.833,693.5 619.5,693.5C 619.833,692.5 620.5,691.833 621.5,691.5 Z"/></g>
<g><path style="opacity:1" fill="#9fc4bd" d="M 617.5,693.5 C 617.5,694.833 616.833,695.5 615.5,695.5C 615.833,694.5 616.5,693.833 617.5,693.5 Z"/></g>
<g><path style="opacity:1" fill="#9fc4bd" d="M 163.5,695.5 C 164.5,695.833 165.167,696.5 165.5,697.5C 164.167,697.5 163.5,696.833 163.5,695.5 Z"/></g>
<g><path style="opacity:1" fill="#9fc4bd" d="M 615.5,695.5 C 615.5,696.833 614.833,697.5 613.5,697.5C 613.833,696.5 614.5,695.833 615.5,695.5 Z"/></g>
<g><path style="opacity:1" fill="#8d9895" d="M 165.5,697.5 C 168.226,697.855 170.226,699.188 171.5,701.5C 169.081,700.636 167.081,699.303 165.5,697.5 Z"/></g>
<g><path style="opacity:1" fill="#9fc4bd" d="M 611.5,697.5 C 611.5,698.833 610.833,699.5 609.5,699.5C 609.833,698.5 610.5,697.833 611.5,697.5 Z"/></g>
<g><path style="opacity:1" fill="#9fc4bd" d="M 609.5,699.5 C 609.5,700.833 608.833,701.5 607.5,701.5C 607.833,700.5 608.5,699.833 609.5,699.5 Z"/></g>
<g><path style="opacity:1" fill="#8d9895" d="M 171.5,701.5 C 175.532,702.508 178.865,704.508 181.5,707.5C 177.763,705.974 174.43,703.974 171.5,701.5 Z"/></g>
<g><path style="opacity:1" fill="#9fc4bd" d="M 605.5,701.5 C 605.5,702.833 604.833,703.5 603.5,703.5C 603.833,702.5 604.5,701.833 605.5,701.5 Z"/></g>
<g><path style="opacity:1" fill="#9fc4bd" d="M 603.5,703.5 C 603.5,704.833 602.833,705.5 601.5,705.5C 601.833,704.5 602.5,703.833 603.5,703.5 Z"/></g>
<g><path style="opacity:1" fill="#9fc4bd" d="M 599.5,705.5 C 599.5,706.833 598.833,707.5 597.5,707.5C 597.833,706.5 598.5,705.833 599.5,705.5 Z"/></g>
<g><path style="opacity:1" fill="#8d9895" d="M 181.5,707.5 C 185.532,708.508 188.865,710.508 191.5,713.5C 187.763,711.974 184.43,709.974 181.5,707.5 Z"/></g>
<g><path style="opacity:1" fill="#9fc4bd" d="M 597.5,707.5 C 597.5,708.833 596.833,709.5 595.5,709.5C 595.833,708.5 596.5,707.833 597.5,707.5 Z"/></g>
<g><path style="opacity:1" fill="#9fc4bd" d="M 593.5,709.5 C 593.5,710.833 592.833,711.5 591.5,711.5C 591.833,710.5 592.5,709.833 593.5,709.5 Z"/></g>
<g><path style="opacity:1" fill="#9fc4bd" d="M 589.5,711.5 C 589.5,712.833 588.833,713.5 587.5,713.5C 587.833,712.5 588.5,711.833 589.5,711.5 Z"/></g>
<g><path style="opacity:1" fill="#9fc4bd" d="M 587.5,713.5 C 587.5,714.833 586.833,715.5 585.5,715.5C 585.833,714.5 586.5,713.833 587.5,713.5 Z"/></g>
<g><path style="opacity:1" fill="#9fc4bd" d="M 583.5,715.5 C 583.5,716.833 582.833,717.5 581.5,717.5C 581.833,716.5 582.5,715.833 583.5,715.5 Z"/></g>
<g><path style="opacity:1" fill="#9fc4bd" d="M 579.5,717.5 C 579.5,718.833 578.833,719.5 577.5,719.5C 577.833,718.5 578.5,717.833 579.5,717.5 Z"/></g>
<g><path style="opacity:1" fill="#9fc4bd" d="M 575.5,719.5 C 575.5,720.833 574.833,721.5 573.5,721.5C 573.833,720.5 574.5,719.833 575.5,719.5 Z"/></g>
<g><path style="opacity:1" fill="#9fc4bd" d="M 571.5,721.5 C 571.5,722.833 570.833,723.5 569.5,723.5C 569.833,722.5 570.5,721.833 571.5,721.5 Z"/></g>
<g><path style="opacity:1" fill="#9fc4bd" d="M 567.5,723.5 C 567.5,724.833 566.833,725.5 565.5,725.5C 565.833,724.5 566.5,723.833 567.5,723.5 Z"/></g>
<g><path style="opacity:1" fill="#9fc4bd" d="M 563.5,725.5 C 563.5,726.833 562.833,727.5 561.5,727.5C 561.833,726.5 562.5,725.833 563.5,725.5 Z"/></g>
<g><path style="opacity:1" fill="#8a9290" d="M 561.5,727.5 C 559.157,729.189 556.49,730.523 553.5,731.5C 555.477,729.047 558.144,727.714 561.5,727.5 Z"/></g>
<g><path style="opacity:1" fill="#9fc4bd" d="M 551.5,731.5 C 551.5,732.833 550.833,733.5 549.5,733.5C 549.833,732.5 550.5,731.833 551.5,731.5 Z"/></g>
<g><path style="opacity:1" fill="#8a9290" d="M 547.5,733.5 C 545.157,735.189 542.49,736.523 539.5,737.5C 541.477,735.047 544.144,733.714 547.5,733.5 Z"/></g>
<g><path style="opacity:1" fill="#8a9290" d="M 537.5,737.5 C 535.157,739.189 532.49,740.523 529.5,741.5C 531.477,739.047 534.144,737.714 537.5,737.5 Z"/></g>
<g><path style="opacity:1" fill="#868a89" d="M 191.5,713.5 C 221.238,729.201 252.238,741.867 284.5,751.5C 299.699,754.934 314.699,758.601 329.5,762.5C 329.5,762.833 329.5,763.167 329.5,763.5C 294.498,756.612 260.498,746.278 227.5,732.5C 215.061,726.618 203.061,720.285 191.5,713.5 Z"/></g>
<g><path style="opacity:1" fill="#7d7778" d="M 527.5,741.5 C 519.93,745.032 511.93,748.032 503.5,750.5C 466.952,761.369 429.619,766.369 391.5,765.5C 370.81,765.227 350.143,764.56 329.5,763.5C 329.5,763.167 329.5,762.833 329.5,762.5C 364.476,764.538 399.476,764.871 434.5,763.5C 466.232,759.15 497.232,751.817 527.5,741.5 Z"/></g>
</svg>
