<?xml version="1.0" encoding="utf-8"?>
<svg version="1.1" width="600px" height="600px" style="shape-rendering:geometricPrecision; text-rendering:geometricPrecision; image-rendering:optimizeQuality; fill-rule:evenodd; clip-rule:evenodd" xmlns="http://www.w3.org/2000/svg">
  <defs>
    <radialGradient gradientUnits="userSpaceOnUse" cx="198.258" cy="107.477" r="186.5" id="gradient-0" gradientTransform="matrix(0.534452, 1.590691, -1.766002, 0.593357, 309.134127, -324.259145)">
      <stop offset="0" style="stop-color: rgb(99.216% 38.824% 20.392%)"/>
      <stop offset="1" style="stop-color: rgb(254, 59, 99);"/>
    </radialGradient>
    <linearGradient gradientUnits="userSpaceOnUse" x1="283.12" y1="300.301" x2="283.12" y2="577.463" id="gradient-1" gradientTransform="matrix(-0.871637, 0.490152, -0.310395, -0.551977, 465.083536, 532.905641)">
      <stop offset="0" style="stop-color: rgb(0.3922% 25.882% 35.686%)"/>
      <stop offset="1" style="stop-color: rgb(4, 149, 166);"/>
    </linearGradient>
  </defs>
  <ellipse style="fill: rgb(255, 255, 255);" cx="297.075" cy="299.684" rx="272.843" ry="277.56"/>
  <g>
    <path style="opacity: 1; fill: url('#gradient-0');" d="M 420.5 51.5 C 423.192 53.141 425.158 53.662 425.5 54.5 C 460.026 73.683 489.359 99.017 513.5 130.5 C 549.566 177.182 568.732 230.182 571 289.5 C 570.5 290 570 290.5 569.5 291 C 502.64 265.511 438.307 270.844 376.5 307 C 351.833 325 327.167 343 302.5 361 C 278.703 374.188 253.37 378.522 226.5 374 C 203.448 370.242 186.615 358.076 176 337.5 C 174.648 334.28 173.814 330.947 173.5 327.5 C 172.768 322.492 173.241 322.262 173.5 317.5 C 173.767 315.035 174.434 312.701 175.5 310.5 C 179.88 301.122 187.213 295.288 197.5 293 C 203.582 292.212 207.666 291.216 213.584 292.337 C 218.591 292.682 224.847 295.043 229.816 297.405 C 233.308 298.315 234.794 300.021 240.364 302.679 C 244.062 304.845 246.779 307.055 247.5 307.5 C 249.261 306.965 250.594 305.965 251.5 304.5 C 254.716 298.966 256.049 292.966 255.5 286.5 C 255.214 266.143 249.048 247.81 237 231.5 C 231.662 225.33 226.162 219.33 220.5 213.5 C 217.467 211.984 214.8 209.984 212.5 207.5 C 187.755 192.229 160.755 185.229 131.5 186.5 C 129.55 185.623 108.652 189.62 109.5 189.5 C 79.23 197.467 53.896 213.3 33.5 237 C 32.5 237.5 31.5 238 30.5 238.5 C 33.562 214.651 41.228 192.317 53.5 171.5 C 53.992 169.181 56.662 163.842 57.5 163.5 C 105.304 82.218 176.304 35.384 270.5 23 C 323.321 17.874 373.321 27.374 420.5 51.5 Z M 425.5 54.5 C 425.5 54.524 425.499 54.548 425.499 54.572 C 425.5 54.548 425.5 54.525 425.5 54.5 Z M 513.5 130.5 C 512.021 133.046 510.521 133.046 509 130.5 C 510.521 133.046 512.021 133.046 513.5 130.5 Z"/>
  </g>
  <g>
    <path style="opacity:1" fill="#fe4e53" d="M 404.5,49.5 C 405.978,49.238 407.311,49.5713 408.5,50.5C 407.833,50.8333 407.167,51.1667 406.5,51.5C 405.287,51.2528 404.62,50.5862 404.5,49.5 Z"/>
  </g>
  <g>
    <path style="opacity:1" fill="#fe4e53" d="M 419.5,61.5 C 419.5,63.5 419.5,65.5 419.5,67.5C 416.927,67.8515 414.594,67.3515 412.5,66C 414.48,63.8356 416.813,62.3356 419.5,61.5 Z"/>
  </g>
  <g>
    <path style="opacity:1" fill="#15d0cc" d="M 560.5 380.5 C 510.24 354.891 460.24 355.724 410.5 383 C 399.228 389.941 388.228 397.274 377.5 405 C 356.712 422.779 334.045 437.779 309.5 450 C 248.031 473.446 191.697 464.779 140.5 424 C 114.419 401.673 98.919 373.506 94 339.5 C 90.292 306.431 93.884 275.325 120.5 256.5 C 123.226 254.857 144.67 215.583 176.843 227.58 C 190.832 233.988 205.235 241.619 215.5 259.5 C 185.762 255.891 162.929 266.557 147 291.5 C 132.852 329.396 141.686 360.896 173.5 386 C 201.357 406.175 232.357 413.508 266.5 408 C 288.363 404.824 308.696 397.491 327.5 386 C 344.529 373.483 361.196 360.483 377.5 347 C 430.445 307.455 488.111 298.788 550.5 321 C 556.695 323.611 562.528 326.778 568 330.5 C 568.667 334.833 568.667 339.167 568 343.5 C 565.973 355.94 563.473 368.273 560.5 380.5 Z"/>
  </g>
  <g>
    <path style="opacity:1" d="M 202.772 243.294 C 202.083 245.238 160.262 226.386 124.5 256.5 C 100.459 278.764 90.292 306.431 94 339.5 C 98.919 373.506 114.419 401.673 140.5 424 C 191.697 464.779 248.031 473.446 309.5 450 C 334.045 437.779 356.712 422.779 377.5 405 C 388.228 397.274 399.228 389.941 410.5 383 C 460.24 355.724 510.24 354.891 560.5 380.5 C 555.062 399.032 547.729 416.698 538.5 433.5 C 538.047 432.542 537.381 431.708 536.5 431 C 493.582 414.429 452.916 418.762 414.5 444 C 397.215 456.617 380.215 469.617 363.5 483 C 296.675 528.28 308.316 549.835 122.652 500.596 C 88.095 482.705 25.736 355.341 29 320.5 C 32.328 299.858 41.748 278.496 54.753 262.472 C 57.828 258.405 70.328 244.525 89.641 233.457 C 107.571 222.903 124.118 220.131 130.738 219.981 C 169.153 214.689 200.323 239.324 202.772 243.294 Z" fill="#0495a6"/>
  </g>
  <g>
    <path style="opacity: 1; fill: url('#gradient-1');" d="M 538.5 433.5 C 502.856 499.288 449.19 543.455 377.5 566 C 296.632 588.35 220.298 578.017 148.5 535 C 103.943 505.948 70.276 467.448 47.5 419.5 C 47.833 419.5 13.988 357.339 34.157 300.301 C 36.062 300.959 31.628 310.015 47.819 359.599 C 55.764 384.229 56.506 393.36 69.295 416.617 C 88.044 450.714 118.943 481.109 153.5 499 C 226.675 533.613 296.675 528.28 363.5 483 C 380.215 469.617 397.215 456.617 414.5 444 C 452.916 418.762 493.582 414.429 536.5 431 C 537.381 431.708 538.047 432.542 538.5 433.5 Z"/>
  </g>
</svg>