<?xml version="1.0" encoding="utf-8"?>
<svg version="1.1" width="600px" height="600px" style="shape-rendering:geometricPrecision; text-rendering:geometricPrecision; image-rendering:optimizeQuality; fill-rule:evenodd; clip-rule:evenodd" xmlns="http://www.w3.org/2000/svg">
  <defs>
    <radialGradient gradientUnits="userSpaceOnUse" cx="198.258" cy="107.477" r="186.5" id="gradient-0" gradientTransform="matrix(0.534452, 1.590691, -1.766002, 0.593357, 309.134127, -324.259145)">
      <stop offset="0" style="stop-color: rgb(99.216% 38.824% 20.392%)"/>
      <stop offset="1" style="stop-color: rgb(254, 59, 99);"/>
    </radialGradient>
    <linearGradient gradientUnits="userSpaceOnUse" x1="283.12" y1="300.301" x2="283.12" y2="577.463" id="gradient-1" gradientTransform="matrix(-0.871637, 0.490152, -0.310395, -0.551977, 465.083536, 532.905641)">
      <stop offset="0" style="stop-color: rgb(0.3922% 25.882% 35.686%)"/>
      <stop offset="1" style="stop-color: rgb(4, 149, 166);"/>
    </linearGradient>
  </defs>
  <ellipse style="fill: rgb(255, 255, 255);" cx="297.075" cy="299.684" rx="272.843" ry="277.56"/>
  <g>
    <path style="opacity: 1; fill: url('#gradient-0');" d="M 30.5 238.5 C 118.663 -111.412 594.155 -1.87 569.5 291 C 502.64 265.511 438.307 270.844 376.5 307 C 351.833 325 327.167 343 302.5 361 C 278.703 374.188 253.37 378.522 226.5 374 C 203.448 370.242 186.615 358.076 176 337.5 C 169.52 308.21 184.008 297.639 197.5 293 C 226.637 282.983 247.607 307.647 248.328 308.092 C 273.944 171.814 80.869 144.256 30.5 238.5 Z"/>
  </g>
  <g>
    <path style="opacity:1" fill="#15d0cc" d="M 560.5 380.5 C 510.24 354.891 460.24 355.724 410.5 383 C 399.228 389.941 388.228 397.274 377.5 405 C 356.712 422.779 334.045 437.779 309.5 450 C 248.031 473.446 191.697 464.779 140.5 424 C 114.419 401.673 98.919 373.506 94 339.5 C 90.292 306.431 82.301 269.875 108.917 251.05 C 111.643 249.407 144.67 215.583 176.843 227.58 C 190.832 233.988 205.235 241.619 215.5 259.5 C 185.762 255.891 162.929 266.557 147 291.5 C 132.852 329.396 141.686 360.896 173.5 386 C 201.357 406.175 232.357 413.508 266.5 408 C 288.363 404.824 308.696 397.491 327.5 386 C 344.529 373.483 361.196 360.483 377.5 347 C 430.445 307.455 488.111 298.788 550.5 321 C 556.695 323.611 562.776 326.987 568.248 330.709 C 567.732 353.78 563.473 368.273 560.5 380.5 Z"/>
  </g>
  <g>
    <path style="opacity:1" d="M 202.772 243.294 C 202.083 245.238 160.262 226.386 124.5 256.5 C 100.459 278.764 90.292 306.431 94 339.5 C 98.919 373.506 114.419 401.673 140.5 424 C 191.697 464.779 248.031 473.446 309.5 450 C 334.045 437.779 356.712 422.779 377.5 405 C 388.228 397.274 399.228 389.941 410.5 383 C 460.24 355.724 510.24 354.891 560.5 380.5 C 555.062 399.032 547.729 416.698 538.5 433.5 C 538.047 432.542 452.916 418.762 414.5 444 C 397.215 456.617 380.215 469.617 363.5 483 C 296.675 528.28 308.316 549.835 122.652 500.596 C 88.095 482.705 29.219 340.677 32.483 305.836 C 38.502 262.763 111.869 173.355 202.772 243.294 Z" fill="#0495a6"/>
  </g>
  <g>
    <path style="opacity: 1; fill: url('#gradient-1');" d="M 538.5 433.5 C 418.723 641.667 131.295 614.449 47.5 419.5 C 47.833 419.5 13.889 337.243 35.242 295.273 C 37.147 295.931 31.628 310.015 47.819 359.599 C 55.764 384.229 56.506 393.36 69.295 416.617 C 88.044 450.714 118.943 481.109 153.5 499 C 226.675 533.613 296.675 528.28 363.5 483 C 380.215 469.617 397.215 456.617 414.5 444 C 452.916 418.762 496.896 412.252 538.5 433.5 Z"/>
  </g>
</svg>