<?xml version="1.0" encoding="UTF-8"?>
<!DOCTYPE svg PUBLIC "-//W3C//DTD SVG 1.1//EN" "http://www.w3.org/Graphics/SVG/1.1/DTD/svg11.dtd">
<svg xmlns="http://www.w3.org/2000/svg" version="1.1" width="600px" height="600px" style="shape-rendering:geometricPrecision; text-rendering:geometricPrecision; image-rendering:optimizeQuality; fill-rule:evenodd; clip-rule:evenodd" xmlns:xlink="http://www.w3.org/1999/xlink">
<g><path style="opacity:1" fill="#fd6334" d="M 420.5,51.5 C 420.5,52.5 420.5,53.5 420.5,54.5C 421.791,54.7373 422.791,54.404 423.5,53.5C 424.492,53.3284 425.158,53.6618 425.5,54.5C 425.452,57.2919 426.785,59.1253 429.5,60C 427.482,60.5046 425.482,61.0046 423.5,61.5C 423.611,60.8826 423.944,60.3826 424.5,60C 421.741,57.6322 420.075,58.1322 419.5,61.5C 416.813,62.3356 414.48,63.8356 412.5,66C 414.594,67.3515 416.927,67.8515 419.5,67.5C 419.746,71.1506 419.746,74.6506 419.5,78C 420.045,81.8882 421.545,85.3882 424,88.5C 424.333,91.8333 424.667,95.1667 425,98.5C 428.984,99.5447 430.151,101.878 428.5,105.5C 429.066,107.697 429.732,109.864 430.5,112C 429.201,112.611 427.701,113.777 426,115.5C 424.983,113.624 424.149,111.624 423.5,109.5C 421.625,108.164 420.292,108.664 419.5,111C 417.19,111.497 414.857,111.663 412.5,111.5C 412.328,109.508 412.995,107.842 414.5,106.5C 411.232,105.513 407.898,105.18 404.5,105.5C 404.665,108.518 404.498,111.518 404,114.5C 402.989,115.337 401.822,115.67 400.5,115.5C 398.337,121.172 394.504,125.505 389,128.5C 388.517,129.448 388.351,130.448 388.5,131.5C 385.172,131.57 382.172,131.904 379.5,132.5C 378.833,137.167 378.167,141.833 377.5,146.5C 375.39,146.294 373.39,147.127 371.5,149C 366.833,149.333 362.167,149.667 357.5,150C 356.833,152.333 356.167,154.667 355.5,157C 350.833,157.333 346.167,157.667 341.5,158C 340.707,161.411 340.207,164.911 340,168.5C 335.251,169.305 330.418,169.805 325.5,170C 324.833,173 324.167,176 323.5,179C 313.5,180 303.5,181 293.5,182C 292.833,184.333 292.167,186.667 291.5,189C 281.172,189.5 270.839,189.666 260.5,189.5C 260.5,191.5 260.5,193.5 260.5,195.5C 247.167,195.5 233.833,195.5 220.5,195.5C 220.5,193.5 220.5,191.5 220.5,189.5C 212.58,189.185 204.747,189.518 197,190.5C 196.86,192.521 196.693,194.355 196.5,196C 199.211,197.107 201.711,198.607 204,200.5C 205,200.167 206,199.833 207,199.5C 208.69,202.024 210.857,204.024 213.5,205.5C 213.137,206.183 212.804,206.85 212.5,207.5C 187.755,192.229 160.755,185.229 131.5,186.5C 129.358,185.537 127.358,185.87 125.5,187.5C 122.794,187.575 120.127,187.908 117.5,188.5C 116.903,187.861 116.07,187.528 115,187.5C 113.624,187.684 112.791,188.351 112.5,189.5C 111.5,189.5 110.5,189.5 109.5,189.5C 107.25,189.819 105.25,189.319 103.5,188C 108.246,187.364 112.58,185.864 116.5,183.5C 116.784,180.223 116.451,177.057 115.5,174C 110.833,173.667 106.167,173.333 101.5,173C 100.663,171.989 100.33,170.822 100.5,169.5C 95.4739,168.993 90.4739,168.326 85.5,167.5C 85.67,166.178 85.3366,165.011 84.5,164C 79.3917,163.432 74.8917,162.932 71,162.5C 67.6927,165.593 65.8594,164.926 65.5,160.5C 64.448,160.351 63.448,160.517 62.5,161C 61.6998,164.02 60.0331,164.854 57.5,163.5C 105.304,82.2175 176.304,35.3842 270.5,23C 323.321,17.8741 373.321,27.3741 420.5,51.5 Z"/></g>
<g><path style="opacity:1" fill="#fe4e53" d="M 404.5,49.5 C 405.978,49.238 407.311,49.5713 408.5,50.5C 407.833,50.8333 407.167,51.1667 406.5,51.5C 405.287,51.2528 404.62,50.5862 404.5,49.5 Z"/></g>
<g><path style="opacity:1" fill="#fe4e53" d="M 420.5,51.5 C 421.71,51.9321 422.71,52.5987 423.5,53.5C 422.791,54.404 421.791,54.7373 420.5,54.5C 420.5,53.5 420.5,52.5 420.5,51.5 Z"/></g>
<g><path style="opacity:1" fill="#fe4d54" d="M 425.5,54.5 C 460.026,73.6833 489.359,99.0167 513.5,130.5C 512.021,133.046 510.521,133.046 509,130.5C 509.082,138.835 509.582,147.169 510.5,155.5C 509.103,163 508.27,170.667 508,178.5C 505.619,179.435 503.119,179.768 500.5,179.5C 500.5,182.167 500.5,184.833 500.5,187.5C 501.833,187.5 503.167,187.5 504.5,187.5C 504.143,192.933 503.143,198.266 501.5,203.5C 500.52,200.914 500.187,198.247 500.5,195.5C 484.5,195.5 468.5,195.5 452.5,195.5C 452.5,198.167 452.5,200.833 452.5,203.5C 448.167,203.5 443.833,203.5 439.5,203.5C 439.5,206.167 439.5,208.833 439.5,211.5C 438.5,211.5 437.5,211.5 436.5,211.5C 437.022,215.756 435.856,219.423 433,222.5C 432.833,221 432.667,219.5 432.5,218C 432.629,216.019 433.296,214.353 434.5,213C 433.207,212.51 431.873,212.343 430.5,212.5C 430.819,214.75 430.319,216.75 429,218.5C 428.195,216.099 427.362,216.266 426.5,219C 428.487,221.47 428.987,224.303 428,227.5C 427.667,227.167 427.333,226.833 427,226.5C 424.993,227.669 422.827,228.335 420.5,228.5C 420.263,231.212 420.263,233.712 420.5,236C 417,237.5 414.5,240 413,243.5C 412.333,242.833 411.667,242.167 411,241.5C 409.103,243.016 406.936,243.683 404.5,243.5C 404.797,246.724 404.13,249.724 402.5,252.5C 398.053,254.558 393.72,256.891 389.5,259.5C 385.98,265.475 380.647,268.309 373.5,268C 369.243,271.265 364.743,274.098 360,276.5C 358.853,275.542 357.853,275.875 357,277.5C 356.667,276.833 356.333,276.167 356,275.5C 354.214,276.912 352.714,278.579 351.5,280.5C 345.156,281.638 338.823,282.805 332.5,284C 336.045,284.717 339.545,284.55 343,283.5C 344.722,283.611 344.888,284.111 343.5,285C 342.552,285.483 341.552,285.649 340.5,285.5C 340.5,286.5 340.5,287.5 340.5,288.5C 337.833,288.5 335.167,288.5 332.5,288.5C 332.649,289.552 332.483,290.552 332,291.5C 330.333,291.167 328.667,290.833 327,290.5C 321.283,294.45 315.116,295.45 308.5,293.5C 308.5,294.833 308.5,296.167 308.5,297.5C 298.161,297.334 287.828,297.5 277.5,298C 276.421,298.956 275.255,299.789 274,300.5C 272.333,300.167 270.667,299.833 269,299.5C 266.867,301.138 264.367,301.971 261.5,302C 260.751,303.734 260.251,305.567 260,307.5C 258.983,305.624 258.149,303.624 257.5,301.5C 256.065,302.824 255.065,304.49 254.5,306.5C 253.482,305.807 252.482,305.141 251.5,304.5C 254.716,298.966 256.049,292.966 255.5,286.5C 255.214,266.143 249.048,247.81 237,231.5C 231.662,225.33 226.162,219.33 220.5,213.5C 217.467,211.984 214.8,209.984 212.5,207.5C 212.804,206.85 213.137,206.183 213.5,205.5C 210.857,204.024 208.69,202.024 207,199.5C 206,199.833 205,200.167 204,200.5C 201.711,198.607 199.211,197.107 196.5,196C 196.693,194.355 196.86,192.521 197,190.5C 204.747,189.518 212.58,189.185 220.5,189.5C 220.5,191.5 220.5,193.5 220.5,195.5C 233.833,195.5 247.167,195.5 260.5,195.5C 260.5,193.5 260.5,191.5 260.5,189.5C 270.839,189.666 281.172,189.5 291.5,189C 292.167,186.667 292.833,184.333 293.5,182C 303.5,181 313.5,180 323.5,179C 324.167,176 324.833,173 325.5,170C 330.418,169.805 335.251,169.305 340,168.5C 340.207,164.911 340.707,161.411 341.5,158C 346.167,157.667 350.833,157.333 355.5,157C 356.167,154.667 356.833,152.333 357.5,150C 362.167,149.667 366.833,149.333 371.5,149C 373.39,147.127 375.39,146.294 377.5,146.5C 378.167,141.833 378.833,137.167 379.5,132.5C 382.172,131.904 385.172,131.57 388.5,131.5C 388.351,130.448 388.517,129.448 389,128.5C 394.504,125.505 398.337,121.172 400.5,115.5C 401.822,115.67 402.989,115.337 404,114.5C 404.498,111.518 404.665,108.518 404.5,105.5C 407.898,105.18 411.232,105.513 414.5,106.5C 412.995,107.842 412.328,109.508 412.5,111.5C 414.857,111.663 417.19,111.497 419.5,111C 420.292,108.664 421.625,108.164 423.5,109.5C 424.149,111.624 424.983,113.624 426,115.5C 427.701,113.777 429.201,112.611 430.5,112C 429.732,109.864 429.066,107.697 428.5,105.5C 430.151,101.878 428.984,99.5447 425,98.5C 424.667,95.1667 424.333,91.8333 424,88.5C 421.545,85.3882 420.045,81.8882 419.5,78C 419.746,74.6506 419.746,71.1506 419.5,67.5C 421.042,66.6993 422.708,66.366 424.5,66.5C 424.371,64.7839 424.038,63.1172 423.5,61.5C 425.482,61.0046 427.482,60.5046 429.5,60C 426.785,59.1253 425.452,57.2919 425.5,54.5 Z"/></g>
<g><path style="opacity:1" fill="#fe4e53" d="M 423.5,61.5 C 422.036,60.5946 420.702,60.5946 419.5,61.5C 420.075,58.1322 421.741,57.6322 424.5,60C 423.944,60.3826 423.611,60.8826 423.5,61.5 Z"/></g>
<g><path style="opacity:1" fill="#fc6433" d="M 423.5,61.5 C 424.038,63.1172 424.371,64.7839 424.5,66.5C 422.708,66.366 421.042,66.6993 419.5,67.5C 419.5,65.5 419.5,63.5 419.5,61.5C 420.702,60.5946 422.036,60.5946 423.5,61.5 Z"/></g>
<g><path style="opacity:1" fill="#fe4e53" d="M 419.5,61.5 C 419.5,63.5 419.5,65.5 419.5,67.5C 416.927,67.8515 414.594,67.3515 412.5,66C 414.48,63.8356 416.813,62.3356 419.5,61.5 Z"/></g>
<g><path style="opacity:1" fill="#fe3b63" d="M 513.5,130.5 C 549.566,177.182 568.732,230.182 571,289.5C 570.5,290 570,290.5 569.5,291C 502.64,265.511 438.307,270.844 376.5,307C 351.833,325 327.167,343 302.5,361C 278.703,374.188 253.37,378.522 226.5,374C 203.448,370.242 186.615,358.076 176,337.5C 174.648,334.28 173.814,330.947 173.5,327.5C 175.162,325.776 176.162,323.609 176.5,321C 176.293,319.05 175.293,317.884 173.5,317.5C 173.767,315.035 174.434,312.701 175.5,310.5C 176.148,312.498 176.981,314.498 178,316.5C 179.207,312.905 180.541,309.238 182,305.5C 183.785,304.76 185.618,304.093 187.5,303.5C 189.871,300.794 192.537,298.461 195.5,296.5C 196.5,296.833 197.167,297.5 197.5,298.5C 204.295,299.252 210.961,299.585 217.5,299.5C 217.36,301.124 218.027,302.29 219.5,303C 222.099,303.769 224.599,303.602 227,302.5C 229.011,305.092 230.844,304.925 232.5,302C 232.022,300.697 231.355,299.531 230.5,298.5C 233.992,299.41 236.992,301.076 239.5,303.5C 238.233,302.913 237.233,302.913 236.5,303.5C 238.044,306.041 239.377,306.041 240.5,303.5C 242.421,304.363 244.421,305.029 246.5,305.5C 246.369,306.376 246.702,307.043 247.5,307.5C 249.261,306.965 250.594,305.965 251.5,304.5C 252.482,305.141 253.482,305.807 254.5,306.5C 255.065,304.49 256.065,302.824 257.5,301.5C 258.149,303.624 258.983,305.624 260,307.5C 260.251,305.567 260.751,303.734 261.5,302C 264.367,301.971 266.867,301.138 269,299.5C 270.667,299.833 272.333,300.167 274,300.5C 275.255,299.789 276.421,298.956 277.5,298C 287.828,297.5 298.161,297.334 308.5,297.5C 308.5,296.167 308.5,294.833 308.5,293.5C 315.116,295.45 321.283,294.45 327,290.5C 328.667,290.833 330.333,291.167 332,291.5C 332.483,290.552 332.649,289.552 332.5,288.5C 335.167,288.5 337.833,288.5 340.5,288.5C 340.5,287.5 340.5,286.5 340.5,285.5C 341.552,285.649 342.552,285.483 343.5,285C 344.888,284.111 344.722,283.611 343,283.5C 339.545,284.55 336.045,284.717 332.5,284C 338.823,282.805 345.156,281.638 351.5,280.5C 352.714,278.579 354.214,276.912 356,275.5C 356.333,276.167 356.667,276.833 357,277.5C 357.853,275.875 358.853,275.542 360,276.5C 364.743,274.098 369.243,271.265 373.5,268C 380.647,268.309 385.98,265.475 389.5,259.5C 393.72,256.891 398.053,254.558 402.5,252.5C 404.13,249.724 404.797,246.724 404.5,243.5C 406.936,243.683 409.103,243.016 411,241.5C 411.667,242.167 412.333,242.833 413,243.5C 414.5,240 417,237.5 420.5,236C 420.263,233.712 420.263,231.212 420.5,228.5C 422.827,228.335 424.993,227.669 427,226.5C 427.333,226.833 427.667,227.167 428,227.5C 428.987,224.303 428.487,221.47 426.5,219C 427.362,216.266 428.195,216.099 429,218.5C 430.319,216.75 430.819,214.75 430.5,212.5C 431.873,212.343 433.207,212.51 434.5,213C 433.296,214.353 432.629,216.019 432.5,218C 432.667,219.5 432.833,221 433,222.5C 435.856,219.423 437.022,215.756 436.5,211.5C 437.5,211.5 438.5,211.5 439.5,211.5C 439.5,208.833 439.5,206.167 439.5,203.5C 443.833,203.5 448.167,203.5 452.5,203.5C 452.5,200.833 452.5,198.167 452.5,195.5C 468.5,195.5 484.5,195.5 500.5,195.5C 500.187,198.247 500.52,200.914 501.5,203.5C 503.143,198.266 504.143,192.933 504.5,187.5C 503.167,187.5 501.833,187.5 500.5,187.5C 500.5,184.833 500.5,182.167 500.5,179.5C 503.119,179.768 505.619,179.435 508,178.5C 508.27,170.667 509.103,163 510.5,155.5C 509.582,147.169 509.082,138.835 509,130.5C 510.521,133.046 512.021,133.046 513.5,130.5 Z"/></g>
<g><path style="opacity:1" fill="#fe4e53" d="M 66.5,152.5 C 68.6157,154.088 68.949,156.088 67.5,158.5C 67.2413,156.458 66.908,154.458 66.5,152.5 Z"/></g>
<g><path style="opacity:1" fill="#fe4e53" d="M 109.5,189.5 C 79.2296,197.467 53.8963,213.3 33.5,237C 32.5,237.5 31.5,238 30.5,238.5C 33.5615,214.651 41.2281,192.317 53.5,171.5C 57.263,170.762 58.263,168.762 56.5,165.5C 56.3284,164.508 56.6618,163.842 57.5,163.5C 60.0331,164.854 61.6998,164.02 62.5,161C 63.448,160.517 64.448,160.351 65.5,160.5C 65.8594,164.926 67.6927,165.593 71,162.5C 74.8917,162.932 79.3917,163.432 84.5,164C 85.3366,165.011 85.67,166.178 85.5,167.5C 90.4739,168.326 95.4739,168.993 100.5,169.5C 100.33,170.822 100.663,171.989 101.5,173C 106.167,173.333 110.833,173.667 115.5,174C 116.451,177.057 116.784,180.223 116.5,183.5C 112.58,185.864 108.246,187.364 103.5,188C 105.25,189.319 107.25,189.819 109.5,189.5 Z"/></g>
<g><path style="opacity:1" fill="#fc6433" d="M 56.5,165.5 C 58.263,168.762 57.263,170.762 53.5,171.5C 53.9925,169.181 54.9925,167.181 56.5,165.5 Z"/></g>
<g><path style="opacity:1" fill="#fe4e53" d="M 132.5,178.5 C 140.362,177.318 148.362,177.484 156.5,179C 157.815,180.395 157.481,181.395 155.5,182C 147.852,183.541 140.185,183.708 132.5,182.5C 153.802,180.536 153.802,179.203 132.5,178.5 Z"/></g>
<g><path style="opacity:1" fill="#fe4e53" d="M 169.5,180.5 C 171.693,179.203 174.027,179.203 176.5,180.5C 174.141,181.714 171.808,181.714 169.5,180.5 Z"/></g>
<g><path style="opacity:1" fill="#fe4e53" d="M 162.5,182.5 C 163.627,183.122 164.627,183.955 165.5,185C 163.421,185.808 161.421,185.641 159.5,184.5C 160.602,183.824 161.602,183.158 162.5,182.5 Z"/></g>
<g><path style="opacity:1" fill="#fe4e53" d="M 167.5,184.5 C 172.982,183.595 177.649,185.095 181.5,189C 179.765,190.985 178.432,190.651 177.5,188C 173.789,187.825 170.122,187.325 166.5,186.5C 166.863,185.817 167.196,185.15 167.5,184.5 Z"/></g>
<g><path style="opacity:1" fill="#fe4e53" d="M 131.5,186.5 C 129.735,187.461 127.735,187.795 125.5,187.5C 127.358,185.87 129.358,185.537 131.5,186.5 Z"/></g>
<g><path style="opacity:1" fill="#fe4e53" d="M 117.5,188.5 C 115.784,188.629 114.117,188.962 112.5,189.5C 112.791,188.351 113.624,187.684 115,187.5C 116.07,187.528 116.903,187.861 117.5,188.5 Z"/></g>
<g><path style="opacity:1" fill="#fc6433" d="M 204.5,195.5 C 206.966,194.366 209.633,194.199 212.5,195C 213.93,196.88 213.596,198.38 211.5,199.5C 208.976,198.408 206.643,197.074 204.5,195.5 Z"/></g>
<g><path style="opacity:1" fill="#fc6433" d="M 220.5,213.5 C 222.028,211.016 223.694,211.182 225.5,214C 223.803,214.384 222.137,214.218 220.5,213.5 Z"/></g>
<g><path style="opacity:1" fill="#fc6433" d="M 226.5,216.5 C 228.085,217.002 228.585,218.002 228,219.5C 226.961,218.756 226.461,217.756 226.5,216.5 Z"/></g>
<g><path style="opacity:1" fill="#15d0cc" d="M 560.5,380.5 C 510.24,354.891 460.24,355.724 410.5,383C 399.228,389.941 388.228,397.274 377.5,405C 356.712,422.779 334.045,437.779 309.5,450C 248.031,473.446 191.697,464.779 140.5,424C 114.419,401.673 98.9192,373.506 94,339.5C 90.2924,306.431 100.459,278.764 124.5,256.5C 123.3,255.708 121.967,255.708 120.5,256.5C 123.226,254.857 126.059,252.524 129,249.5C 129.311,247.444 129.811,245.444 130.5,243.5C 128.051,239.53 124.551,237.196 120,236.5C 113.38,236.65 107.046,237.65 101,239.5C 98.589,237.422 95.9223,235.755 93,234.5C 90.5196,234.952 90.0196,236.119 91.5,238C 90.9777,238.95 90.311,239.784 89.5,240.5C 86.373,240.98 83.5396,241.98 81,243.5C 79.1598,242.167 78.6598,242.334 79.5,244C 76.6177,245.52 73.6177,246.853 70.5,248C 70.0572,252.223 67.7238,254.056 63.5,253.5C 69.6258,246.703 76.6258,241.036 84.5,236.5C 84.5,236.833 84.5,237.167 84.5,237.5C 85.5,237.167 86.1667,236.5 86.5,235.5C 115.66,217.836 146.327,215.003 178.5,227C 192.489,233.408 204.323,242.575 214,254.5C 215.009,256.025 215.509,257.692 215.5,259.5C 185.762,255.891 162.929,266.557 147,291.5C 132.852,329.396 141.686,360.896 173.5,386C 201.357,406.175 232.357,413.508 266.5,408C 288.363,404.824 308.696,397.491 327.5,386C 344.529,373.483 361.196,360.483 377.5,347C 430.445,307.455 488.111,298.788 550.5,321C 556.695,323.611 562.528,326.778 568,330.5C 568.667,334.833 568.667,339.167 568,343.5C 565.973,355.94 563.473,368.273 560.5,380.5 Z"/></g>
<g><path style="opacity:1" fill="#0495a6" d="M 99.5,230.5 C 100.773,231.077 100.773,231.743 99.5,232.5C 98.537,232.03 98.537,231.363 99.5,230.5 Z"/></g>
<g><path style="opacity:1" fill="#0495a6" d="M 106.5,231.5 C 108.176,232.183 108.843,233.517 108.5,235.5C 107.127,235.657 105.793,235.49 104.5,235C 103.952,233.404 104.618,232.237 106.5,231.5 Z"/></g>
<g><path style="opacity:1" fill="#0495a6" d="M 120.5,256.5 C 121.967,255.708 123.3,255.708 124.5,256.5C 100.459,278.764 90.2924,306.431 94,339.5C 98.9192,373.506 114.419,401.673 140.5,424C 191.697,464.779 248.031,473.446 309.5,450C 334.045,437.779 356.712,422.779 377.5,405C 388.228,397.274 399.228,389.941 410.5,383C 460.24,355.724 510.24,354.891 560.5,380.5C 555.062,399.032 547.729,416.698 538.5,433.5C 538.047,432.542 537.381,431.708 536.5,431C 493.582,414.429 452.916,418.762 414.5,444C 397.215,456.617 380.215,469.617 363.5,483C 296.675,528.28 226.675,533.613 153.5,499C 118.943,481.109 91.4427,455.609 71,422.5C 69.647,421.315 68.4803,419.981 67.5,418.5C 66.914,418.709 66.414,419.043 66,419.5C 65.6667,418.167 65.3333,416.833 65,415.5C 63.9505,416.517 62.7839,416.684 61.5,416C 60.4045,414.325 58.9045,413.158 57,412.5C 56.3828,413.449 56.5494,414.282 57.5,415C 56.0267,415.71 55.3601,416.876 55.5,418.5C 54.5,418.5 53.5,418.5 52.5,418.5C 52.6495,419.552 52.4828,420.552 52,421.5C 51.8295,419.285 51.1628,417.285 50,415.5C 48.8118,416.563 48.3118,417.897 48.5,419.5C 48.1667,419.5 47.8333,419.5 47.5,419.5C 31.9024,388.341 25.7357,355.341 29,320.5C 32.3278,299.858 40.4945,281.524 53.5,265.5C 55.5311,264.461 56.8645,262.795 57.5,260.5C 58.7573,257.573 60.7573,255.239 63.5,253.5C 67.7238,254.056 70.0572,252.223 70.5,248C 73.6177,246.853 76.6177,245.52 79.5,244C 78.6598,242.334 79.1598,242.167 81,243.5C 83.5396,241.98 86.373,240.98 89.5,240.5C 90.311,239.784 90.9777,238.95 91.5,238C 90.0196,236.119 90.5196,234.952 93,234.5C 95.9223,235.755 98.589,237.422 101,239.5C 107.046,237.65 113.38,236.65 120,236.5C 124.551,237.196 128.051,239.53 130.5,243.5C 129.811,245.444 129.311,247.444 129,249.5C 126.059,252.524 123.226,254.857 120.5,256.5 Z"/></g>
<g><path style="opacity:1" fill="#0495a6" d="M 86.5,235.5 C 86.1667,236.5 85.5,237.167 84.5,237.5C 84.5,237.167 84.5,236.833 84.5,236.5C 84.8417,235.662 85.5084,235.328 86.5,235.5 Z"/></g>
<g><path style="opacity:1" fill="#16d1cc" d="M 92.5,236.5 C 94.1874,237.078 95.8541,238.245 97.5,240C 95.3863,241.518 93.053,241.851 90.5,241C 92.1066,239.951 92.7733,238.451 92.5,236.5 Z"/></g>
<g><path style="opacity:1" fill="#0495a6" d="M 132.5,236.5 C 133.216,238.556 133.883,240.723 134.5,243C 133.5,243.667 132.5,243.667 131.5,243C 132.423,240.959 132.756,238.792 132.5,236.5 Z"/></g>
<g><path style="opacity:1" fill="#0495a6" d="M 84.5,237.5 C 84.4894,239.686 83.4894,240.519 81.5,240C 82.3734,238.955 83.3734,238.122 84.5,237.5 Z"/></g>
<g><path style="opacity:1" fill="#0495a6" d="M 132.5,244.5 C 134.337,244.639 134.67,245.306 133.5,246.5C 132.702,246.043 132.369,245.376 132.5,244.5 Z"/></g>
<g><path style="opacity:1" fill="#16d1cc" d="M 120.5,256.5 C 120.26,259.293 119.26,259.793 117.5,258C 118.244,256.961 119.244,256.461 120.5,256.5 Z"/></g>
<g><path style="opacity:1" fill="#14cac8" d="M 57.5,260.5 C 56.8645,262.795 55.5311,264.461 53.5,265.5C 54.0798,263.251 55.4131,261.585 57.5,260.5 Z"/></g>
<g><path style="opacity:1" fill="#fe4c55" d="M 215.5,293.5 C 214.342,294.95 214.842,295.95 217,296.5C 218.552,296.989 219.719,296.322 220.5,294.5C 223.443,294.98 226.11,295.98 228.5,297.5C 226.319,297.914 223.985,298.081 221.5,298C 223.203,298.745 224.87,299.579 226.5,300.5C 227.867,299.775 229.2,299.108 230.5,298.5C 231.355,299.531 232.022,300.697 232.5,302C 230.844,304.925 229.011,305.092 227,302.5C 224.599,303.602 222.099,303.769 219.5,303C 218.027,302.29 217.36,301.124 217.5,299.5C 210.961,299.585 204.295,299.252 197.5,298.5C 197.167,297.5 196.5,296.833 195.5,296.5C 192.537,298.461 189.871,300.794 187.5,303.5C 185.618,304.093 183.785,304.76 182,305.5C 180.541,309.238 179.207,312.905 178,316.5C 176.981,314.498 176.148,312.498 175.5,310.5C 179.88,301.122 187.213,295.288 197.5,293C 203.582,292.212 209.582,292.379 215.5,293.5 Z"/></g>
<g><path style="opacity:1" fill="#fd3b63" d="M 215.5,293.5 C 217.292,293.366 218.958,293.699 220.5,294.5C 219.719,296.322 218.552,296.989 217,296.5C 214.842,295.95 214.342,294.95 215.5,293.5 Z"/></g>
<g><path style="opacity:1" fill="#fd3b63" d="M 228.5,297.5 C 229.492,297.328 230.158,297.662 230.5,298.5C 229.2,299.108 227.867,299.775 226.5,300.5C 224.87,299.579 223.203,298.745 221.5,298C 223.985,298.081 226.319,297.914 228.5,297.5 Z"/></g>
<g><path style="opacity:1" fill="#fe4e53" d="M 195.5,300.5 C 198.284,302.553 197.951,304.219 194.5,305.5C 193.316,303.533 193.649,301.866 195.5,300.5 Z"/></g>
<g><path style="opacity:1" fill="#fe4e53" d="M 239.5,303.5 C 239.833,303.5 240.167,303.5 240.5,303.5C 239.377,306.041 238.044,306.041 236.5,303.5C 237.233,302.913 238.233,302.913 239.5,303.5 Z"/></g>
<g><path style="opacity:1" fill="#fe4e53" d="M 251.5,304.5 C 250.594,305.965 249.261,306.965 247.5,307.5C 246.702,307.043 246.369,306.376 246.5,305.5C 248.216,305.371 249.883,305.038 251.5,304.5 Z"/></g>
<g><path style="opacity:1" fill="#fe4e53" d="M 173.5,317.5 C 175.293,317.884 176.293,319.05 176.5,321C 176.162,323.609 175.162,325.776 173.5,327.5C 172.167,324.167 172.167,320.833 173.5,317.5 Z"/></g>
<g><path style="opacity:1" fill="#01425b" d="M 538.5,433.5 C 502.856,499.288 449.19,543.455 377.5,566C 296.632,588.35 220.298,578.017 148.5,535C 103.943,505.948 70.2759,467.448 47.5,419.5C 47.8333,419.5 48.1667,419.5 48.5,419.5C 48.3118,417.897 48.8118,416.563 50,415.5C 51.1628,417.285 51.8295,419.285 52,421.5C 52.4828,420.552 52.6495,419.552 52.5,418.5C 53.5,418.5 54.5,418.5 55.5,418.5C 55.3601,416.876 56.0267,415.71 57.5,415C 56.5494,414.282 56.3828,413.449 57,412.5C 58.9045,413.158 60.4045,414.325 61.5,416C 62.7839,416.684 63.9505,416.517 65,415.5C 65.3333,416.833 65.6667,418.167 66,419.5C 66.414,419.043 66.914,418.709 67.5,418.5C 68.4803,419.981 69.647,421.315 71,422.5C 91.4427,455.609 118.943,481.109 153.5,499C 226.675,533.613 296.675,528.28 363.5,483C 380.215,469.617 397.215,456.617 414.5,444C 452.916,418.762 493.582,414.429 536.5,431C 537.381,431.708 538.047,432.542 538.5,433.5 Z"/></g>
<g><path style="opacity:1" fill="#0495a6" d="M 48.5,419.5 C 50.0281,419.517 50.5281,420.184 50,421.5C 49.2828,420.956 48.7828,420.289 48.5,419.5 Z"/></g>
</svg>
