<?xml version="1.0" encoding="UTF-8"?>
<svg version="1.1" viewbox="0 0 50 50" width="780px" height="780px" style="shape-rendering:geometricPrecision; text-rendering:geometricPrecision; image-rendering:optimizeQuality; fill-rule:evenodd; clip-rule:evenodd" xmlns="http://www.w3.org/2000/svg">
                <g>
                    <path style="opacity:1" fill="#303247" d="M 352.5 13.5 C 378.502 13.333 404.502 13.5 430.5 14 C 440.509 15.245 450.509 16.579 460.5 18 C 474.333 21.698 488.333 25.031 502.5 28 C 535.94 39.588 567.94 54.255 598.5 72 C 700.443 139.757 757.943 233.923 771 354.5 C 777.735 436.406 761.068 512.406 721 582.5 C 713.519 591.977 706.852 601.977 701 612.5 C 682.35 635.159 662.183 656.659 640.5 677 C 636.167 680 622.833 690.667 620.5 693 C 609.167 700.333 597.833 707.667 586.5 715 C 573.103 721.679 559.77 728.345 546.5 735 C 531.99 740.832 517.323 746.165 502.5 751 C 492.169 752.718 482.169 755.384 472.5 759 C 468.167 759.333 442.833 763.333 434.5 765 C 399.003 766.177 363.669 765.511 328.5 763 C 314.01 759.233 299.344 755.9 284.5 753 C 252.74 743.308 222.074 730.641 192.5 715 C 191.5 714 178.167 706 172.5 703 C 163.167 696.333 153.833 689.667 144.5 683 C 75.287 624.603 31.12 551.77 12 464.5 C 10.667 453.833 9.333 443.167 8 432.5 C 7.333 403.833 7.333 375.167 8 346.5 C 15.432 284.044 36.765 226.711 72 174.5 C 78.798 167.044 84.798 159.044 90 150.5 C 94.776 146.399 98.776 141.732 102 136.5 C 128.729 109.058 158.229 85.558 190.5 66 C 219.002 51.124 248.335 38.457 278.5 28 C 283.507 27.614 288.174 26.281 292.5 24 C 298.976 24.215 304.976 22.882 310.5 20 C 314.833 19.667 319.167 19.333 323.5 19 C 326.5 18 329.5 17 332.5 16 C 338.833 15.667 345.167 15.333 351.5 15 C 352.056 14.617 352.389 14.117 352.5 13.5 Z" />
                </g>
                <g>
                    <path style="opacity:1" fill="#fefefe" d="M 743.5 408.5 C 742.883 418.967 741.55 429.3 739.5 439.5 C 686.515 463.545 656.713 477.363 640.081 468.066 C 620.302 460.316 594.522 428.988 577.301 441.071 C 571.658 447.024 546.234 469.265 525.791 484.21 C 486.435 509.712 356.553 511.287 311.242 498.452 C 277.943 488.806 226.084 475.875 210.383 445.187 C 207.605 438.077 140.497 463.011 127.274 480.113 C 88.783 520.912 89.009 462.632 38.5 438.5 C 36.33 428.319 34.997 417.985 34.5 407.5 C 48.423 420.715 65.046 304.837 84.248 251.421 C 130.987 143.037 228.045 77.868 344.306 55.919 C 443.177 42.546 621.748 115.226 634.807 168.178 C 715.748 245.419 736.325 414.481 743.5 408.5 Z" />
                </g>
                <g>
                    <path style="opacity:1" fill="#fcaa68" d="M 743.5,408.5 C 736.325,414.481 728.658,419.981 720.5,425C 712.253,429.138 703.587,431.971 694.5,433.5C 713.441,323.074 682.441,229.241 601.5,152C 526.371,86.6267 439.371,60.6267 340.5,74C 224.239,95.949 142.739,161.116 96,269.5C 76.7975,322.916 73.4641,377.25 86,432.5C 85.4387,433.022 84.772,433.355 84,433.5C 64.9226,429.382 48.4226,420.715 34.5,407.5C 31.5141,281.65 80.1807,181.483 180.5,107C 288.524,34.8114 403.524,21.4781 525.5,67C 629.884,111.903 698.717,188.736 732,297.5C 741.506,333.904 745.339,370.904 743.5,408.5 Z" />
                </g>
                <g>
                    <path style="opacity:1" fill="#57d3cb" d="M 554.406 194.954 C 552.802 195.741 548.423 208.894 548.694 210.774 C 545.669 215.619 537.529 213.077 531.887 214.565 C 493.887 214.898 471.113 214.28 433.113 214.613 C 423.956 215.437 420.978 217.415 418.468 226.258 C 418.135 285.258 412.091 341.403 411.758 400.403 C 406.017 412.543 395.898 425.559 383.306 420.419 C 376.478 415.093 363.962 409.997 364.79 401.323 C 365.139 347.014 362.618 296.562 362.935 251.871 C 363.807 242.736 368.017 235.022 364.145 226.823 C 360.881 222.941 352.909 219.822 347.839 219.371 C 309.506 219.038 280.688 215.849 242.355 215.516 C 235.989 213.813 228.634 200.464 226 194.5 C 225.329 193.748 224.496 193.414 223.5 193.5 C 223.09 184.75 223.59 176.084 225 167.5 C 227.106 161.728 230.939 157.562 236.5 155 C 287.976 153.852 339.476 153.352 391 153.5 C 439.833 153.667 488.667 153.833 537.5 154 C 545.893 156.059 551.393 161.225 554 169.5 C 554.5 177.159 554.572 187.28 554.406 194.954 Z" />
                </g>
                <g>
                    <path style="opacity:1" fill="#188f9b" d="M 223.5 193.5 C 224.496 193.414 225.329 193.748 226 194.5 C 228.634 200.464 233.134 204.297 239.5 206 C 277.833 206.333 316.167 206.667 354.5 207 C 359.57 207.451 363.736 209.618 367 213.5 C 370.872 221.699 372.372 230.365 371.5 239.5 C 371.183 284.191 370.849 333.691 370.5 388 C 369.672 396.674 372.672 403.674 379.5 409 C 392.092 414.14 401.259 410.64 407 398.5 C 407.333 339.5 407.667 280.5 408 221.5 C 410.51 212.657 416.343 207.824 425.5 207 C 463.5 206.667 501.5 206.333 539.5 206 C 545.142 204.512 551.363 197.569 554.388 192.724 C 555.368 200.216 554.202 216.763 553.651 217.877 C 552.112 224.259 549.294 228.715 543.5 232 C 527.557 233.438 511.557 233.938 495.5 233.5 C 475.007 232.503 454.34 232.169 433.5 232.5 C 433.5 234.5 433.5 236.5 433.5 238.5 C 433.966 264.401 434.299 292.068 434.5 321.5 C 434.49 348.51 433.99 375.51 433 402.5 C 423.291 430.611 403.791 441.444 374.5 435 C 360.549 429.384 351.049 419.551 346 405.5 C 344.533 348.192 344.033 290.859 344.5 233.5 C 308.832 233.667 273.165 233.5 237.5 233 C 231.516 231.174 227.349 227.34 225 221.5 C 223.583 212.248 223.083 202.915 223.5 193.5 Z" />
                </g>
                <g />
                <g>
                    <path style="opacity:1" fill="#57d3cb" d="M 311.5 339.5 C 287.415 324.55 266.915 328.55 250 351.5 C 244.675 360.8 241.842 370.8 241.5 381.5 C 240.924 390.592 242.257 399.258 245.5 407.5 C 259.859 446.359 299.182 463.895 332.173 479.699 C 356.991 491.588 387.889 494.393 415.474 492.018 C 427.886 490.103 436.229 481.786 448.484 479.034 C 456.143 476.037 485.169 461.131 493.022 455.507 C 500.543 446.83 508.708 440.49 515.52 431.5 C 517.515 425.518 527.495 419.852 530.5 414.5 C 535.84 402.785 537.84 390.452 536.5 377.5 C 534.987 353.274 522.654 337.774 499.5 331 C 487.491 329.167 476.824 332.001 467.5 339.5 C 468.857 331.453 472.357 324.453 478 318.5 C 495.221 306.417 513.721 304.25 533.5 312 C 550.132 321.297 562.632 334.464 571 351.5 C 579.996 371.81 590.662 391.143 603 409.5 C 641.015 453.545 686.515 463.545 739.5 439.5 C 737.479 454.295 732.637 476.03 729.325 490.569 C 723.742 509.705 719.024 519.106 713.5 531.5 C 704.159 529.786 668.939 530.175 655.732 521.811 C 640.321 517.278 449.832 538.805 435.5 540.5 C 419.342 532.188 405.009 521.355 392.5 508 C 389.217 507.257 386.217 507.924 383.5 510 C 371.395 521.874 358.062 532.04 343.5 540.5 C 299.588 537.206 132.204 524.542 123.658 527.691 C 105.513 535.672 72.006 529.577 64.5 530.5 C 50.532 501.4 41.865 470.733 38.5 438.5 C 89.009 462.632 133.509 454.299 172 413.5 C 185.223 396.398 195.89 377.731 204 357.5 C 210.626 343.414 219.792 331.247 231.5 321 C 247.925 307.979 266.258 304.312 286.5 310 C 300.12 315.446 308.453 325.279 311.5 339.5 Z" />
                </g>
                <g>
                    <path style="opacity:1" fill="#188e9a" d="M 311.5,339.5 C 312.641,342.64 312.808,345.973 312,349.5C 310.456,351.468 309.289,353.635 308.5,356C 306.275,357.131 303.942,357.964 301.5,358.5C 285.348,349.901 274.015,354.235 267.5,371.5C 267.649,370.448 267.483,369.448 267,368.5C 266.166,372.679 264.832,376.679 263,380.5C 261.301,381.406 259.467,381.739 257.5,381.5C 257.657,380.127 257.49,378.793 257,377.5C 254.347,378.33 251.68,379.33 249,380.5C 248.085,379.672 247.419,378.672 247,377.5C 246,378.833 245,380.167 244,381.5C 243.667,380.167 243.333,378.833 243,377.5C 242.79,379.058 242.29,380.391 241.5,381.5C 241.842,370.8 244.675,360.8 250,351.5C 266.915,328.55 287.415,324.55 311.5,339.5 Z" />
                </g>
                <g>
                    <path style="opacity:1" fill="#178e9a" d="M 536.5,377.5 C 535.732,376.737 535.232,375.737 535,374.5C 534.385,376.116 533.385,377.449 532,378.5C 529.311,378.544 526.644,378.544 524,378.5C 522.08,379.088 520.413,380.088 519,381.5C 518.667,379.833 518.333,378.167 518,376.5C 517.333,379.167 516.667,379.167 516,376.5C 515.667,376.833 515.333,377.167 515,377.5C 513.33,373.464 511.663,369.464 510,365.5C 509.536,366.094 509.369,366.761 509.5,367.5C 507.416,364.235 505.083,361.068 502.5,358C 497.868,353.928 492.535,352.595 486.5,354C 481.701,359.022 476.368,359.689 470.5,356C 466.648,350.913 465.648,345.413 467.5,339.5C 476.824,332.001 487.491,329.167 499.5,331C 522.654,337.774 534.987,353.274 536.5,377.5 Z" />
                </g>
                <g>
                    <path style="opacity:1" fill="#1f6373" d="M 536.5,377.5 C 537.84,390.452 535.84,402.785 530.5,414.5C 531.127,411.911 531.127,409.411 530.5,407C 530.944,405.238 531.444,405.405 532,407.5C 532.201,404.485 531.868,401.485 531,398.5C 529.984,399.634 529.317,399.301 529,397.5C 528.309,399.891 527.309,399.891 526,397.5C 525.667,398.167 525.333,398.833 525,399.5C 524.612,398.572 523.945,397.905 523,397.5C 520.599,398.403 518.099,398.236 515.5,397C 516.34,395.334 515.84,395.167 514,396.5C 514.086,394.049 513.252,391.716 511.5,389.5C 512.645,381.994 511.978,374.661 509.5,367.5C 509.369,366.761 509.536,366.094 510,365.5C 511.663,369.464 513.33,373.464 515,377.5C 515.333,377.167 515.667,376.833 516,376.5C 516.667,379.167 517.333,379.167 518,376.5C 518.333,378.167 518.667,379.833 519,381.5C 520.413,380.088 522.08,379.088 524,378.5C 526.644,378.544 529.311,378.544 532,378.5C 533.385,377.449 534.385,376.116 535,374.5C 535.232,375.737 535.732,376.737 536.5,377.5 Z" />
                </g>
                <g>
                    <path style="opacity:1" fill="#206171" d="M 267.5,371.5 C 266.686,376.119 266.353,380.786 266.5,385.5C 265.525,389.364 265.358,393.364 266,397.5C 265.026,395.122 264.359,395.456 264,398.5C 262.956,397.377 262.29,396.044 262,394.5C 261.71,396.044 261.044,397.377 260,398.5C 258.853,397.542 257.853,397.875 257,399.5C 255.494,396.526 253.828,396.193 252,398.5C 251.085,397.672 250.419,396.672 250,395.5C 249.667,396.167 249.333,396.833 249,397.5C 248.667,396.167 248.333,394.833 248,393.5C 246.801,396.018 245.635,398.518 244.5,401C 245.077,403.137 245.41,405.304 245.5,407.5C 242.257,399.258 240.924,390.592 241.5,381.5C 242.29,380.391 242.79,379.058 243,377.5C 243.333,378.833 243.667,380.167 244,381.5C 245,380.167 246,378.833 247,377.5C 247.419,378.672 248.085,379.672 249,380.5C 251.68,379.33 254.347,378.33 257,377.5C 257.49,378.793 257.657,380.127 257.5,381.5C 259.467,381.739 261.301,381.406 263,380.5C 264.832,376.679 266.166,372.679 267,368.5C 267.483,369.448 267.649,370.448 267.5,371.5 Z" />
                </g>
                <g>
                    <path style="opacity:1" fill="#303348" d="M 266.5 385.5 C 267.389 393.056 269.222 400.39 272 407.5 C 287.701 438.188 312.201 458.354 345.5 468 C 390.811 480.835 433.144 474.502 472.5 449 C 492.943 434.055 505.943 414.222 511.5 389.5 C 513.252 391.716 514.086 394.049 514 396.5 C 515.84 395.167 516.34 395.334 515.5 397 C 518.099 398.236 520.599 398.403 523 397.5 C 523.945 397.905 524.612 398.572 525 399.5 C 525.333 398.833 525.667 398.167 526 397.5 C 527.309 399.891 528.309 399.891 529 397.5 C 529.317 399.301 529.984 399.634 531 398.5 C 531.868 401.485 532.201 404.485 532 407.5 C 531.444 405.405 530.944 405.238 530.5 407 C 531.127 409.411 531.127 411.911 530.5 414.5 C 527.495 419.852 524.995 425.518 523 431.5 C 516.188 440.49 509.021 449.323 501.5 458 C 493.647 463.624 485.981 469.624 478.5 476 C 476.392 476.36 468.4 482.057 465.5 483 C 457.825 486.003 450.159 489.003 442.5 492 C 430.245 494.752 417.912 497.085 405.5 499 C 377.915 501.375 351.249 497.708 325.5 488 C 286.525 473.193 259.859 446.359 245.5 407.5 C 245.41 405.304 245.077 403.137 244.5 401 C 245.635 398.518 246.801 396.018 248 393.5 C 248.333 394.833 248.667 396.167 249 397.5 C 249.333 396.833 249.667 396.167 250 395.5 C 250.419 396.672 251.085 397.672 252 398.5 C 253.828 396.193 255.494 396.526 257 399.5 C 257.853 397.875 258.853 397.542 260 398.5 C 261.044 397.377 261.71 396.044 262 394.5 C 262.29 396.044 262.956 397.377 264 398.5 C 264.359 395.456 265.026 395.122 266 397.5 C 265.358 393.364 265.525 389.364 266.5 385.5 Z" />
                </g>
                <g>
                    <path style="opacity:1" fill="#178f9b" d="M 343.5,540.5 C 282.677,572.565 222.01,572.398 161.5,540C 148.439,531.437 136.439,521.603 125.5,510.5C 134.046,507.351 142.713,504.184 151.5,501C 170.919,492.399 187.253,479.899 200.5,463.5C 208.23,474.402 216.896,484.568 226.5,494C 260.588,521.706 299.588,537.206 343.5,540.5 Z" />
                </g>
                <g>
                    <path style="opacity:1" fill="#178f9b" d="M 652.5,510.5 C 608.184,554.765 554.85,571.598 492.5,561C 472.365,557.013 453.365,550.18 435.5,540.5C 449.832,538.805 464.165,536.305 478.5,533C 520.398,521.815 553.898,498.648 579,463.5C 587.577,474.079 597.41,483.245 608.5,491C 622.423,499.467 637.089,505.967 652.5,510.5 Z" />
                </g>
                <g />
                <g>
                    <path style="opacity:1" fill="#fefefe" d="M 435.5 540.5 C 453.365 550.18 472.365 557.013 492.5 561 C 554.85 571.598 608.184 554.765 652.5 510.5 C 656.012 509.707 659.346 510.54 662.5 513 C 667.872 520.689 675.205 525.356 684.5 527 C 694.492 528.286 704.159 529.786 713.5 531.5 C 711.868 537.43 709.202 542.764 705.5 547.5 C 692.793 547.462 540.01 607.669 527.384 603.374 C 522.803 601.503 393.887 575.5 390.135 572.371 C 330.515 621.449 299.746 617.541 226.851 598.311 C 201.39 589.588 91.491 547.71 73.5 547.5 C 72.624 547.631 66.439 535.975 64.5 530.5 C 72.006 529.577 79.672 528.744 87.5 528 C 95.002 527.044 102.002 524.711 108.5 521 C 111.887 517.613 115.221 514.279 118.5 511 C 120.74 509.193 123.073 509.026 125.5 510.5 C 136.439 521.603 148.439 531.437 161.5 540 C 222.01 572.398 282.677 572.565 343.5 540.5 C 358.062 532.04 371.395 521.874 383.5 510 C 386.217 507.924 389.217 507.257 392.5 508 C 405.009 521.355 419.342 532.188 435.5 540.5 Z" />
                </g>
                <g>
                    <path style="opacity:1" fill="#57d3cb" d="M 705.5 547.5 C 702.108 554.617 698.441 561.617 694.5 568.5 C 663.607 586.945 621.238 672.245 569.864 651.871 C 550.186 643.813 402.847 618.753 388.192 603.811 C 372.771 619.777 257.879 644.266 236.967 651.967 C 179.22 672.982 110.726 584.947 85.5 570.5 C 80.619 563.288 76.619 555.621 73.5 547.5 C 91.491 547.71 108.158 543.376 123.5 534.5 C 144.039 551.443 167.039 564.277 192.5 573 C 265.395 592.23 330.895 578.063 389 530.5 C 408.939 547.057 431.106 559.89 455.5 569 C 528.88 594.411 595.38 582.578 655 533.5 C 658.752 536.629 662.919 539.129 667.5 541 C 680.126 545.295 692.793 547.462 705.5 547.5 Z" />
                </g>
                <g>
                    <path style="opacity:1" fill="#168e9a" d="M 694.5 568.5 C 692.693 572.114 690.86 575.78 689 579.5 C 671.809 604.377 651.976 627.21 629.5 648 C 625.22 652.126 620.554 655.626 615.5 658.5 C 586.399 676.128 551.283 702.163 517.384 705.868 C 477.124 707.822 276.015 712.258 242.907 701.887 C 222.297 695.467 178.723 666.413 161 654.5 C 160.617 655.056 160.117 655.389 159.5 655.5 C 131.187 633.046 107.52 606.879 88.5 577 C 87.588 574.749 86.588 572.583 85.5 570.5 C 110.726 584.947 136.726 598.114 163.5 610 C 220.419 633.682 277.753 635.015 335.5 614 C 356.412 606.299 374.579 594.466 390 578.5 C 404.655 593.442 421.822 604.942 441.5 613 C 492.874 633.374 544.874 634.374 597.5 616 C 631.274 602.778 663.607 586.945 694.5 568.5 Z" />
                </g>
                <g>
                    <path style="opacity:1" fill="#1f6272" d="M 615.5,658.5 C 559.031,704.516 494.197,731.182 421,738.5C 346.733,744.03 274.9,727.53 205.5,689C 189.213,679.035 173.88,667.868 159.5,655.5C 160.117,655.389 160.617,655.056 161,654.5C 178.723,666.413 197.89,675.58 218.5,682C 251.608,692.371 284.608,693.037 317.5,684C 345.521,675.498 369.521,660.665 389.5,639.5C 396.016,645.851 402.683,652.017 409.5,658C 443.573,681.621 480.74,692.454 521,690.5C 554.899,686.795 586.399,676.128 615.5,658.5 Z" />
                </g>
            </svg>